<?xml version="1.0" standalone="no"?>
<!DOCTYPE svg PUBLIC "-//W3C//DTD SVG 1.1//EN" "http://www.w3.org/Graphics/SVG/1.1/DTD/svg11.dtd" >
<svg xmlns="http://www.w3.org/2000/svg" xmlns:xlink="http://www.w3.org/1999/xlink" version="1.1">
<metadata></metadata>
<defs>
<font id="public_sansregular" horiz-adv-x="1454" >
<font-face units-per-em="2048" ascent="1638" descent="-410" />
<missing-glyph horiz-adv-x="472" />
<glyph unicode="&#xfb01;" horiz-adv-x="1369" d="M84 921v138h223v164q0 127 64.5 192.5t192.5 65.5h200l1 -134h-159q-62 0 -86.5 -33.5t-24.5 -107.5v-147h260v-138h-257v-921h-191v921h-223zM1004 1283v197h193v-197h-193zM1010 0v1059h183v-1059h-183z" />
<glyph unicode="&#xfb02;" horiz-adv-x="1440" d="M84 921v138h223v164q0 127 64.5 192.5t192.5 65.5h200l1 -134h-159q-62 0 -86.5 -33.5t-24.5 -107.5v-147h260v-138h-257v-921h-191v921h-223zM988 272v1250h187v-1231q0 -156 118 -164l58 -1v-123q-57 -16 -96 -16q-66 0 -115.5 16t-78 41.5t-45.5 64t-22.5 76.5 t-5.5 87z" />
<glyph horiz-adv-x="54" />
<glyph horiz-adv-x="54" />
<glyph horiz-adv-x="682" />
<glyph unicode="&#xd;" horiz-adv-x="478" />
<glyph unicode=" "  horiz-adv-x="472" />
<glyph unicode="&#x09;" horiz-adv-x="472" />
<glyph unicode="&#xa0;" horiz-adv-x="472" />
<glyph unicode="!" horiz-adv-x="514" d="M139 0v239h226v-239h-226zM139 1481h227l-50 -1105h-127z" />
<glyph unicode="&#x22;" horiz-adv-x="871" d="M139 1481h230l-62 -479h-108zM503 1481h229l-61 -479h-109z" />
<glyph unicode="#" horiz-adv-x="1234" d="M75 480v116h1012v-116h-1012zM140 900v116h1013v-116h-1013zM243 13l223 1471l116 -14l-223 -1473zM663 13l223 1471l115 -14l-222 -1473z" />
<glyph unicode="$" horiz-adv-x="1348" d="M122 379l199 12q32 -123 129 -186.5t243 -63.5q133 0 231.5 67t98.5 172q0 97 -57.5 155.5t-184.5 92.5l-255 66q-163 41 -261 132q-95 88 -97 242q-3 190 147.5 311.5t385.5 119.5q218 2 355.5 -121.5t142.5 -297.5l-192 -10q-46 268 -306 268q-87 0 -160 -27.5 t-121 -86t-48 -138.5q0 -79 56 -125q57 -48 203 -93l246 -69q188 -52 269 -162q80 -112 80 -255q2 -175 -147.5 -289t-384.5 -113q-236 0 -388 101q-156 101 -184 298zM602 50h175v-264h-175v264zM614 1438v264h176v-264h-176z" />
<glyph unicode="%" horiz-adv-x="1851" d="M109 1079q0 191 99 307.5t253 116.5q152 0 249.5 -116.5t97.5 -307.5t-97 -306t-250 -115q-154 0 -253 115.5t-99 305.5zM254 1079q0 -142 53 -227q55 -88 152 -88t151 87q53 88 53 228q0 145 -54 232t-150 87t-150.5 -88t-54.5 -231zM349 -7l1000 1504h124l-996 -1505z M1036 402q0 189 99.5 306.5t252.5 117.5q152 0 250 -117.5t98 -306.5q0 -191 -97 -306.5t-251 -115.5q-155 0 -253.5 115.5t-98.5 306.5zM1182 400q0 -138 54.5 -225.5t148.5 -87.5t149.5 87.5t55.5 225.5q0 141 -56 230.5t-149 89.5t-148 -89.5t-55 -230.5z" />
<glyph unicode="&#x26;" horiz-adv-x="1451" d="M89 372q0 143 84 247.5t267 201.5q-94 101 -139 182.5t-45 174.5q0 139 107.5 232t274.5 93q107 1 199.5 -37.5t149.5 -112t56 -165.5q0 -42 -16 -85.5t-52.5 -96t-108.5 -109.5t-173 -111l325 -379q41 58 82 162.5t48 228.5h186q-20 -143 -76 -260.5t-146 -244.5 l250 -293h-221l-144 165q-215 -175 -461 -175q-213 0 -330 105t-117 277zM298 377q6 -106 86.5 -171t192.5 -65q85 0 172 38t153 103l-365 425q-106 -58 -176 -142q-68 -82 -63 -188zM446 1189q0 -67 39 -136t87 -121l36 -40q152 89 207 154.5t55 137.5q0 65 -34 109.5 t-83 62.5t-108 17q-96 -1 -147 -55q-52 -57 -52 -129z" />
<glyph unicode="'" horiz-adv-x="507" d="M139 1481h230l-62 -479h-108z" />
<glyph unicode="(" horiz-adv-x="619" d="M142 646q0 251 82 489q80 231 211 423h130q-103 -194 -172 -435q-67 -235 -67 -479q0 -224 56 -442t167 -455h-129q-139 235 -208.5 444t-69.5 455z" />
<glyph unicode=")" horiz-adv-x="632" d="M40 1558h130q131 -192 211 -423q82 -238 82 -489q0 -246 -69.5 -455t-208.5 -444h-129q112 238 168 455.5t56 441.5q0 240 -68 479q-69 241 -172 435z" />
<glyph unicode="*" horiz-adv-x="806" d="M54 1177l43 119l257 -103l-18 288h139l-18 -289l260 113l39 -120l-263 -83l188 -232l-114 -80l-159 259l-165 -266l-113 77l194 241z" />
<glyph unicode="+" horiz-adv-x="1135" d="M126 670v147l884 1v-146zM495 1187h147l1 -884h-146z" />
<glyph unicode="," horiz-adv-x="494" d="M89 -257l115 253l-89 5v226h236v-196l-174 -288h-88z" />
<glyph unicode="-" horiz-adv-x="773" d="M127 454v148l519 2v-149z" />
<glyph unicode="." horiz-adv-x="461" d="M113 0v242h225v-242h-225z" />
<glyph unicode="/" horiz-adv-x="717" d="M28 -79l512 1560h147l-513 -1560h-146z" />
<glyph unicode="0" horiz-adv-x="1253" d="M98 734q0 373 142 570t388 197q242 0 384 -192q142 -193 142 -572q0 -376 -142 -567q-143 -193 -386 -193q-242 0 -385 192q-143 191 -143 565zM301 736q0 -314 84 -454q85 -141 243 -141t240 141q81 140 81 454q0 320 -82 464q-83 141 -240 141t-241 -142 q-85 -144 -85 -463z" />
<glyph unicode="1" horiz-adv-x="833" d="M95 1179v124q131 0 206.5 20t106 57.5t33.5 100.5h136v-1481h-196v1179h-286z" />
<glyph unicode="2" horiz-adv-x="1220" d="M95 1034q2 96 37.5 180t100 149t166 102t225.5 36q222 0 354.5 -115.5t132.5 -305.5q0 -108 -42.5 -195t-110.5 -144.5t-151 -106t-165.5 -91.5t-150.5 -89t-110.5 -111t-42.5 -145v-30h781v-168h-992v116v60q0 85 26.5 157.5t72 125t104.5 98.5t124 83t130 72.5 t124 73.5t104 79t71.5 96t26.5 119q0 113 -79 184q-79 70 -215 70q-145 0 -233 -82q-89 -82 -99 -218h-189z" />
<glyph unicode="3" horiz-adv-x="1290" d="M98 426h190q22 -137 112 -211.5t229 -74.5q163 0 260.5 75t97.5 196q0 129 -104.5 202t-268.5 75l-133 3v161l127 3q145 3 242.5 78t97.5 180q0 96 -86.5 163t-232.5 67q-61 0 -116.5 -17.5t-102.5 -52t-75 -92t-29 -131.5h-188q-2 138 69 242.5t187 157t256 51.5 q235 0 378.5 -101t143.5 -281q0 -112 -71.5 -200t-211.5 -137q151 -41 237 -136.5t86 -236.5q0 -199 -159.5 -316.5t-410.5 -115.5q-230 2 -373.5 123.5t-150.5 325.5z" />
<glyph unicode="4" horiz-adv-x="1287" d="M95 378v173l690 930h193v-936h246v-167h-246v-378h-185v378h-698zM276 545h512v687z" />
<glyph unicode="5" horiz-adv-x="1311" d="M98 357l164 69q59 -134 159.5 -211.5t240.5 -77.5q155 0 253 92q96 91 96 249q0 144 -97 235.5t-238 91.5q-100 0 -172.5 -29t-151.5 -117q-8 -4 -19 1l-160 51l67 770h883l-5 -164h-717l-37 -478q137 127 351 127q100 0 189.5 -32t159 -91t109.5 -152t39 -207 q0 -230 -146.5 -368.5t-390.5 -138.5q-203 0 -360.5 105.5t-216.5 274.5z" />
<glyph unicode="6" horiz-adv-x="1274" d="M98 718q0 238 66.5 413.5t198 272.5t315.5 97q189 0 324.5 -104t159.5 -282h-178q-31 107 -109 167.5t-194 60.5q-197 0 -295 -166t-79 -476q41 113 145.5 182t235.5 69q221 0 355 -126.5t134 -342.5q0 -225 -140.5 -365.5t-374.5 -140.5q-259 0 -411.5 198.5 t-152.5 542.5zM335 521q-2 -170 88.5 -278.5t235.5 -108.5q137 0 225.5 95t88.5 245q0 154 -82 239.5t-234 85.5q-79 0 -154 -38t-122.5 -103t-45.5 -137z" />
<glyph unicode="7" horiz-adv-x="1229" d="M95 1317v164h1040v-164q-192 -262 -366.5 -671.5t-200.5 -645.5h-206q18 108 60.5 253.5t110 321t171 373t223.5 369.5h-832z" />
<glyph unicode="8" horiz-adv-x="1326" d="M98 401q-2 124 92 236t207 133q-100 43 -167 125q-66 81 -66 203q-2 187 140 295.5t359 107.5q143 0 255 -46t177.5 -138.5t65.5 -218.5q0 -116 -62.5 -199.5t-169.5 -128.5q112 -21 206 -133t93 -236q0 -191 -154.5 -307.5t-410.5 -116.5q-255 0 -410 116.5t-155 307.5z M303 402q0 -123 98 -196q97 -75 262 -75q164 0 263 75q98 73 98 196t-99 202t-262 79q-162 0 -261 -79t-99 -202zM358 1102q0 -119 85 -186q84 -66 220 -66t220 66t84 186q0 119 -85 189q-84 69 -219 69t-220 -70t-85 -188z" />
<glyph unicode="9" horiz-adv-x="1278" d="M101 362h185q25 -100 106 -163q82 -64 197 -64q204 0 310 160.5t89 487.5q-39 -118 -143.5 -190.5t-242.5 -72.5q-223 0 -358 128t-135 348q0 225 137.5 365t371.5 140q259 0 410.5 -197t151.5 -542q0 -374 -152.5 -579.5t-432.5 -205.5q-123 0 -228.5 45.5t-177.5 134.5 t-88 205zM313 1006q0 -151 80.5 -238t229.5 -87q79 -1 154.5 37t122 103t45.5 136q2 172 -87.5 281t-236.5 109q-135 0 -221.5 -95t-86.5 -246z" />
<glyph unicode=":" horiz-adv-x="461" d="M113 6v239h226v-239h-226zM113 776v241h226v-241h-226z" />
<glyph unicode=";" horiz-adv-x="491" d="M113 -292l116 292h-87v240h227v-212l-174 -320h-82zM136 771v243h226v-243h-226z" />
<glyph unicode="&#x3c;" horiz-adv-x="1117" d="M126 622v173l865 342v-179l-639 -250l638 -249v-174z" />
<glyph unicode="=" horiz-adv-x="1135" d="M126 414v146l884 2v-147zM126 868v147l884 1v-147z" />
<glyph unicode="&#x3e;" horiz-adv-x="1117" d="M126 958v179l865 -342v-173l-864 -337v174l639 249z" />
<glyph unicode="?" horiz-adv-x="1057" d="M47 1205q66 140 195 218q127 78 293 78q204 0 328.5 -99t124.5 -256q1 -71 -21 -133.5t-58 -110.5t-80 -94t-88 -91.5t-80.5 -93t-59 -110t-21.5 -132.5h-162q-1 79 19.5 149.5t54 123.5t74 102t81 93t74 87.5t54.5 95t20 106.5q0 99 -73 160q-73 59 -190 59 q-99 0 -190.5 -58.5t-125.5 -143.5zM387 0v239h224v-239h-224z" />
<glyph unicode="@" horiz-adv-x="1695" d="M91 521q-1 160 58 305.5t163 255t256.5 174t328.5 63.5q106 0 206.5 -23t192.5 -73.5t160 -123.5t108.5 -181t39.5 -239q1 -149 -49.5 -268t-139.5 -184.5t-198 -64.5q-151 0 -182 104q-5 13 -9.5 13t-13.5 -11q-102 -135 -276 -135q-120 0 -202.5 98t-82.5 255 q-1 124 48 230t139.5 169.5t201.5 62.5q152 0 228 -123q3 -4 8 -2t6 10l17 64h129l-77 -455q-14 -84 5.5 -118t71.5 -34q98 0 167 102.5t69 274.5q0 112 -33 202.5t-88 150t-129.5 100t-153.5 58t-164 17.5q-157 0 -284.5 -54t-209.5 -147t-126 -214.5t-44 -259.5 q0 -133 43.5 -246.5t126 -198t209 -132t283.5 -47.5q67 0 119 8.5t101 31t74.5 38t79.5 51.5l72 -96q-201 -154 -475 -154q-236 0 -414 101.5t-269 269.5t-91 375zM606 498q0 -105 43 -168t118 -63q95 0 169 82t88 194q16 127 -37 199t-138 72q-104 0 -173.5 -92t-69.5 -224 z" />
<glyph unicode="A" d="M85 0l536 1481h214l535 -1481h-193l-146 406h-605l-148 -406h-193zM474 580h507l-252 713z" />
<glyph unicode="B" horiz-adv-x="1373" d="M196 0v1481h476q269 0 408.5 -99t139.5 -287q0 -117 -61 -202q-61 -84 -214 -138q311 -65 311 -357q0 -398 -569 -398h-491zM385 158h300q379 0 379 249q0 90 -48.5 150t-126.5 86t-181 26h-323v-511zM385 829h323q62 0 116.5 12t104 38t78.5 75.5t29 116.5 q0 130 -98 192q-100 61 -257 61h-296v-495z" />
<glyph unicode="C" horiz-adv-x="1410" d="M111 745q0 361 164 558.5t465 197.5h6q111 0 209 -37q101 -38 172.5 -103.5t117 -153t54.5 -183.5h-201q-26 138 -120 225t-243 87q-414 0 -414 -593q0 -306 104.5 -452.5t309.5 -146.5q148 0 242 91.5t121 230.5h201q-12 -97 -51.5 -182.5t-106.5 -154.5t-170.5 -109 t-230.5 -40q-299 0 -464 201.5t-165 563.5z" />
<glyph unicode="D" horiz-adv-x="1420" d="M196 0v1481q262 0 344 -2q400 -6 585 -188t185 -541q0 -750 -790 -750h-324zM390 163h130q141 0 247 31.5t184.5 99t118.5 181t40 271.5q0 159 -38.5 270.5t-116 176.5t-181.5 94.5t-246 30.5h-138v-1155z" />
<glyph unicode="E" horiz-adv-x="1270" d="M196 0v1481h933l-1 -167h-742v-484h669v-165h-670v-494l764 -2v-169h-953z" />
<glyph unicode="F" horiz-adv-x="1216" d="M196 0v1481h922l-1 -166h-727v-490h653v-163h-653v-662h-194z" />
<glyph unicode="G" horiz-adv-x="1501" d="M111 736q0 359 170.5 562t466.5 203q109 0 210 -39.5t174.5 -105t120 -153t52.5 -179.5h-203q-23 128 -122.5 218.5t-235.5 90.5q-200 0 -314.5 -148t-114.5 -445q0 -154 33 -269.5t92.5 -184t137 -102t172.5 -33.5q88 0 161 33t117.5 85t69.5 110.5t27 115.5l7 131h-361 v139l557 -1v-764h-142v225q-150 -245 -447 -245q-294 0 -461 199.5t-167 556.5z" />
<glyph unicode="H" horiz-adv-x="1568" d="M196 0v1481h189v-631h799v631h189v-1481h-189v683h-799v-683h-189z" />
<glyph unicode="I" horiz-adv-x="579" d="M196 0v1481h189v-1481h-189z" />
<glyph unicode="J" horiz-adv-x="795" d="M85 26l13 181q8 -3 33 -13t41 -15.5t44.5 -11t57.5 -5.5q100 0 139 55q37 55 37 186v1078h189v-1132q0 -93 -14 -158t-49 -114.5t-97 -73t-154 -23.5q-79 0 -148 18q-63 17 -92 28z" />
<glyph unicode="K" horiz-adv-x="1396" d="M196 0v1481h196v-766l664 766h226l-495 -582l538 -899h-214l-462 761l-257 -294v-467h-196z" />
<glyph unicode="L" horiz-adv-x="1182" d="M196 0l1 1481h193v-1311h700v-170h-894z" />
<glyph unicode="M" horiz-adv-x="1813" d="M196 0v1481h262l446 -1223l453 1223h261v-1481h-196v1197l-429 -1197h-177l-426 1186v-1186h-194z" />
<glyph unicode="N" horiz-adv-x="1544" d="M196 0v1481h181l782 -1151v1151h190v-1481h-169l-795 1167v-1167h-189z" />
<glyph unicode="O" horiz-adv-x="1503" d="M111 737q0 360 173 562t470 202t468 -201t171 -563q0 -358 -170.5 -557.5t-468.5 -199.5q-299 0 -471 199.5t-172 557.5zM319 735q0 -299 113.5 -445t321.5 -146q431 0 431 591q0 304 -111.5 452.5t-319.5 148.5t-321.5 -149.5t-113.5 -451.5z" />
<glyph unicode="P" horiz-adv-x="1303" d="M196 0v1481h500q118 0 218.5 -30.5t174.5 -88.5q73 -58 115 -148q41 -87 41 -196v-5q0 -218 -143 -341.5t-380 -123.5h-332v-548h-194zM389 708h329q152 0 248 85q95 84 95 231q0 149 -98 223q-100 76 -254 76h-320v-615z" />
<glyph unicode="Q" horiz-adv-x="1530" d="M111 737q0 362 172 563t470 201q299 0 469.5 -200.5t170.5 -563.5q0 -235 -69.5 -397.5t-219.5 -258.5q36 -81 109 -123t168 -45v-161q-49 1 -90.5 6t-94 21t-96 41.5t-89.5 71t-83 106.5q-103 -18 -175 -18q-298 0 -470 197.5t-172 559.5zM321 733q0 -306 113 -446 q113 -143 319 -143t320 143q113 143 113 449q0 301 -110.5 450.5t-322.5 149.5q-211 0 -321.5 -150t-110.5 -453z" />
<glyph unicode="R" horiz-adv-x="1385" d="M196 0v1481h573q237 0 359 -106.5t122 -298.5v-8q0 -283 -286 -396l290 -672h-200l-271 638h-398v-638h-189zM385 795h323q168 0 258.5 68.5t90.5 201.5q0 129 -80 195t-224 66h-368v-531z" />
<glyph unicode="S" horiz-adv-x="1379" d="M119 393h198q27 -123 131.5 -189.5t248.5 -66.5q160 0 262.5 65.5t102.5 177.5q0 191 -257 249l-291 67q-167 37 -258 130q-93 95 -93 247q1 186 149 306t372 120h7.5h6.5q124 -1 226 -35q105 -36 171.5 -96.5t102.5 -137t36 -160.5h-196q-7 73 -37 126.5t-78 83.5 t-105.5 44t-125.5 14q-87 0 -160.5 -27.5t-121.5 -86t-48 -138.5q0 -79 56 -130q53 -50 198 -86l282 -67q105 -22 179 -68t111 -107t52 -120t15 -126q0 -173 -151 -287.5t-406 -114.5q-106 0 -203.5 26.5t-177 77t-132.5 130.5t-66 179z" />
<glyph unicode="T" horiz-adv-x="1215" d="M47 1307v174h1120v-174h-451v-1307h-191v1307h-478z" />
<glyph unicode="U" horiz-adv-x="1434" d="M196 531v950h196v-978q0 -178 88.5 -268t255.5 -90q169 0 260 89.5t91 268.5v978h191v-969q0 -263 -131 -397.5t-411 -134.5q-283 0 -411.5 138t-128.5 413z" />
<glyph unicode="V" horiz-adv-x="1363" d="M47 1481h187l444 -1265l452 1265h187l-525 -1481h-229z" />
<glyph unicode="W" horiz-adv-x="1952" d="M47 1481h192l327 -1179l334 1179h149l332 -1179l334 1179h191l-432 -1481h-176l-324 1148l-330 -1148h-170z" />
<glyph unicode="X" horiz-adv-x="1409" d="M85 0l502 756l-485 725h234l369 -565l365 565h209l-473 -706l519 -775h-234l-402 610l-395 -610h-209z" />
<glyph unicode="Y" horiz-adv-x="1243" d="M25 1481h206l394 -681l387 681h208l-502 -851v-630h-189v631z" />
<glyph unicode="Z" horiz-adv-x="1304" d="M130 0v104l811 1212h-776v165h1041v-101l-818 -1213h814v-167h-1072z" />
<glyph unicode="[" horiz-adv-x="620" d="M183 1481h382v-122h-215l-1 -1567h215v-122h-380z" />
<glyph unicode="\" horiz-adv-x="717" d="M24 1481h147l513 -1560h-148z" />
<glyph unicode="]" horiz-adv-x="649" d="M42 1359v122h382l-1 -1811h-380v122h215l-1 1567h-215z" />
<glyph unicode="^" horiz-adv-x="968" d="M91 265l305 741q28 70 81 71.5t83 -70.5l306 -745h-150l-238 599l-239 -596h-148z" />
<glyph unicode="_" horiz-adv-x="1059" d="M126 -94l804 1v-149l-804 -1v149z" />
<glyph unicode="`" horiz-adv-x="447" d="M11 1481h215l211 -298h-146z" />
<glyph unicode="a" horiz-adv-x="1156" d="M100 287q0 176 124 262t393 92l190 5v83q0 100 -60 155.5t-180 55.5q-91 -2 -159 -43q-72 -44 -91 -137h-166q9 154 120.5 236.5t305.5 82.5q205 0 308.5 -86.5t103.5 -253.5v-739h-162l-13 199q-60 -121 -156 -171q-92 -48 -208 -48q-157 0 -253.5 81.5t-96.5 225.5z M285 305q0 -88 61 -138.5t161 -50.5q70 0 139.5 33t114.5 87.5t46 111.5v181l-158 -3q-187 -3 -275.5 -54.5t-88.5 -166.5z" />
<glyph unicode="b" horiz-adv-x="1218" d="M157 0v1522h190v-631q15 29 41.5 59t68 60.5t104 49.5t133.5 19q198 0 317 -138q116 -137 116 -407q0 -256 -114.5 -405t-332.5 -149q-71 0 -130 17.5t-95.5 42t-65.5 59t-43 61.5t-24 57l-21 -217h-144zM347 543q0 -221 70 -320q68 -98 229 -98q129 0 210 100 q81 101 81 318q0 187 -75.5 288t-219.5 101q-153 0 -223 -98.5t-72 -290.5z" />
<glyph unicode="c" horiz-adv-x="1104" d="M91 525q0 252 129 403t359 151q171 0 287.5 -96.5t138.5 -258.5h-168q-14 87 -83 145t-174 58q-138 0 -222 -99q-85 -100 -85 -301q0 -182 79 -293q77 -110 231 -110q104 0 172.5 58.5t82.5 144.5h164q-20 -158 -137 -252.5t-286 -94.5q-220 0 -354 143t-134 402z" />
<glyph unicode="d" horiz-adv-x="1218" d="M91 534q0 253 111 399t322 146q71 0 133.5 -19t104 -49.5t68 -60.5t41.5 -59v631h191v-1522h-144l-21 217q-10 -30 -24 -57t-43 -61.5t-65.5 -59t-95.5 -42t-130 -17.5q-205 0 -327 141q-121 140 -121 413zM282 543q0 -200 74.5 -309t215.5 -109q163 0 231 98 q68 96 68 320q-2 192 -71.5 290.5t-222.5 98.5q-132 0 -213 -93q-82 -94 -82 -296z" />
<glyph unicode="e" horiz-adv-x="1153" d="M100 519q0 253 130 406.5t357 153.5q222 0 343 -140t121 -384v-70h-759q0 -158 78.5 -258.5t226.5 -100.5q103 0 175 47.5t93 135.5h179q-17 -103 -85.5 -180t-161.5 -113q-91 -36 -191 -36h-5q-225 0 -363 144.5t-138 394.5zM293 613h575q0 143 -72 233t-210 90h-5 q-69 0 -125 -27q-58 -28 -92.5 -75t-52.5 -104t-18 -117z" />
<glyph unicode="f" horiz-adv-x="831" d="M84 921v138h223v164q0 127 64.5 192.5t192.5 65.5h200l1 -134h-159q-62 0 -86.5 -33.5t-24.5 -107.5v-147h260v-138h-257v-921h-191v921h-223z" />
<glyph unicode="g" horiz-adv-x="1271" d="M76 -67q0 40 16 75q18 38 46 62.5t55 42t52.5 30t29.5 16.5q-2 1 -14.5 8t-18 10t-17.5 11t-18 14t-15 16.5t-13.5 20.5t-8 24t-3.5 29q0 52 48 92.5t138 61.5q-93 46 -145 124t-52 170q0 155 123.5 245t336.5 90q99 0 170 -23t136 -69q183 80 270 112l-1 -175l-185 -35 q34 -75 34 -145q0 -146 -114 -240t-327 -94q-29 0 -63 2q-104 -3 -150 -24q-41 -20 -41 -47q0 -29 43 -40.5t160 -20.5q227 -13 229 -13q166 -10 256.5 -85t90.5 -202q0 -145 -129 -235q-130 -91 -392 -91q-252 0 -388 71q-139 72 -139 212zM263 -50q0 -86 93.5 -132 t280.5 -46q302 0 302 177q0 65 -49 104.5t-144 45.5l-296 20h-7q-59 0 -118 -48q-62 -51 -62 -121zM346 738q0 -101 67.5 -156t190.5 -55q118 0 186.5 54.5t68.5 156.5q0 105 -69 162.5t-186 57.5q-118 0 -188 -57.5t-70 -162.5z" />
<glyph unicode="h" horiz-adv-x="1180" d="M157 0v1522h184v-619q44 73 128 121t203 48q159 0 264 -86t105 -229v-757h-189v719q0 94 -64.5 146.5t-170.5 52.5q-114 0 -193 -54.5t-79 -156.5v-707h-188z" />
<glyph unicode="i" horiz-adv-x="537" d="M172 1283v197h194v-197h-194zM178 0v1059h183v-1059h-183z" />
<glyph unicode="j" horiz-adv-x="537" d="M-47 -189l104 5q71 5 100 37.5t29 105.5v1100h190v-1106q0 -148 -64 -221q-65 -72 -226 -72q-89 0 -111 12l-22 13v126zM180 1283v197h201v-197h-201z" />
<glyph unicode="k" horiz-adv-x="1155" d="M157 0v1522h188v-993l498 530h217l-382 -404l408 -655h-200l-332 531l-209 -216v-315h-188z" />
<glyph unicode="l" horiz-adv-x="609" d="M157 272v1250h186v-1231q0 -156 119 -164l57 -1v-123q-57 -16 -95 -16q-66 0 -115.5 16t-78 41.5t-45.5 64t-22.5 76.5t-5.5 87z" />
<glyph unicode="m" horiz-adv-x="1771" d="M157 0v1059h182v-154q46 71 121 122q76 52 199 52q92 0 179.5 -46t126.5 -127q51 79 135.5 126t186.5 47q48 0 92.5 -10t92 -36.5t82 -68.5t56.5 -112t22 -160v-692h-190v674q0 69 -17.5 118.5t-49 76t-68.5 38.5t-82 12q-39 0 -78 -11t-77 -34t-61 -66t-22 -100v-708 h-188v729q0 87 -67 138.5t-148 51.5q-32 0 -65 -7t-65 -24t-56 -40q-26 -24 -40 -60q-14 -34 -13 -74v-6v-708h-188z" />
<glyph unicode="n" horiz-adv-x="1181" d="M157 0v1059h183v-154q42 73 127 121t205 48q162 0 266 -96.5t104 -285.5v-692h-189v674q0 120 -63 182t-170 62q-115 0 -195 -55t-80 -155v-708h-188z" />
<glyph unicode="o" horiz-adv-x="1150" d="M91 525q0 253 128.5 403.5t358.5 150.5q222 0 351.5 -145t129.5 -409q0 -248 -125.5 -396.5t-355.5 -148.5q-224 0 -355.5 142.5t-131.5 402.5zM280 529q0 -179 74 -289.5t224 -110.5q141 0 217 105.5t76 294.5q0 118 -28.5 205.5t-96 142t-168.5 54.5 q-144 0 -221 -105.5t-77 -296.5z" />
<glyph unicode="p" horiz-adv-x="1216" d="M157 -330v1389h188l2 -185q21 37 48.5 69.5t69.5 65t101.5 51.5t128.5 19q198 0 313.5 -135t115.5 -400q0 -272 -116 -418t-328 -146q-67 0 -124.5 19.5t-97 53.5t-65.5 67t-46 71v-521h-190zM345 538q0 -178 78.5 -294.5t220.5 -116.5q132 0 214 100q83 101 83 311 q0 179 -76 287q-75 107 -221 107q-148 0 -223 -109q-76 -111 -76 -285z" />
<glyph unicode="q" horiz-adv-x="1216" d="M91 544q0 255 111.5 395t318.5 140q69 0 128.5 -19t101 -51.5t70 -65.5t47.5 -69l3 185h189v-1389h-191v521q-108 -211 -333 -211q-201 0 -323 140.5t-122 423.5zM274 538q0 -191 77 -301q75 -110 220 -110q143 0 221.5 116.5t78.5 294.5q0 176 -75 285t-225 109 q-131 0 -213 -97q-84 -97 -84 -297z" />
<glyph unicode="r" horiz-adv-x="793" d="M157 0v1059h180v-204q38 110 123 167t190 57q58 0 81 -13v-183q-27 12 -80 12q-17 1 -34 1q-111 0 -186 -52q-86 -60 -86 -186v-658h-188z" />
<glyph unicode="s" horiz-adv-x="1047" d="M91 308h172q21 -91 92.5 -139t175.5 -48q110 0 174 41t64 122q0 113 -140 145l-219 54q-127 30 -205 97q-77 66 -77 183v5q0 138 103 224q105 86 300 87q172 0 279 -77q105 -77 110 -227h-167q-10 77 -69 121t-155 44q-105 0 -166.5 -41.5t-61.5 -124.5q0 -54 43 -86.5 t135 -55.5l212 -53q70 -18 120.5 -50.5t77.5 -72.5t39 -80t12 -82q0 -146 -108.5 -230t-299.5 -84q-176 0 -296.5 82t-144.5 246z" />
<glyph unicode="t" horiz-adv-x="824" d="M108 921v138h177l46 308h139v-307h239v-139h-239v-659q0 -81 25 -102t104 -21h116v-127q-49 -17 -157 -17q-157 0 -217.5 63t-60.5 198v665h-172z" />
<glyph unicode="u" horiz-adv-x="1172" d="M139 340v719h190v-700q0 -107 65.5 -169.5t191.5 -62.5q120 0 189.5 62.5t69.5 180.5v689h188v-1059h-150l-20 203q-27 -113 -113 -169q-83 -54 -196 -54h-8q-113 2 -203.5 41t-147 121.5t-56.5 197.5z" />
<glyph unicode="v" horiz-adv-x="1030" d="M47 1059h178l282 -821h17l283 821h177l-382 -1059h-172z" />
<glyph unicode="w" horiz-adv-x="1608" d="M59 1059h175l243 -814h17l238 814h144l247 -812h17l232 812h177l-320 -1059h-187l-241 781l-230 -781h-185z" />
<glyph unicode="x" horiz-adv-x="1153" d="M62 0l409 550l-376 509h207l275 -372l275 372h207l-377 -509l409 -550h-206l-308 415l-307 -415h-208z" />
<glyph unicode="y" horiz-adv-x="1092" d="M47 1059h192l312 -817l310 817h186l-447 -1139q-58 -144 -140 -201t-199 -57q-93 0 -128 13l-35 14v123l108 -2h19q45 0 79 8q40 9 63.5 29t34.5 36t22 42l37 101z" />
<glyph unicode="z" horiz-adv-x="975" d="M78 0v118l598 802h-573v139h798v-118l-597 -802h602v-139h-828z" />
<glyph unicode="{" horiz-adv-x="670" d="M17 522v115q116 1 174 56t58 148v430q0 96 74 153t190 57h103v-122h-73q-74 0 -100.5 -25.5t-26.5 -79.5v-436q-1 -55 -18 -99t-46.5 -71t-64 -42t-73.5 -19q-8 0 -11 -3t0 -6.5t11 -4.5q39 -3 73 -16.5t63.5 -39.5t47 -71t18.5 -105v-440q0 -58 28 -83.5t100 -25.5h72 v-122h-100q-120 0 -193.5 58t-73.5 157v443q0 78 -60 136t-172 58z" />
<glyph unicode="|" horiz-adv-x="538" d="M196 1692h148v-2022h-147z" />
<glyph unicode="}" horiz-adv-x="679" d="M39 -208h73q72 0 100 25.5t28 83.5v440q1 60 18 105t47 71t63.5 39.5t72.5 16.5q8 1 11 4.5t0 6.5t-11 3q-39 4 -73.5 19t-63.5 42.5t-46 71t-18 98.5v436q0 54 -26.5 79.5t-100.5 25.5h-74v122h103q116 0 190.5 -57t74.5 -153v-430q0 -93 57.5 -148t173.5 -56v-115 q-112 0 -171.5 -57.5t-59.5 -136.5v-443q0 -99 -74 -157t-194 -58h-100v122z" />
<glyph unicode="~" horiz-adv-x="1163" d="M120 727q52 52 121 98q61 41 155 41q53 0 106.5 -16.5t90.5 -37t87 -37t95 -16.5q77 0 125 36q51 38 80 78l57 -109q-39 -61 -106 -98t-155 -37q-55 0 -108.5 16.5t-89.5 37t-85 37t-95 16.5q-78 0 -130 -37q-54 -37 -94 -79z" />
<glyph unicode="&#xa1;" horiz-adv-x="510" d="M139 -330l50 1011h126l52 -1011h-228zM139 820v239h226v-239h-226z" />
<glyph unicode="&#xa2;" horiz-adv-x="1112" d="M105 753q0 252 129 403t359 151q170 0 287 -97t139 -259h-168q-16 88 -84 145.5t-173 57.5q-138 0 -221 -98q-85 -100 -85 -301q0 -182 79 -293q78 -111 230 -111q103 0 172 59.5t83 143.5h165q-20 -158 -137.5 -252.5t-286.5 -94.5q-221 0 -354.5 143t-133.5 403zM521 0 v293h141v-293h-141zM521 1188v293h141v-293h-141z" />
<glyph unicode="&#xa3;" horiz-adv-x="1255" d="M31 0v163h77q78 0 132 67q53 65 53 213q0 94 -24 262h-207v120h185l-31 169q-22 115 3 212.5t85.5 160.5t146.5 98.5t184 35.5q144 0 259 -68.5t160 -174.5l-168 -59q-35 73 -88 106.5t-139 33.5q-104 0 -172.5 -61.5t-68.5 -166.5q0 -121 47 -285h331v-120h-315 q22 -141 13 -235q-4 -82 -25.5 -148t-42.5 -96.5t-51 -61.5h356q106 0 167.5 38t95.5 129l163 -43q-93 -289 -415 -289h-711z" />
<glyph unicode="&#xa4;" horiz-adv-x="1104" d="M105 398l122 120q-69 103 -69 226q0 121 61 210q8 18 -3 29l-110 111l93 93l123 -125q98 73 223 73q119 0 213 -65q15 -8 25 2l110 111l91 -94l-121 -120q72 -103 72 -224q0 -124 -64 -211q-8 -14 2 -22l113 -109l-91 -94l-121 120q-108 -75 -225 -75q-119 0 -214 63 q-17 11 -29 -3l-109 -112zM301 745q0 -101 72 -174.5t176 -73.5t176 73.5t72 174.5q0 99 -72 174t-176 75t-176 -75t-72 -174z" />
<glyph unicode="&#xa5;" horiz-adv-x="1252" d="M9 1481h247l391 -677l392 677h204l-503 -828v-653h-216v620zM212 272v119l841 1v-119zM212 572v120l841 1v-119z" />
<glyph unicode="&#xa6;" horiz-adv-x="538" d="M196 492h148v-822h-147zM196 1692h148v-822h-147z" />
<glyph unicode="&#xa7;" horiz-adv-x="1004" d="M75 90l125 66q49 -76 130 -123.5t186 -47.5q100 0 163 38q63 39 63 108q0 52 -41 96q-42 45 -157 91l-175 68q-142 54 -206 126.5t-64 172.5q0 91 54.5 159.5t146.5 107.5q-110 58 -152 120.5t-42 141.5q0 124 106 205.5t278 81.5q132 0 238 -60t159 -149l-126 -66 q-113 144 -261 144q-101 0 -159 -38t-58 -101q0 -96 159 -161l169 -68q160 -64 230.5 -142t70.5 -187q0 -102 -53 -161q-52 -60 -129 -101q97 -55 143.5 -116t46.5 -144q0 -131 -110 -214.5t-294 -83.5q-148 0 -267.5 66t-173.5 171zM264 710q0 -56 35 -92q33 -36 143 -81 l122 -53q75 -6 129 44t52 119q-2 63 -36 106q-36 44 -138 86l-111 43q-82 -6 -139 -57t-57 -115z" />
<glyph unicode="&#xa8;" horiz-adv-x="605" d="M10 1245l1 183h186l-1 -183h-186zM409 1245l1 183h185l-1 -183h-185z" />
<glyph unicode="&#xa9;" horiz-adv-x="1673" d="M72 741q-1 153 59.5 294t163 243t244 163t295.5 60q204 1 379.5 -101.5t278 -278.5t101.5 -380q0 -156 -60 -297t-162 -242.5t-242.5 -161.5t-294.5 -60q-154 -1 -295.5 59t-244 162t-163 243.5t-59.5 296.5zM208 741q0 -142 48.5 -261.5t132.5 -200.5t199 -126t246 -45 q171 0 312.5 76.5t226.5 222.5t85 334q0 140 -49.5 260t-134 201.5t-198.5 127.5t-242 46q-131 0 -246 -46t-199 -128t-132.5 -201.5t-48.5 -259.5zM445 744q0 188 111 309t282 121q120 0 205 -64.5t134 -164.5l-141 -33q-75 144 -191 144q-103 0 -169 -81q-67 -82 -67 -226 q0 -149 68 -231t173 -82q141 0 223 156l107 -39q-48 -99 -134.5 -167t-207.5 -68q-174 0 -283.5 118.5t-109.5 307.5z" />
<glyph unicode="&#xaa;" horiz-adv-x="862" d="M100 996q0 97 86.5 155t246.5 68l113 10v47q0 126 -147 126q-56 0 -95.5 -21t-71.5 -76l-114 30q75 162 290 162q135 0 200.5 -57.5t65.5 -163.5v-241q0 -83 8 -138l12 -74h-133l-17 87q-57 -52 -107.5 -75.5t-113.5 -23.5q-105 0 -164 49.5t-59 135.5zM234 1004 q0 -45 37 -73t96 -28q79 0 132 50q47 44 47 82v110l-93 -7q-107 -7 -163 -42t-56 -92z" />
<glyph unicode="&#xab;" horiz-adv-x="930" d="M83 514l268 387h109l-207 -387l204 -371h-107zM443 514l270 387h108l-206 -387l204 -371h-107z" />
<glyph unicode="&#xac;" horiz-adv-x="1135" d="M126 670v147l884 1v-146zM850 774h160v-396h-158z" />
<glyph unicode="&#xad;" horiz-adv-x="773" d="M127 454v148l519 2v-149z" />
<glyph unicode="&#xae;" horiz-adv-x="1103" d="M72 1024q-1 128 62.5 239t174.5 175.5t240 62.5q127 2 237.5 -62.5t175 -175.5t62.5 -239q2 -128 -62.5 -238.5t-175 -174.5t-237.5 -62q-129 -2 -240 62t-174.5 174.5t-62.5 238.5zM173 1024q0 -172 103 -276.5t273 -104.5q167 0 271 104.5t104 276.5t-104.5 277.5 t-270.5 105.5q-169 0 -272.5 -105t-103.5 -278zM366 785v472h214q78 0 120 -30t42 -89q0 -93 -98 -127l91 -226h-95l-79 216h-106v-216h-89zM455 1072h114q82 0 82 57q0 60 -88 60h-108v-117z" />
<glyph unicode="&#xaf;" horiz-adv-x="671" d="M27 1265v133h611v-133h-611z" />
<glyph unicode="&#xb0;" horiz-adv-x="948" d="M150 1391q0 140 90.5 231t230.5 91q137 0 229 -91.5t92 -230.5t-92 -230t-229 -91q-140 0 -230.5 90.5t-90.5 230.5zM276 1389q2 -90 54 -145t139 -55t138 55t51 145q0 89 -51.5 143.5t-139.5 54.5q-87 0 -139 -55q-53 -57 -52 -143z" />
<glyph unicode="&#xb1;" horiz-adv-x="1135" d="M126 120v145l884 2v-146zM126 827v147l884 1v-147zM495 1343h147v-883h-145z" />
<glyph unicode="&#xb2;" horiz-adv-x="751" d="M47 1410q0 128 88 213.5t246 85.5q140 0 224 -73q82 -74 82 -193q0 -68 -26.5 -123t-69 -91t-94 -66.5t-102.5 -57.5t-93.5 -55.5t-69 -68.5t-26.5 -89v-15h487v-112h-626v76v37q0 69 27 124.5t70 92.5t95 68.5t104.5 59.5t95.5 57.5t70 71t27 91.5q0 70 -48.5 112 t-131.5 42q-88 0 -143.5 -49t-62.5 -138h-123z" />
<glyph unicode="&#xb3;" horiz-adv-x="822" d="M67 1038h124q12 -85 68 -130.5t141 -45.5q101 0 161.5 45t60.5 118q0 77 -62.5 123.5t-167.5 47.5l-86 2v107l82 2q87 1 148 47t61 109q0 60 -53.5 100.5t-143.5 40.5q-80 0 -138 -47t-59 -136h-124q-1 130 90.5 209t231.5 79q149 0 239 -64t90 -178q0 -69 -43 -123.5 t-126 -85.5q90 -27 142.5 -86t52.5 -147q0 -126 -101.5 -199.5t-258.5 -71.5q-148 1 -237 80q-89 78 -92 204z" />
<glyph unicode="&#xb4;" horiz-adv-x="447" d="M10 1183l211 298h215l-279 -298h-147z" />
<glyph unicode="&#xb5;" horiz-adv-x="1182" d="M139 -338v1423h195v-740q0 -75 62 -129t149 -54q157 0 302 179v744h196l-3 -1085h-187v168q-89 -77 -158 -114q-66 -35 -143 -40q-132 -8 -218 60v-412h-195z" />
<glyph unicode="&#xb6;" horiz-adv-x="1141" d="M91 1034q0 86 30.5 166t87.5 143.5t148.5 101.5t203.5 36h441v-117h-123v-1534h-126v1534h-105v-1534h-126v779q-193 6 -312 125.5t-119 299.5z" />
<glyph unicode="&#xb7;" horiz-adv-x="471" d="M113 633v226h234v-226h-234z" />
<glyph unicode="&#xb8;" horiz-adv-x="473" d="M24 -371l31 80q66 -48 141 -48q110 0 110 75q0 44 -39 66t-125 24q-18 0 -12 13l75 171h99l-48 -124q96 -4 139.5 -47t43.5 -102q0 -74 -63.5 -116.5t-157.5 -42.5q-115 0 -194 51z" />
<glyph unicode="&#xb9;" horiz-adv-x="490" d="M47 1497v85q118 0 167 27q46 25 49 85h92v-932h-130v735h-178z" />
<glyph unicode="&#xba;" horiz-adv-x="824" d="M91 1154q0 154 89 250t232 96q147 0 234 -95.5t87 -250.5q0 -152 -86.5 -246t-234.5 -94t-234.5 94t-86.5 246zM231 1159q0 -119 46 -183.5t135 -64.5q90 0 136 64.5t46 183.5q0 115 -46 178.5t-136 63.5q-89 0 -135 -63.5t-46 -178.5z" />
<glyph unicode="&#xbb;" horiz-adv-x="979" d="M128 901h106l269 -387l-266 -371h-107l204 371zM488 901h109l268 -387l-267 -371h-106l204 371z" />
<glyph unicode="&#xbc;" horiz-adv-x="1620" d="M47 1284v85q118 0 167 27q46 25 49 85h92v-932h-130v735h-178zM215 -7l999 1504h124l-995 -1505zM864 238v111l431 584h126v-585h154v-110h-154v-236h-123v236h-434zM986 348h310v416z" />
<glyph unicode="&#xbd;" horiz-adv-x="1774" d="M47 1284v85q118 0 167 27q46 25 49 85h92v-932h-130v735h-178zM215 -7l999 1504h124l-995 -1505zM1070 644q0 128 88 213.5t246 85.5q140 0 224 -73q82 -74 82 -193q0 -68 -26.5 -123t-69 -91t-93.5 -66.5t-102.5 -57.5t-94 -55.5t-69 -68.5t-26.5 -89v-15h487v-112h-626 v76v37q0 69 27 124.5t70 92.5t95 68.5t104.5 59.5t95.5 57.5t70 71t27 91.5q0 70 -48.5 112t-131.5 42q-88 0 -143.5 -49t-62.5 -138h-123z" />
<glyph unicode="&#xbe;" horiz-adv-x="1881" d="M67 823h124q12 -85 68 -130.5t141 -45.5q101 0 161.5 45t60.5 118q0 77 -62.5 123.5t-167.5 47.5l-86 2v107l82 2q87 1 148 47t61 109q0 60 -53.5 100.5t-143.5 40.5q-80 0 -138 -47t-59 -136h-124q-1 130 90.5 209t231.5 79q149 0 239 -64t90 -178q0 -69 -43 -123.5 t-126 -85.5q90 -27 142.5 -86t52.5 -147q0 -126 -101.5 -199.5t-258.5 -71.5q-149 2 -237 79q-89 78 -92 205zM474 -7l1000 1504h123l-995 -1505zM1124 238v111l431 584h126v-585h154v-110h-154v-236h-122v236h-435zM1246 348h310v416z" />
<glyph unicode="&#xbf;" horiz-adv-x="1060" d="M65 7q0 69 22.5 126t58.5 98t79.5 78.5t87 74.5t79.5 77.5t58.5 97.5t22.5 125h163q0 -78 -21 -143.5t-54 -111.5t-73 -86.5t-80.5 -76t-73.5 -71.5t-54 -82t-21 -98q0 -97 73 -158q73 -59 188 -59q100 0 192 57.5t126 142.5l169 -51q-66 -140 -194 -218 q-129 -79 -294 -79q-212 0 -333 99t-121 258zM441 820v239h227v-239h-227z" />
<glyph unicode="&#xc0;" d="M-350 1903l279 -298h147l-211 298h-215zM85 0l536 1481h214l535 -1481h-193l-146 406h-605l-148 -406h-193zM474 580h507l-252 713z" />
<glyph unicode="&#xc1;" d="M85 0l536 1481h214l535 -1481h-193l-146 406h-605l-148 -406h-193zM474 580h507l-252 713zM651 1605l211 298h215l-279 -298h-147z" />
<glyph unicode="&#xc2;" d="M85 0l536 1481h214l535 -1481h-193l-146 406h-605l-148 -406h-193zM403 1605l257 230h136l252 -230h-179l-143 133l-155 -133h-168zM474 580h507l-252 713z" />
<glyph unicode="&#xc3;" d="M85 0l536 1481h214l535 -1481h-193l-146 406h-605l-148 -406h-193zM422 1783q41 38 79.5 57.5t91.5 19.5q52 0 138.5 -29t130.5 -29q72 0 144 58l32 -125q-83 -60 -176 -60q-59 0 -137 27t-124 27q-45 0 -74.5 -14t-68.5 -45zM474 580h507l-252 713z" />
<glyph unicode="&#xc4;" d="M85 0l536 1481h214l535 -1481h-193l-146 406h-605l-148 -406h-193zM435 1667l1 183h186l-1 -183h-186zM474 580h507l-252 713zM834 1667l1 183h185l-1 -183h-185z" />
<glyph unicode="&#xc5;" d="M85 0l536 1481h214l535 -1481h-193l-146 406h-605l-148 -406h-193zM474 580h507l-252 713zM517 1819q0 84 63 144q62 59 148 59q89 0 150.5 -60.5t61.5 -146.5q0 -90 -61 -150q-61 -61 -151 -61q-88 0 -149 62q-62 62 -62 153zM615 1814q0 -44 34 -78q33 -34 77 -34 q45 0 78 34q31 36 31 78q0 48 -31 78t-78 30q-45 0 -78 -30.5t-33 -77.5z" />
<glyph unicode="&#xc6;" horiz-adv-x="1995" d="M0 0l819 1481h1029l-1 -164h-705v-489h632v-162h-632v-501h731v-165h-947v411h-505l-227 -411h-194zM496 580h430v763z" />
<glyph unicode="&#xc7;" horiz-adv-x="1410" d="M111 745q0 361 164 558.5t465 197.5q114 1 215 -37t172.5 -103.5t117 -153t54.5 -183.5h-201q-26 138 -120 225t-243 87q-414 0 -414 -593q0 -306 104.5 -452.5t309.5 -146.5q148 0 242 91.5t121 230.5h201q-12 -97 -51.5 -182.5t-106.5 -154.5t-170.5 -109t-230.5 -40 q-299 0 -464 201.5t-165 563.5zM518 -371l32 80q66 -48 140 -48q111 0 111 75q0 44 -39 66t-125 24q-18 0 -12 13l74 171h100l-48 -124q96 -4 139.5 -47t43.5 -102q0 -74 -63.5 -116.5t-157.5 -42.5q-116 0 -195 51z" />
<glyph unicode="&#xc8;" horiz-adv-x="1270" d="M-289 1903l280 -298h146l-211 298h-215zM196 0v1481h933l-1 -167h-742v-484h669v-165h-670v-494l764 -2v-169h-953z" />
<glyph unicode="&#xc9;" horiz-adv-x="1270" d="M196 0v1481h933l-1 -167h-742v-484h669v-165h-670v-494l764 -2v-169h-953zM589 1605l211 298h215l-280 -298h-146z" />
<glyph unicode="&#xca;" horiz-adv-x="1270" d="M196 0v1481h933l-1 -167h-742v-484h669v-165h-670v-494l764 -2v-169h-953zM342 1605l257 230h135l252 -230h-178l-143 133l-155 -133h-168z" />
<glyph unicode="&#xcb;" horiz-adv-x="1270" d="M196 0v1481h933l-1 -167h-742v-484h669v-165h-670v-494l764 -2v-169h-953zM373 1667l1 183h185l-1 -183h-185zM771 1667l1 183h185l-1 -183h-185z" />
<glyph unicode="&#xcc;" horiz-adv-x="579" d="M86 1903l280 -298h146l-211 298h-215zM196 0v1481h189v-1481h-189z" />
<glyph unicode="&#xcd;" horiz-adv-x="579" d="M196 0v1481h189v-1481h-189zM215 1605l211 298h215l-280 -298h-146z" />
<glyph unicode="&#xce;" horiz-adv-x="579" d="M-32 1605l257 230h135l252 -230h-178l-143 133l-155 -133h-168zM196 0v1481h189v-1481h-189z" />
<glyph unicode="&#xcf;" horiz-adv-x="579" d="M-1 1667l1 183h185l-1 -183h-185zM196 0v1481h189v-1481h-189zM397 1667l1 183h186l-1 -183h-186z" />
<glyph unicode="&#xd0;" horiz-adv-x="1447" d="M72 666v150h682v-150h-682zM223 0v1481q262 0 344 -2q400 -6 585 -188t185 -541q0 -750 -789 -750h-325zM418 163h130q141 0 247 31.5t184.5 99t118.5 181t40 271.5q0 159 -38.5 270.5t-116 176.5t-181.5 94.5t-246 30.5h-138v-1155z" />
<glyph unicode="&#xd1;" horiz-adv-x="1544" d="M196 0v1481h181l782 -1151v1151h190v-1481h-169l-795 1167v-1167h-189zM466 1783q41 38 79.5 57.5t91.5 19.5q52 0 138.5 -29t130.5 -29q72 0 144 58l32 -125q-83 -60 -176 -60q-59 0 -137 27t-124 27q-45 0 -74.5 -14t-68.5 -45z" />
<glyph unicode="&#xd2;" horiz-adv-x="1503" d="M-378 1903l280 -298h146l-211 298h-215zM111 737q0 360 173 562t470 202t468 -201t171 -563q0 -358 -170.5 -557.5t-468.5 -199.5q-299 0 -471 199.5t-172 557.5zM319 735q0 -299 113.5 -445t321.5 -146q431 0 431 591q0 304 -111.5 452.5t-319.5 148.5t-321.5 -149.5 t-113.5 -451.5z" />
<glyph unicode="&#xd3;" horiz-adv-x="1503" d="M111 737q0 360 173 562t470 202t468 -201t171 -563q0 -358 -170.5 -557.5t-468.5 -199.5q-299 0 -471 199.5t-172 557.5zM319 735q0 -299 113.5 -445t321.5 -146q431 0 431 591q0 304 -111.5 452.5t-319.5 148.5t-321.5 -149.5t-113.5 -451.5zM678 1605l211 298h215 l-280 -298h-146z" />
<glyph unicode="&#xd4;" horiz-adv-x="1503" d="M111 737q0 360 173 562t470 202t468 -201t171 -563q0 -358 -170.5 -557.5t-468.5 -199.5q-299 0 -471 199.5t-172 557.5zM319 735q0 -299 113.5 -445t321.5 -146q431 0 431 591q0 304 -111.5 452.5t-319.5 148.5t-321.5 -149.5t-113.5 -451.5zM431 1605l257 230h135 l252 -230h-178l-143 133l-155 -133h-168z" />
<glyph unicode="&#xd5;" horiz-adv-x="1503" d="M111 737q0 360 173 562t470 202t468 -201t171 -563q0 -358 -170.5 -557.5t-468.5 -199.5q-299 0 -471 199.5t-172 557.5zM319 735q0 -299 113.5 -445t321.5 -146q431 0 431 591q0 304 -111.5 452.5t-319.5 148.5t-321.5 -149.5t-113.5 -451.5zM450 1783q41 38 79.5 57.5 t91.5 19.5q52 0 138.5 -29t130.5 -29q71 0 143 58l33 -125q-83 -60 -176 -60q-59 0 -137 27t-124 27q-32 0 -59 -9t-43 -19t-42 -31z" />
<glyph unicode="&#xd6;" horiz-adv-x="1503" d="M111 737q0 360 173 562t470 202t468 -201t171 -563q0 -358 -170.5 -557.5t-468.5 -199.5q-299 0 -471 199.5t-172 557.5zM319 735q0 -299 113.5 -445t321.5 -146q431 0 431 591q0 304 -111.5 452.5t-319.5 148.5t-321.5 -149.5t-113.5 -451.5zM463 1667l1 183h185 l-1 -183h-185zM861 1667l1 183h186l-1 -183h-186z" />
<glyph unicode="&#xd7;" horiz-adv-x="1105" d="M126 1065l104 103l748 -744l-106 -106zM128 424l744 747l106 -103l-746 -750z" />
<glyph unicode="&#xd8;" horiz-adv-x="1537" d="M57 73l175 191q-108 183 -108 470q0 362 172 564.5t470 202.5q277 0 442 -174l166 179l102 -98l-180 -198q110 -189 110 -473q0 -358 -171 -557.5t-470 -199.5q-279 0 -441 170l-164 -178zM358 799q-6 -207 43 -363l673 753q-101 150 -308 150q-395 0 -408 -540zM456 287 q105 -144 311 -144q194 0 293 127t107 390q8 213 -41 378z" />
<glyph unicode="&#xd9;" horiz-adv-x="1434" d="M-361 1903l279 -298h147l-211 298h-215zM196 531v950h196v-978q0 -178 88.5 -268t255.5 -90q169 0 260 89.5t91 268.5v978h191v-969q0 -263 -131 -397.5t-411 -134.5q-283 0 -411.5 138t-128.5 413z" />
<glyph unicode="&#xda;" horiz-adv-x="1434" d="M196 531v950h196v-978q0 -178 88.5 -268t255.5 -90q169 0 260 89.5t91 268.5v978h191v-969q0 -263 -131 -397.5t-411 -134.5q-283 0 -411.5 138t-128.5 413zM663 1605l210 298h216l-280 -298h-146z" />
<glyph unicode="&#xdb;" horiz-adv-x="1434" d="M196 531v950h196v-978q0 -178 88.5 -268t255.5 -90q169 0 260 89.5t91 268.5v978h191v-969q0 -263 -131 -397.5t-411 -134.5q-283 0 -411.5 138t-128.5 413zM416 1605l257 230h135l252 -230h-178l-144 133l-154 -133h-168z" />
<glyph unicode="&#xdc;" horiz-adv-x="1434" d="M196 531v950h196v-978q0 -178 88.5 -268t255.5 -90q169 0 260 89.5t91 268.5v978h191v-969q0 -263 -131 -397.5t-411 -134.5q-283 0 -411.5 138t-128.5 413zM446 1667l1 183h186l-1 -183h-186zM845 1667l1 183h185l-1 -183h-185z" />
<glyph unicode="&#xdd;" horiz-adv-x="1243" d="M25 1481h206l394 -681l387 681h208l-502 -851v-630h-189v631zM563 1608l211 298h215l-279 -298h-147z" />
<glyph unicode="&#xde;" horiz-adv-x="1332" d="M196 0v1481h194v-304h335q252 0 400.5 -103t148.5 -307q0 -214 -147.5 -323t-393.5 -109h-343v-335h-194zM390 500h343q153 0 248 65.5t95 201.5q0 64 -26.5 112t-75 76.5t-111 42.5t-139.5 14l-334 1v-513z" />
<glyph unicode="&#xdf;" horiz-adv-x="1223" d="M157 1035q2 199 121 322.5t340 123.5q181 0 271 -80.5t90 -203.5q0 -56 -17 -98.5t-54 -76t-75 -55.5t-100 -51q-65 -36 -85 -52q-25 -19 -25 -55q0 -33 21.5 -48.5t85.5 -36.5q138 -53 185 -79q168 -91 195 -247q6 -32 6 -68q0 -166 -113 -258t-291 -92q-75 0 -151.5 19 t-128.5 51l67 126q52 -31 95.5 -46.5t104.5 -15.5q110 0 175.5 51.5t65.5 145.5q0 51 -18.5 88t-59 64t-75.5 42t-98 36q-38 14 -64 25.5t-58 31.5t-50.5 42.5t-32 57t-13.5 75.5q0 73 40 123t129 102q6 4 32.5 20.5t34.5 22.5t28.5 21.5t28 26.5t19 28t15.5 35.5t4 39.5 q0 71 -52.5 112.5t-146.5 41.5q-119 0 -188.5 -72t-69.5 -205v-1069h-186z" />
<glyph unicode="&#xe0;" horiz-adv-x="1156" d="M-201 1481l280 -298h146l-211 298h-215zM100 287q0 176 124 262t393 92l190 5v83q0 100 -60 155.5t-180 55.5q-91 -2 -159 -43q-72 -44 -91 -137h-166q9 154 120.5 236.5t305.5 82.5q205 0 308.5 -86.5t103.5 -253.5v-739h-162l-13 199q-60 -121 -156 -171 q-92 -48 -208 -48q-157 0 -253.5 81.5t-96.5 225.5zM285 305q0 -88 61 -138.5t161 -50.5q70 0 139.5 33t114.5 87.5t46 111.5v181l-158 -3q-187 -3 -275.5 -54.5t-88.5 -166.5z" />
<glyph unicode="&#xe1;" horiz-adv-x="1156" d="M100 287q0 176 124 262t393 92l190 5v83q0 100 -60 155.5t-180 55.5q-91 -2 -159 -43q-72 -44 -91 -137h-166q9 154 120.5 236.5t305.5 82.5q205 0 308.5 -86.5t103.5 -253.5v-739h-162l-13 199q-60 -121 -156 -171q-92 -48 -208 -48q-157 0 -253.5 81.5t-96.5 225.5z M285 305q0 -88 61 -138.5t161 -50.5q70 0 139.5 33t114.5 87.5t46 111.5v181l-158 -3q-187 -3 -275.5 -54.5t-88.5 -166.5zM502 1183l211 298h215l-280 -298h-146z" />
<glyph unicode="&#xe2;" horiz-adv-x="1156" d="M100 287q0 176 124 262t393 92l190 5v83q0 100 -60 155.5t-180 55.5q-91 -2 -159 -43q-72 -44 -91 -137h-166q9 154 120.5 236.5t305.5 82.5q205 0 308.5 -86.5t103.5 -253.5v-739h-162l-13 199q-60 -121 -156 -171q-92 -48 -208 -48q-157 0 -253.5 81.5t-96.5 225.5z M254 1183l257 230h135l252 -230h-178l-143 133l-155 -133h-168zM285 305q0 -88 61 -138.5t161 -50.5q70 0 139.5 33t114.5 87.5t46 111.5v181l-158 -3q-187 -3 -275.5 -54.5t-88.5 -166.5z" />
<glyph unicode="&#xe3;" horiz-adv-x="1156" d="M100 287q0 176 124 262t393 92l190 5v83q0 100 -60 155.5t-180 55.5q-91 -2 -159 -43q-72 -44 -91 -137h-166q9 154 120.5 236.5t305.5 82.5q205 0 308.5 -86.5t103.5 -253.5v-739h-162l-13 199q-60 -121 -156 -171q-92 -48 -208 -48q-157 0 -253.5 81.5t-96.5 225.5z M272 1361q41 38 79.5 57.5t91.5 19.5q52 0 139 -29t131 -29q71 0 143 58l33 -125q-83 -60 -176 -60q-59 0 -137 27t-124 27q-32 0 -59 -9t-43 -19t-42 -31zM285 305q0 -88 61 -138.5t161 -50.5q70 0 139.5 33t114.5 87.5t46 111.5v181l-158 -3q-187 -3 -275.5 -54.5 t-88.5 -166.5z" />
<glyph unicode="&#xe4;" horiz-adv-x="1156" d="M100 287q0 176 124 262t393 92l190 5v83q0 100 -60 155.5t-180 55.5q-91 -2 -159 -43q-72 -44 -91 -137h-166q9 154 120.5 236.5t305.5 82.5q205 0 308.5 -86.5t103.5 -253.5v-739h-162l-13 199q-60 -121 -156 -171q-92 -48 -208 -48q-157 0 -253.5 81.5t-96.5 225.5z M285 305q0 -88 61 -138.5t161 -50.5q70 0 139.5 33t114.5 87.5t46 111.5v181l-158 -3q-187 -3 -275.5 -54.5t-88.5 -166.5zM286 1245l1 183h185l-1 -183h-185zM684 1245l1 183h185l-1 -183h-185z" />
<glyph unicode="&#xe5;" horiz-adv-x="1156" d="M100 287q0 176 124 262t393 92l190 5v83q0 100 -60 155.5t-180 55.5q-91 -2 -159 -43q-72 -44 -91 -137h-166q9 154 120.5 236.5t305.5 82.5q205 0 308.5 -86.5t103.5 -253.5v-739h-162l-13 199q-60 -121 -156 -171q-92 -48 -208 -48q-157 0 -253.5 81.5t-96.5 225.5z M285 305q0 -88 61 -138.5t161 -50.5q70 0 139.5 33t114.5 87.5t46 111.5v181l-158 -3q-187 -3 -275.5 -54.5t-88.5 -166.5zM367 1397q0 85 62 144q63 60 149 60q89 0 150.5 -61t61.5 -147q0 -90 -62 -150q-61 -61 -150 -61t-150 62q-61 61 -61 153zM465 1392q0 -44 34 -78 q33 -34 76 -34q45 0 78 34q31 36 31 78q0 48 -31 78t-78 30q-45 0 -77.5 -30.5t-32.5 -77.5z" />
<glyph unicode="&#xe6;" horiz-adv-x="1860" d="M100 287q0 177 123 262q124 86 395 92l189 5v83q0 100 -64.5 155.5t-175.5 55.5q-92 -2 -159 -45q-72 -46 -91 -135h-166q8 141 123 230t303 89q202 0 307 -90.5t105 -249.5l-100 -457q-9 -89 -70.5 -158.5t-158 -106.5t-210.5 -37q-157 0 -253.5 81.5t-96.5 225.5z M285 305q0 -88 61 -138.5t161 -50.5q126 -2 213.5 84.5t86.5 180.5v148l-158 -3q-186 -3 -275 -54.5t-89 -166.5zM808 519q0 254 129.5 407t356.5 153q222 0 343 -140t121 -384v-70h-759q0 -158 79 -258.5t227 -100.5q103 0 175 47.5t93 135.5h178q-16 -103 -84.5 -180 t-161.5 -113.5t-197 -35.5q-225 0 -362.5 144.5t-137.5 394.5zM1000 613h576q0 143 -72.5 233t-210.5 90q-72 1 -129.5 -27t-92.5 -75t-53 -104t-18 -117z" />
<glyph unicode="&#xe7;" horiz-adv-x="1104" d="M91 525q0 252 129 403t359 151q171 0 287.5 -96.5t138.5 -258.5h-168q-14 87 -83 145t-174 58q-138 0 -222 -99q-85 -100 -85 -301q0 -182 79 -293q77 -110 231 -110q104 0 172.5 58.5t82.5 144.5h164q-20 -158 -137 -252.5t-286 -94.5q-220 0 -354 143t-134 402z M353 -371l32 80q66 -48 140 -48q111 0 111 75q0 44 -39 66t-125 24q-18 0 -12 13l75 171h99l-48 -124q96 -4 139.5 -47t43.5 -102q0 -74 -63.5 -116.5t-157.5 -42.5q-116 0 -195 51z" />
<glyph unicode="&#xe8;" horiz-adv-x="1153" d="M-211 1481l280 -298h146l-211 298h-215zM100 519q0 253 130 406.5t357 153.5q222 0 343 -140t121 -384v-70h-759q0 -158 78.5 -258.5t226.5 -100.5q103 0 175 47.5t93 135.5h179q-17 -103 -85.5 -180t-161.5 -113.5t-196 -35.5q-225 0 -363 144.5t-138 394.5zM293 613 h575q0 143 -72 233t-210 90q-72 1 -129.5 -27t-92.5 -75t-53 -104t-18 -117z" />
<glyph unicode="&#xe9;" horiz-adv-x="1153" d="M100 519q0 253 130 406.5t357 153.5q222 0 343 -140t121 -384v-70h-759q0 -158 78.5 -258.5t226.5 -100.5q103 0 175 47.5t93 135.5h179q-17 -103 -85.5 -180t-161.5 -113.5t-196 -35.5q-225 0 -363 144.5t-138 394.5zM293 613h575q0 143 -72 233t-210 90 q-72 1 -129.5 -27t-92.5 -75t-53 -104t-18 -117zM511 1183l211 298h215l-280 -298h-146z" />
<glyph unicode="&#xea;" horiz-adv-x="1153" d="M100 519q0 253 130 406.5t357 153.5q222 0 343 -140t121 -384v-70h-759q0 -158 78.5 -258.5t226.5 -100.5q103 0 175 47.5t93 135.5h179q-17 -103 -85.5 -180t-161.5 -113.5t-196 -35.5q-225 0 -363 144.5t-138 394.5zM264 1183l257 230h135l252 -230h-178l-143 133 l-155 -133h-168zM293 613h575q0 143 -72 233t-210 90q-72 1 -129.5 -27t-92.5 -75t-53 -104t-18 -117z" />
<glyph unicode="&#xeb;" horiz-adv-x="1153" d="M100 519q0 253 130 406.5t357 153.5q222 0 343 -140t121 -384v-70h-759q0 -158 78.5 -258.5t226.5 -100.5q103 0 175 47.5t93 135.5h179q-17 -103 -85.5 -180t-161.5 -113.5t-196 -35.5q-225 0 -363 144.5t-138 394.5zM293 613h575q0 143 -72 233t-210 90 q-72 1 -129.5 -27t-92.5 -75t-53 -104t-18 -117zM295 1245l1 183h185l-1 -183h-185zM693 1245l1 183h186l-1 -183h-186z" />
<glyph unicode="&#xec;" horiz-adv-x="526" d="M112 1481l279 -298h147l-211 298h-215zM172 0v1059h182v-1059h-182z" />
<glyph unicode="&#xed;" horiz-adv-x="526" d="M172 0v1059h182v-1059h-182zM189 1184l145 297h208l-209 -298z" />
<glyph unicode="&#xee;" horiz-adv-x="526" d="M-58 1183l257 230h135l252 -230h-178l-144 133l-154 -133h-168zM172 0v1059h182v-1059h-182z" />
<glyph unicode="&#xef;" horiz-adv-x="642" d="M28 1243l1 183h185l-1 -183h-185zM229 0v1059h183v-1059h-183zM426 1243l1 183h185l-1 -183h-185z" />
<glyph unicode="&#xf0;" horiz-adv-x="1190" d="M91 518q0 249 139.5 398.5t352.5 149.5q263 0 366 -199q-22 107 -67 200.5t-93 155t-115.5 118.5t-112.5 86t-107 63l223 26q125 -69 209.5 -163.5t132 -218t65.5 -265t15 -326.5q-2 -248 -139.5 -406.5t-361.5 -156.5q-148 -2 -265 70t-180 195t-62 273zM280 529 q0 -104 34 -194t107 -149t172 -57q98 -2 169 57.5t103 148.5t32 194q0 191 -74.5 296.5t-229.5 105.5q-150 0 -231.5 -112.5t-81.5 -289.5zM412 1118v143l638 230v-141z" />
<glyph unicode="&#xf1;" horiz-adv-x="1181" d="M157 0v1059h183v-154q42 73 127 121t205 48q162 0 266 -96.5t104 -285.5v-692h-189v674q0 120 -63 182t-170 62q-115 0 -195 -55t-80 -155v-708h-188zM307 1361q41 38 79.5 57.5t91.5 19.5q52 0 139 -29t131 -29q70 0 143 58l33 -125q-83 -60 -176 -60q-59 0 -137.5 27 t-124.5 27q-45 0 -74.5 -14t-68.5 -45z" />
<glyph unicode="&#xf2;" horiz-adv-x="1150" d="M-200 1481l280 -298h146l-211 298h-215zM91 525q0 253 128.5 403.5t358.5 150.5q222 0 351.5 -145t129.5 -409q0 -248 -125.5 -396.5t-355.5 -148.5q-224 0 -355.5 142.5t-131.5 402.5zM280 529q0 -179 74 -289.5t224 -110.5q141 0 217 105.5t76 294.5q0 118 -28.5 205.5 t-96 142t-168.5 54.5q-144 0 -221 -105.5t-77 -296.5z" />
<glyph unicode="&#xf3;" horiz-adv-x="1150" d="M91 525q0 253 128.5 403.5t358.5 150.5q222 0 351.5 -145t129.5 -409q0 -248 -125.5 -396.5t-355.5 -148.5q-224 0 -355.5 142.5t-131.5 402.5zM280 529q0 -179 74 -289.5t224 -110.5q141 0 217 105.5t76 294.5q0 118 -28.5 205.5t-96 142t-168.5 54.5 q-144 0 -221 -105.5t-77 -296.5zM500 1183l211 298h215l-280 -298h-146z" />
<glyph unicode="&#xf4;" horiz-adv-x="1150" d="M91 525q0 253 128.5 403.5t358.5 150.5q222 0 351.5 -145t129.5 -409q0 -248 -125.5 -396.5t-355.5 -148.5q-224 0 -355.5 142.5t-131.5 402.5zM253 1183l257 230h135l252 -230h-178l-144 133l-154 -133h-168zM280 529q0 -179 74 -289.5t224 -110.5q141 0 217 105.5 t76 294.5q0 118 -28.5 205.5t-96 142t-168.5 54.5q-144 0 -221 -105.5t-77 -296.5z" />
<glyph unicode="&#xf5;" horiz-adv-x="1150" d="M91 525q0 253 128.5 403.5t358.5 150.5q222 0 351.5 -145t129.5 -409q0 -248 -125.5 -396.5t-355.5 -148.5q-224 0 -355.5 142.5t-131.5 402.5zM271 1361q41 38 79.5 57.5t91.5 19.5q52 0 139 -29t131 -29q70 0 143 58l33 -125q-83 -60 -176 -60q-59 0 -137 27t-124 27 q-32 0 -59 -9t-43 -19t-42 -31zM280 529q0 -179 74 -289.5t224 -110.5q141 0 217 105.5t76 294.5q0 118 -28.5 205.5t-96 142t-168.5 54.5q-144 0 -221 -105.5t-77 -296.5z" />
<glyph unicode="&#xf6;" horiz-adv-x="1150" d="M91 525q0 253 128.5 403.5t358.5 150.5q222 0 351.5 -145t129.5 -409q0 -248 -125.5 -396.5t-355.5 -148.5q-224 0 -355.5 142.5t-131.5 402.5zM280 529q0 -179 74 -289.5t224 -110.5q141 0 217 105.5t76 294.5q0 118 -28.5 205.5t-96 142t-168.5 54.5 q-144 0 -221 -105.5t-77 -296.5zM284 1245l1 183h185l-1 -183h-185zM682 1245l1 183h185l-1 -183h-185z" />
<glyph unicode="&#xf7;" horiz-adv-x="1135" d="M126 670v147l884 1v-146zM451 270v229h237v-229h-237zM451 991v229h237v-229h-237z" />
<glyph unicode="&#xf8;" horiz-adv-x="1200" d="M41 70l1034 997l76 -81l-1032 -997zM112 525q0 254 127.5 404t358.5 150q222 0 351.5 -145t129.5 -409q0 -249 -125 -397t-357 -148q-223 0 -354 142.5t-131 402.5zM300 529q0 -116 29.5 -203.5t98 -142t170.5 -54.5q141 0 217.5 105.5t76.5 294.5q0 87 -17 158.5 t-51.5 127t-92 86t-133.5 30.5q-144 0 -221 -105.5t-77 -296.5z" />
<glyph unicode="&#xf9;" horiz-adv-x="1172" d="M-213 1481l280 -298h146l-211 298h-215zM139 340v719h190v-700q0 -107 65.5 -169.5t191.5 -62.5q120 0 189.5 62.5t69.5 180.5v689h188v-1059h-150l-20 203q-28 -114 -113.5 -169.5t-203.5 -53.5q-113 2 -203.5 41t-147 121.5t-56.5 197.5z" />
<glyph unicode="&#xfa;" horiz-adv-x="1172" d="M139 340v719h190v-700q0 -107 65.5 -169.5t191.5 -62.5q120 0 189.5 62.5t69.5 180.5v689h188v-1059h-150l-20 203q-28 -114 -113.5 -169.5t-203.5 -53.5q-113 2 -203.5 41t-147 121.5t-56.5 197.5zM513 1183l211 298h215l-280 -298h-146z" />
<glyph unicode="&#xfb;" horiz-adv-x="1172" d="M139 340v719h190v-700q0 -107 65.5 -169.5t191.5 -62.5q120 0 189.5 62.5t69.5 180.5v689h188v-1059h-150l-20 203q-28 -114 -113.5 -169.5t-203.5 -53.5q-113 2 -203.5 41t-147 121.5t-56.5 197.5zM266 1183l257 230h135l252 -230h-178l-143 133l-155 -133h-168z" />
<glyph unicode="&#xfc;" horiz-adv-x="1172" d="M139 340v719h190v-700q0 -107 65.5 -169.5t191.5 -62.5q120 0 189.5 62.5t69.5 180.5v689h188v-1059h-150l-20 203q-28 -114 -113.5 -169.5t-203.5 -53.5q-113 2 -203.5 41t-147 121.5t-56.5 197.5zM297 1245l1 183h185l-1 -183h-185zM695 1245l1 183h186l-1 -183h-186z " />
<glyph unicode="&#xfd;" horiz-adv-x="1092" d="M47 1059h192l312 -817l310 817h186l-447 -1139q-58 -144 -140 -201t-199 -57q-93 0 -128 13l-35 14v123l108 -2q57 -2 97.5 7.5t64 29.5t34.5 36t22 42l37 101zM474 1183l211 298h215l-279 -298h-147z" />
<glyph unicode="&#xfe;" horiz-adv-x="1204" d="M157 -330v1811h186v-568q3 3 24 25t32 32t35.5 30.5t47 31.5t53.5 24t67 18.5t76 4.5q93 0 171.5 -33.5t137.5 -98.5t92 -168t33 -235q0 -266 -124.5 -415t-329.5 -149q-161 0 -281 101q-19 17 -25.5 14.5t-6.5 -27.5v-398h-188zM345 240q124 -127 257 -127 q144 0 230.5 110t86.5 319q0 205 -85.5 304t-221.5 99q-112 0 -189.5 -69.5t-77.5 -149.5v-486z" />
<glyph unicode="&#xff;" horiz-adv-x="1092" d="M47 1059h192l312 -817l310 817h186l-447 -1139q-58 -144 -140 -201t-199 -57q-93 0 -128 13l-35 14v123l108 -2q57 -2 97.5 7.5t64 29.5t34.5 36t22 42l37 101zM259 1245l1 183h185l-1 -183h-185zM657 1245l1 183h186l-1 -183h-186z" />
<glyph unicode="&#x152;" horiz-adv-x="2265" d="M111 734q0 363 175 565t484 202q289 0 421 -206l43 186h884l-1 -164h-733v-489h537v-162h-537v-501h759v-165h-917l-35 184q-136 -204 -430 -204q-306 0 -478 198t-172 556zM338 735q0 -303 103.5 -448.5t314.5 -145.5q209 0 308 144t99 450q0 309 -101 457t-308 148 t-311.5 -149t-104.5 -456z" />
<glyph unicode="&#x153;" horiz-adv-x="1933" d="M91 525q0 253 128.5 403.5t358.5 150.5q222 0 351.5 -145t129.5 -409q0 -248 -125.5 -396.5t-355.5 -148.5q-224 0 -355.5 142.5t-131.5 402.5zM280 529q0 -179 74 -289.5t224 -110.5q141 0 217 105.5t76 294.5q0 118 -28.5 205.5t-96 142t-168.5 54.5 q-144 0 -221 -105.5t-77 -296.5zM881 519q0 254 129.5 407t356.5 153q222 0 343 -140t121 -384v-70h-759q0 -158 78.5 -258.5t226.5 -100.5q103 0 175.5 47.5t93.5 135.5h179q-13 -78 -56 -142t-104 -104t-134 -61.5t-150 -21.5q-225 0 -362.5 144.5t-137.5 394.5zM1073 613 h576q0 143 -72.5 233t-210.5 90q-72 1 -129.5 -27t-92.5 -75t-53 -104t-18 -117z" />
<glyph unicode="&#x178;" horiz-adv-x="1243" d="M25 1481h206l394 -681l387 681h208l-502 -851v-630h-189v631zM347 1670l1 183h186l-2 -183h-185zM745 1670l1 183h186l-1 -183h-186z" />
<glyph unicode="&#x2c6;" horiz-adv-x="664" d="M10 1183l257 230h135l252 -230h-178l-143 133l-155 -133h-168z" />
<glyph unicode="&#x2dc;" horiz-adv-x="704" d="M42 1361q41 38 79.5 57.5t91.5 19.5q52 0 138.5 -29t130.5 -29q72 0 144 58l32 -125q-83 -60 -176 -60q-59 0 -137 27t-124 27q-45 0 -74.5 -14t-68.5 -45z" />
<glyph unicode="&#x2000;" horiz-adv-x="1011" />
<glyph unicode="&#x2001;" horiz-adv-x="2022" />
<glyph unicode="&#x2002;" horiz-adv-x="1011" />
<glyph unicode="&#x2003;" horiz-adv-x="2022" />
<glyph unicode="&#x2004;" horiz-adv-x="674" />
<glyph unicode="&#x2005;" horiz-adv-x="505" />
<glyph unicode="&#x2006;" horiz-adv-x="337" />
<glyph unicode="&#x2007;" horiz-adv-x="337" />
<glyph unicode="&#x2008;" horiz-adv-x="252" />
<glyph unicode="&#x2009;" horiz-adv-x="404" />
<glyph unicode="&#x200a;" horiz-adv-x="112" />
<glyph unicode="&#x2010;" horiz-adv-x="773" d="M127 454v148l519 2v-149z" />
<glyph unicode="&#x2011;" horiz-adv-x="773" d="M127 454v148l519 2v-149z" />
<glyph unicode="&#x2012;" horiz-adv-x="773" d="M127 454v148l519 2v-149z" />
<glyph unicode="&#x2013;" horiz-adv-x="1136" d="M127 438v150l884 1v-149z" />
<glyph unicode="&#x2014;" horiz-adv-x="2287" d="M380 438v150l1528 1v-149z" />
<glyph unicode="&#x2018;" horiz-adv-x="490" d="M109 1062v196l174 287h88l-114 -254l88 -5v-224h-236z" />
<glyph unicode="&#x2019;" horiz-adv-x="474" d="M102 997l114 254l-88 5v225h237v-197l-175 -287h-88z" />
<glyph unicode="&#x201a;" horiz-adv-x="494" d="M89 -255l114 252l-88 5v226h236v-196l-174 -287h-88z" />
<glyph unicode="&#x201c;" horiz-adv-x="858" d="M109 997v198l175 286h88l-115 -253l88 -5v-226h-236zM477 997v198l174 286h88l-114 -253l89 -5v-226h-237z" />
<glyph unicode="&#x201d;" horiz-adv-x="840" d="M102 997l114 254l-88 5v225h237v-197l-175 -287h-88zM469 997l115 254l-88 5v225h235v-197l-174 -287h-88z" />
<glyph unicode="&#x201e;" horiz-adv-x="870" d="M89 -255l114 252l-88 5v226h236v-196l-174 -287h-88zM466 -255l114 252l-88 5v226h236v-196l-174 -287h-88z" />
<glyph unicode="&#x2022;" horiz-adv-x="648" d="M119 754q0 83 58 141t141 58t142 -58t59 -141t-59 -142.5t-142 -59.5q-82 0 -140.5 59.5t-58.5 142.5z" />
<glyph unicode="&#x2026;" horiz-adv-x="1568" d="M134 0v242h225v-242h-225zM689 0v242h225v-242h-225zM1245 0v242h225v-242h-225z" />
<glyph unicode="&#x202f;" horiz-adv-x="404" />
<glyph unicode="&#x2039;" horiz-adv-x="569" d="M83 514l268 387h109l-207 -387l204 -371h-107z" />
<glyph unicode="&#x203a;" horiz-adv-x="568" d="M102 901h108l268 -387l-267 -371h-106l204 371z" />
<glyph unicode="&#x205f;" horiz-adv-x="505" />
<glyph unicode="&#x20ac;" horiz-adv-x="1227" d="M-19 520v120l811 1v-120zM-19 847v119l811 1v-119zM147 743q0 352 166 555t449 203q110 0 210 -40t174 -112l-132 -117q-118 107 -237 107q-198 0 -302.5 -150t-104.5 -448q0 -293 108.5 -443t313.5 -150q70 0 137.5 29.5t116.5 74.5l104 -121q-74 -70 -173 -110.5 t-209 -40.5q-287 0 -454 205t-167 558z" />
<glyph unicode="&#x2122;" horiz-adv-x="1868" d="M25 817v109h700v-109h-283v-817h-118v817h-299zM859 0v926h164l280 -764l282 764h164v-926h-123v749l-268 -749h-111l-266 741v-741h-122z" />
<glyph unicode="&#x25fc;" horiz-adv-x="1059" d="M0 0v1060h1060v-1060h-1060z" />
</font>
</defs>
</svg>
