<?xml version="1.0" standalone="no"?>
<!DOCTYPE svg PUBLIC "-//W3C//DTD SVG 1.1//EN" "http://www.w3.org/Graphics/SVG/1.1/DTD/svg11.dtd" >
<svg xmlns="http://www.w3.org/2000/svg" xmlns:xlink="http://www.w3.org/1999/xlink" version="1.1">
<metadata></metadata>
<defs>
<font id="ibarra_real_novaregular" horiz-adv-x="1085" >
<font-face units-per-em="2048" ascent="1638" descent="-410" />
<missing-glyph horiz-adv-x="542" />
<glyph unicode="&#xfb01;" horiz-adv-x="1077" d="M72 0v31l86 22q30 7 41.5 21.5t11.5 44.5v692h-137v61h137v58q0 77 14.5 150t48.5 142t84.5 120.5t127.5 82.5t173 31q92 0 153.5 -41t61.5 -102q0 -36 -24 -64t-68 -28q-39 0 -63.5 26t-26.5 60q0 10 4 26q4 12 4 19q0 22 -14.5 36.5t-42.5 14.5q-69 0 -122 -27.5 t-85 -71.5t-52.5 -105t-28 -121t-7.5 -126v-80h498l51 25l18 -12q-16 -41 -20 -85t-4 -128v-553q0 -54 49 -66l86 -22v-31h-412v31l86 22q54 15 54 66v588q0 41 -10 57t-39 24l-80 23h-277v-692q0 -30 11.5 -44.5t41.5 -21.5l99 -22v-31h-428z" />
<glyph unicode="&#xfb02;" horiz-adv-x="1093" d="M72 0v31l86 22q30 7 41.5 21.5t11.5 44.5v692h-137v61h137v84q0 123 33 219.5t92 157t135.5 92t167.5 31.5q252 0 252 -264l-4 -1073q0 -30 11.5 -44.5t41.5 -21.5l86 -22v-31h-416v31l86 22q31 7 42.5 22t11.5 44l4 1128q0 83 -33 123.5t-115 40.5q-75 0 -128.5 -40.5 t-80 -109t-38 -138t-11.5 -146.5v-105h275l-21 -61h-254v-692q0 -30 11.5 -44.5t41.5 -21.5l99 -22v-31h-428z" />
<glyph unicode="&#xfb03;" horiz-adv-x="1619" d="M72 0v31l86 22q30 7 41.5 21.5t11.5 44.5v692h-137v61h137v41q0 74 16 144t52 135.5t89 114.5t134 78.5t180 29.5q66 0 140.5 -25.5t117.5 -62.5l-92 -94q-13 59 -72.5 99t-126.5 40q-81 0 -141.5 -41t-94 -110.5t-49.5 -149.5t-16 -170v-29h461v-61h-461v-692 q0 -30 11.5 -44.5t41.5 -21.5l99 -22v-31h-428zM614 0v31l86 22q31 7 42.5 22t11.5 44v692h-138v61h138v58q0 77 14.5 150t48.5 142t84.5 120.5t127.5 82.5t173 31q92 0 153.5 -41t61.5 -102q0 -36 -24 -64t-68 -28q-39 0 -63.5 26t-26.5 60q0 10 4 26q4 12 4 19 q0 22 -14.5 36.5t-42.5 14.5q-69 0 -122 -27.5t-85 -71.5t-52.5 -105t-28 -121t-7.5 -126v-80h498l51 25l18 -12q-16 -41 -20 -85t-4 -128v-553q0 -54 49 -66l86 -22v-31h-412v31l86 22q53 15 53 66v588q0 41 -10 57t-39 24l-80 23h-276v-692q0 -30 11.5 -44.5t41.5 -21.5 l98 -22v-31h-428z" />
<glyph unicode="&#xfb04;" horiz-adv-x="1642" d="M72 0v31l86 22q30 7 41.5 21.5t11.5 44.5v692h-137v61h137v41q0 74 16 144t52 135.5t89 114.5t134 78.5t180 29.5q67 0 138.5 -23t113.5 -59l-86 -100q-13 59 -72.5 99t-126.5 40q-81 0 -141.5 -41t-94 -110.5t-49.5 -149.5t-16 -170v-29h461v-61h-461v-692 q0 -30 11.5 -44.5t41.5 -21.5l99 -22v-31h-428zM621 0v31l86 22q30 7 41.5 21.5t11.5 44.5v692h-137v61h137v84q0 123 33 219.5t92 157t135.5 92t167.5 31.5q252 0 252 -264l-4 -1073q0 -30 11.5 -44.5t41.5 -21.5l86 -22v-31h-416v31l86 22q30 7 41.5 21.5t11.5 44.5 l5 1128q0 83 -33 123.5t-115 40.5q-75 0 -128.5 -40.5t-80 -109t-38 -138t-11.5 -146.5v-105h274l-20 -61h-254v-692q0 -30 11.5 -44.5t41.5 -21.5l99 -22v-31h-428z" />
<glyph horiz-adv-x="0" />
<glyph horiz-adv-x="682" />
<glyph unicode="&#xd;" horiz-adv-x="1228" />
<glyph unicode=" "  horiz-adv-x="542" />
<glyph unicode="&#x09;" horiz-adv-x="542" />
<glyph unicode="&#xa0;" horiz-adv-x="542" />
<glyph unicode="!" horiz-adv-x="438" d="M102 102q0 49 35 84t80 35q49 0 84 -34.5t35 -84.5q0 -45 -35 -79.5t-84 -34.5q-44 0 -79.5 35t-35.5 79zM127 1348h184l-65 -940h-56z" />
<glyph unicode="&#x22;" horiz-adv-x="856" d="M168 1454h207l-76 -524h-55zM481 1454h207l-76 -524h-55z" />
<glyph unicode="#" horiz-adv-x="991" d="M61 369l13 86h786l-12 -86h-787zM131 840l12 86h787l-12 -86h-787zM178 -53l215 1433h86l-219 -1433h-82zM506 -53l213 1433h90l-219 -1433h-84z" />
<glyph unicode="$" horiz-adv-x="1161" d="M102 481h60q17 -130 69.5 -229t148 -159t222.5 -60q132 0 218.5 74t86.5 190q0 61 -15.5 103t-59.5 80t-113 69.5t-184 71.5q-97 33 -163.5 67t-117.5 80t-75.5 106t-24.5 138q0 79 28.5 149t82 124.5t138.5 86t191 31.5q88 0 192 -51q7 -3 23.5 -10.5t25 -11t21.5 -8.5 t24.5 -7t22.5 -2l51 10l9 -6q-1 -11 -4 -46t-3 -54q0 -107 35 -250h-45q-20 52 -36 89t-38 80t-43 72.5t-49 58.5t-59 46.5t-70 28t-84 10.5q-107 0 -183.5 -66.5t-76.5 -181.5q0 -41 5 -70.5t20.5 -57t39 -48t64.5 -43t92 -43t127 -47.5q227 -76 315.5 -166.5t88.5 -243.5 q0 -171 -131.5 -286t-337.5 -115q-242 0 -477 125q36 189 -11 372zM555 -182v1751h63v-1751h-63z" />
<glyph unicode="%" horiz-adv-x="1286" d="M72 1055q0 154 66 248t200 94q135 0 202.5 -94.5t67.5 -247.5q0 -73 -16 -135t-48 -110t-85 -75.5t-121 -27.5t-120.5 27.5t-83.5 76t-46.5 110t-15.5 134.5zM156 0l870 1399h94l-868 -1399h-96zM225 1055q0 -67 4.5 -116.5t16 -95.5t34.5 -70.5t58 -24.5q37 0 61 24 t36 70.5t16 95.5t4 117t-4 115.5t-16 92t-36 67t-61 22.5q-35 0 -58 -23t-34.5 -66.5t-16 -92.5t-4.5 -115zM678 332q0 154 66.5 248t199.5 94q135 0 202.5 -94.5t67.5 -247.5q0 -73 -16 -135t-48 -110t-85 -75.5t-121 -27.5q-132 0 -199 97.5t-67 250.5zM831 332 q0 -67 4.5 -117t16 -96t34.5 -70t58 -24q37 0 61 24t36 70t16 95t4 118q0 68 -4 115.5t-16 92t-36 67t-61 22.5q-35 0 -58 -23t-34.5 -66.5t-16 -92.5t-4.5 -115z" />
<glyph unicode="&#x26;" horiz-adv-x="1593" d="M113 479q0 68 22.5 133t65 120t111.5 93.5t155 48.5v7q-107 46 -155 102.5t-48 151.5q0 115 92 185.5t252 70.5q137 0 235.5 -63t98.5 -175q0 -52 -27.5 -79t-66.5 -27q-41 0 -69.5 26t-28.5 64q0 52 32 84q2 2 7.5 8t7.5 9.5t2 8.5q0 40 -49 63t-117 23 q-93 0 -142 -56.5t-49 -160.5q0 -94 49.5 -158.5t157.5 -105.5l68 -25l-17 -34l-102 14q-131 -26 -218 -130.5t-87 -254.5q0 -184 107.5 -287.5t269.5 -103.5q73 0 137 18t120.5 59.5t97 103.5t64 154.5t23.5 208.5v37q0 66 -23 86.5t-108 34.5l-125 23v37h696v-37l-125 -23 q-85 -14 -108 -34.5t-23 -86.5v-37q0 -117 -34 -215.5t-93 -169t-139 -120t-172 -73.5t-192 -24q-114 0 -213 32.5t-175.5 94t-120.5 159.5t-44 220z" />
<glyph unicode="'" horiz-adv-x="542" d="M168 1454h207l-76 -524h-55z" />
<glyph unicode="(" horiz-adv-x="616" d="M123 526q0 260 93 525t271 489l48 -31q-265 -474 -265 -983t265 -983l-48 -30q-178 224 -271 488.5t-93 524.5z" />
<glyph unicode=")" horiz-adv-x="616" d="M82 -457q264 461 264 983t-264 983l47 31q180 -221 272.5 -486t92.5 -528q0 -262 -92.5 -526.5t-272.5 -486.5z" />
<glyph unicode="*" horiz-adv-x="837" d="M70 904q-4 18 3 40.5t29 34.5q40 21 125 35q7 2 32 8t36.5 9t32 9.5t37.5 14.5t34 18l25 14q72 43 137 119q53 66 90 88q23 16 45 10.5t37 -17t23 -25.5t11.5 -31.5t-3.5 -39.5t-29 -36q-40 -21 -125 -35q-98 -18 -172 -59l-24 -14q-57 -34 -138 -119q-65 -74 -90 -88 q-23 -14 -45 -9t-36.5 16.5t-22.5 24.5q-8 14 -12 32zM72 1230q3 17 10 32q8 14 22 25t36 17t44 -8q36 -20 92 -90q81 -85 138 -119l24 -14q22 -12 48 -22.5t41 -15t45 -12l38 -9.5q86 -15 123 -35q22 -12 29.5 -34.5t4.5 -41t-11 -31.5q-6 -13 -21 -25t-36.5 -17t-45.5 8 q-32 22 -92 90q-82 87 -137 119l-25 14q-67 40 -172 59q-86 15 -123 35q-21 12 -28 35t-4 40zM338 750q0 41 31 124q34 117 34 179v28q0 71 -34 179q-31 91 -31 124q0 36 27 54t53 18q27 0 54.5 -17.5t27.5 -54.5q0 -33 -31 -124q-35 -112 -35 -179v-28q0 -14 1 -27.5 t3.5 -28.5t4 -25t6 -26.5t6.5 -23t7.5 -25.5t6.5 -23q31 -83 31 -124q0 -34 -27.5 -53t-52.5 -19q-26 0 -54 19t-28 53z" />
<glyph unicode="+" d="M150 647v78h354v342h78v-342h354v-78h-354v-344h-78v344h-354z" />
<glyph unicode="," horiz-adv-x="542" d="M109 -272q92 13 148 76t56 151q0 63 -51.5 108.5t-136.5 57.5v47q41 26 66.5 56t48.5 81q196 -70 196 -256q0 -136 -91 -240t-236 -116v35z" />
<glyph unicode="-" horiz-adv-x="542" d="M41 522v123h461v-123h-461z" />
<glyph unicode="." horiz-adv-x="542" d="M139 117q0 55 38.5 94t90.5 39q56 0 94.5 -39t38.5 -94q0 -52 -39 -90.5t-94 -38.5q-51 0 -90 39t-39 90z" />
<glyph unicode="/" horiz-adv-x="917" d="M41 -14l758 1468h78l-758 -1468h-78z" />
<glyph unicode="0" horiz-adv-x="1191" d="M123 700q0 119 17.5 223t55 192t92 150.5t133.5 98t175 35.5t175 -35.5t133.5 -98t92 -150.5t55 -192t17.5 -223q0 -150 -28.5 -277.5t-84.5 -226.5t-148.5 -155.5t-211.5 -56.5t-211.5 56.5t-148.5 155.5t-84.5 226.5t-28.5 277.5zM311 700q0 -84 2.5 -151t10 -138.5 t20.5 -125.5t35 -103.5t51.5 -81.5t71.5 -50.5t94 -18.5t94 18.5t71.5 50.5t51.5 81.5t35 103.5t20.5 125.5t10 138.5t2.5 151q0 98 -4 174t-14.5 154t-31 133t-51 99.5t-77 67t-107.5 22.5t-107.5 -22.5t-77 -67t-51 -99.5t-31 -133t-14.5 -154t-4 -174z" />
<glyph unicode="1" horiz-adv-x="839" d="M82 0v37l88 16h1h1l1 1h1h1h1l2 1q108 21 131 35q25 16 28 61l1 56v1046q0 27 -11.5 37.5t-41.5 9.5l-172 -6v35l399 74v-1196q0 -91 19.5 -109.5t140.5 -42.5q5 -1 8 -2l88 -16v-37h-686z" />
<glyph unicode="2" horiz-adv-x="1017" d="M82 0v25l280 313q107 119 174.5 215.5t99 178.5t41 142.5t9.5 141.5q0 155 -67.5 238t-204.5 83q-70 0 -128.5 -35t-58.5 -90q0 -13 19 -32q35 -40 35 -82q0 -41 -29 -65.5t-74 -24.5q-39 0 -66.5 27t-27.5 79q0 87 57 153t144 98t186 32q79 0 150 -22.5t129.5 -65.5 t93.5 -116t35 -165q0 -44 -6 -85t-21 -82.5t-29 -75t-43 -76t-49.5 -72t-61 -77t-66 -76.5t-76 -85t-78.5 -88l-132 -147h396q56 0 77 20t46 95l22 69h37l-57 -348h-756z" />
<glyph unicode="3" horiz-adv-x="1024" d="M61 229q0 52 28.5 81.5t72.5 29.5q41 0 66.5 -27t25.5 -65q0 -41 -29 -74q-20 -28 -20 -39q0 -38 56.5 -67t131.5 -29q59 0 115 20t105.5 60t79.5 112t30 166q0 141 -82.5 232.5t-241.5 97.5q-65 -26 -108 -37l-21 35l82 41q114 55 186 146t72 188q0 239 -202 239 q-68 0 -117 -29t-49 -71q0 -5 2 -10t4 -8t7 -9.5t7 -9.5q29 -33 29 -74q0 -38 -28.5 -64t-69.5 -26q-39 0 -67 27.5t-28 79.5q0 115 103 183.5t248 68.5q159 0 250.5 -72.5t91.5 -189.5q0 -101 -62.5 -179t-175.5 -129v-2q109 -8 193 -67t124.5 -140t40.5 -167 q0 -113 -42.5 -203.5t-115.5 -148.5t-168 -88.5t-202 -30.5q-133 0 -227.5 69t-94.5 180z" />
<glyph unicode="4" horiz-adv-x="1118" d="M51 367v36l735 1012h15v-1239q0 -62 22.5 -83t108.5 -38l104 -18v-37h-647v37l105 18q86 17 108.5 38t22.5 83v989l37 -12l-500 -692l-19 49h736q42 0 59 12t29 51l28 89h37l-51 -295h-930z" />
<glyph unicode="5" horiz-adv-x="972" d="M20 233q0 52 28 79.5t67 27.5q44 0 71 -30t27 -64q0 -49 -31 -84q-18 -14 -18 -27q0 -41 50.5 -62.5t117.5 -21.5q178 0 266 85t88 245q0 166 -104.5 253t-286.5 87q-64 0 -119 -8l-8 6l72 635h458q36 0 55.5 16t32.5 51l5 11h32l-43 -242h-491l-37 -328q72 10 125 10 q144 0 253.5 -48t174.5 -147t65 -239q0 -208 -142.5 -334.5t-369.5 -126.5q-90 0 -166.5 30t-124 89.5t-47.5 136.5z" />
<glyph unicode="6" horiz-adv-x="1024" d="M102 541q0 248 91 443.5t256 305t376 109.5v-21q-283 -75 -408.5 -291.5t-125.5 -564.5q0 -246 69.5 -370.5t174.5 -124.5q229 0 229 389q0 102 -21.5 180t-72.5 128t-127 50q-117 0 -182 -91.5t-72 -223.5l-31 149q15 97 102.5 164.5t210.5 67.5q93 0 167 -34.5t120 -94 t70 -135t24 -160.5q0 -103 -36 -187.5t-95.5 -137t-133 -81t-152.5 -28.5q-68 0 -128.5 17t-117.5 57.5t-97.5 103t-65 160t-24.5 221.5z" />
<glyph unicode="7" horiz-adv-x="962" d="M51 1079l45 301h805v-120l-471 -1260h-207l576 1217h-613q-46 0 -67 -52l-35 -86h-33z" />
<glyph unicode="8" horiz-adv-x="1101" d="M113 324q0 139 102 254t238 157l57 -43q-110 -52 -161.5 -138.5t-51.5 -188.5q0 -154 75 -238t197 -84q115 0 182.5 75t67.5 185q0 36 -10 70t-24 60.5t-41.5 55.5t-49 48t-60.5 45.5t-63 41t-69 40.5q-18 11 -59.5 35.5t-61.5 37t-55 36.5t-53 41.5t-42 45.5t-36 54.5 t-20.5 61t-8.5 73.5q0 68 27 129.5t77 110t131 77.5t181 29q94 0 176.5 -36t135 -107t52.5 -162q0 -115 -84 -199.5t-211 -132.5l-61 41q94 57 139 137.5t45 171.5q0 111 -61.5 168t-163.5 57q-87 0 -153 -56t-66 -157q0 -31 7.5 -59t18.5 -50t32 -45.5t38 -39t48.5 -37.5 t51.5 -34.5t58 -35.5t57 -35q11 -7 49.5 -30t52 -31t47 -30.5t47 -34t40.5 -35t38.5 -40.5t29 -43t25 -50.5t13.5 -55t6 -63.5q0 -174 -127 -285t-321 -111q-113 0 -209.5 41.5t-157.5 122.5t-61 185z" />
<glyph unicode="9" horiz-adv-x="1024" d="M72 967q0 104 36 188.5t96 137t133.5 80.5t151.5 28q68 0 128.5 -17t117.5 -57.5t97.5 -103t65 -160t24.5 -221.5q0 -248 -91 -443.5t-256 -305t-376 -109.5v20q283 75 408.5 291.5t125.5 564.5q0 247 -69 371.5t-175 124.5q-229 0 -229 -389q0 -101 22 -179.5t73 -129 t126 -50.5q119 0 183 91t71 225l31 -150q-12 -94 -101.5 -162.5t-211.5 -68.5t-210.5 60.5t-129.5 154.5t-41 209z" />
<glyph unicode=":" horiz-adv-x="542" d="M139 115q0 55 38.5 94t90.5 39q56 0 94.5 -39t38.5 -94q0 -52 -39 -90.5t-94 -38.5q-51 0 -90 39t-39 90zM139 760q0 55 38.5 94t90.5 39q56 0 94.5 -38.5t38.5 -94.5q0 -52 -39 -90.5t-94 -38.5q-51 0 -90 39t-39 90z" />
<glyph unicode=";" horiz-adv-x="542" d="M109 -272q92 13 148 76t56 151q0 63 -51.5 108.5t-136.5 57.5v47q41 26 66.5 56t48.5 81q196 -70 196 -256q0 -136 -91 -240t-236 -116v35zM127 760q0 55 38.5 94t90.5 39q56 0 94.5 -38.5t38.5 -94.5q0 -52 -39 -90.5t-94 -38.5q-51 0 -90 39t-39 90z" />
<glyph unicode="&#x3c;" d="M164 645l2 78l766 360v-92l-684 -307l684 -309v-94z" />
<glyph unicode="=" d="M150 412v77h786v-77h-786zM150 881v77h786v-77h-786z" />
<glyph unicode="&#x3e;" d="M154 281v94l684 309l-684 307v92l766 -360l2 -78z" />
<glyph unicode="?" horiz-adv-x="745" d="M92 102q0 49 35 84t80 35q49 0 84 -34.5t35 -84.5q0 -45 -35 -79.5t-84 -34.5q-44 0 -79.5 35t-35.5 79zM129 1116v262h37l8 -53q11 -72 72 -84l196 -35q115 -20 163 -88.5t48 -208.5q0 -150 -52.5 -231t-190.5 -100q-104 -14 -139 -51.5t-35 -118.5h-56q0 127 22 194 t71.5 99t148.5 49q110 21 141 51t31 106q0 70 -28 101t-93 43z" />
<glyph unicode="@" horiz-adv-x="1990" d="M92 467q0 151 49.5 293t138.5 255.5t206.5 199.5t261 133t294.5 47q138 0 261.5 -30.5t219 -84.5t172.5 -127t127 -158t76.5 -178t26.5 -188q0 -123 -32 -227.5t-84 -175.5t-119 -121.5t-137 -73.5t-138 -23q-105 0 -174.5 57t-69.5 158v25l13 -86q-4 -3 -29.5 -23 t-33.5 -26l-32 -24t-35.5 -24.5t-33.5 -19t-37 -17.5t-33.5 -9.5t-34.5 -4.5q-84 0 -154.5 83t-70.5 179q0 57 29 70l358 137q47 19 65.5 42.5t18.5 62.5v37q0 98 -45 160.5t-133 62.5q-62 0 -101.5 -26t-39.5 -72q0 -15 20 -43q29 -42 29 -74q0 -37 -28.5 -60.5 t-65.5 -23.5q-40 0 -67.5 26.5t-27.5 77.5q0 100 96 173t216 73q138 0 212 -78.5t74 -195.5v-334q0 -124 33 -165.5t127 -41.5q139 0 230.5 148t91.5 397q0 103 -29 202.5t-90.5 189.5t-148.5 158t-211 108t-269 40q-161 0 -308.5 -62.5t-258 -172.5t-176.5 -272t-66 -351 q0 -166 42.5 -302.5t117 -230.5t176 -159t218 -95t245.5 -30q171 0 346.5 55.5t325.5 155.5l33 -43q-149 -119 -333.5 -180.5t-377.5 -61.5q-144 0 -278.5 34.5t-252.5 107.5t-206 176t-138.5 250t-50.5 321zM848 270q0 -52 43 -99.5t84 -47.5q72 0 155 67q33 20 33 70v178 q0 7 -5 11t-11 0l-281 -117q-18 -8 -18 -62z" />
<glyph unicode="A" horiz-adv-x="1562" d="M10 0v37l96 16q68 12 105.5 39.5t58.5 79.5l416 1016l-43 112q58 3 93.5 47t35.5 83h19l499 -1211q35 -86 74 -119.5t106 -46.5l82 -16v-37h-673v37l110 18q65 10 90 24.5t25 39.5q0 15 -27 90l-375 946h48l-408 -987q-14 -32 -14 -51q0 -44 75 -56l134 -24v-37h-527z M451 535h600v-66h-586z" />
<glyph unicode="B" horiz-adv-x="1423" d="M82 0v37l125 22q86 17 108.5 38t22.5 83v1018q0 66 -23 86.5t-108 34.5l-125 22v37h672q211 0 335.5 -87t124.5 -232q0 -231 -335 -291v-4q61 -8 117 -24.5t110.5 -46.5t94.5 -69t64.5 -95.5t24.5 -122.5q0 -100 -45 -178.5t-124 -127.5t-183 -74.5t-225 -25.5h-631z M520 184q0 -71 32.5 -102.5t119.5 -32.5h49q70 0 134.5 23.5t114.5 65.5t79.5 107.5t29.5 143.5q0 147 -97.5 244.5t-260.5 97.5h-201v-547zM520 784h213q131 0 211 78t80 191q0 134 -79 205t-228 71h-197v-545z" />
<glyph unicode="C" horiz-adv-x="1505" d="M92 690q0 154 59.5 287.5t158.5 224t229.5 142t271.5 51.5q155 0 315 -54q7 -2 32 -10t33.5 -10.5t27 -7.5t32.5 -6.5t29 -1.5q17 0 41 4.5t35 5.5l4 -4q-7 -48 -7 -101q0 -113 33 -252h-40q-26 67 -73 132.5t-113 123.5t-155 93.5t-186 35.5q-105 0 -201.5 -48.5 t-168 -132.5t-114 -206.5t-42.5 -261.5q0 -188 68.5 -341t189.5 -240.5t270 -87.5q34 0 71 5t89 18.5t102 42.5t100 70t94.5 108t74.5 151h41q-54 -262 -54 -369h-20q-48 0 -223 -35q-210 -41 -277 -41q-210 0 -377.5 95.5t-258.5 258.5t-91 361z" />
<glyph unicode="D" horiz-adv-x="1648" d="M82 0v37l125 22q86 17 108.5 38t22.5 83v1018q0 66 -23 86.5t-108 34.5l-125 22v37h657q150 0 281.5 -37t228.5 -102.5t167 -152.5t105 -189t35 -211q0 -212 -108.5 -369t-294.5 -237t-424 -80h-647zM522 160q0 -58 43.5 -84t163.5 -27q131 0 244 42t198 120.5t134 201 t49 273.5q0 312 -174 477.5t-490 165.5h-168v-1169z" />
<glyph unicode="E" horiz-adv-x="1402" d="M82 0v37l125 22q86 17 108.5 38t22.5 83v1018q0 66 -23 86.5t-108 34.5l-125 22v37h1165q-12 -59 -12 -114q0 -45 6 -91.5t15.5 -94t11.5 -62.5h-41q-20 60 -39 102.5t-48 85t-63.5 68t-84 41.5t-111.5 16h-357v-573h326q101 0 138.5 34t55.5 125l19 97h37v-570h-37 l-19 97q-18 91 -55.5 125t-138.5 34h-326v-514q0 -77 31.5 -105t128.5 -28h188q117 0 216.5 66t140.5 147l53 105h39q-49 -176 -53 -369h-1186z" />
<glyph unicode="F" horiz-adv-x="1318" d="M82 0v37l125 22q86 17 108.5 38t22.5 83v1018q0 66 -23 86.5t-108 34.5l-125 22v37h1165q-12 -59 -12 -114q0 -45 6 -91.5t15.5 -94t11.5 -62.5h-41q-11 39 -28 78t-45.5 82.5t-63 76.5t-82.5 54.5t-101 21.5h-383v-614h275q36 0 52.5 0.5t45.5 3t43.5 8.5t35 17.5 t31.5 28t21.5 42t15.5 59.5l17 97h37v-565l-37 -3l-17 91q-6 34 -17.5 60.5t-23 43.5t-32.5 29t-36 17.5t-43.5 8.5t-44.5 3.5t-50 0.5h-275v-477q0 -64 23.5 -86t107.5 -35l135 -22v-37h-706z" />
<glyph unicode="G" horiz-adv-x="1652" d="M92 690q0 151 62 284t164 224.5t234.5 144t272.5 52.5q89 0 169.5 -14t127.5 -31t98.5 -31t90.5 -14q18 0 78 12l4 -4q-11 -33 -11 -96q0 -62 13 -148t22 -111h-41q-24 67 -75 133.5t-120.5 123.5t-163.5 92.5t-192 35.5q-109 0 -208 -54t-169.5 -143.5t-112.5 -208 t-42 -243.5q0 -91 19 -183t61 -180t102 -155.5t149 -109t195 -41.5q96 0 197.5 37.5t163.5 97.5v278q0 66 -23 86.5t-108 34.5l-125 23v36h688v-36l-107 -19q-85 -14 -108 -34.5t-23 -86.5v-391l-10 -6q-24 8 -84 8q-12 0 -27.5 -2t-36 -6t-35.5 -7.5t-43.5 -10.5t-43.5 -11 q-4 -1 -35.5 -8t-40 -8.5t-36.5 -7t-42.5 -7.5t-37.5 -5t-43 -4t-40 -1q-157 0 -293 55.5t-231 151t-149 227.5t-54 281z" />
<glyph unicode="H" horiz-adv-x="1712" d="M82 0v37l125 22q86 17 108.5 38t22.5 83v1018q0 66 -23 86.5t-108 34.5l-125 22v37h696v-37l-125 -22q-85 -14 -108 -34.5t-23 -86.5v-1018q0 -62 22.5 -83t108.5 -38l125 -22v-37h-696zM463 756h788l6 -58h-786zM934 0v37l125 22q86 17 108.5 38t22.5 83v1018 q0 66 -23 86.5t-108 34.5l-125 22v37h696v-37l-125 -22q-85 -14 -108 -34.5t-23 -86.5v-1018q0 -62 22.5 -83t108.5 -38l125 -22v-37h-696z" />
<glyph unicode="I" horiz-adv-x="860" d="M82 0v37l125 22q86 17 108.5 38t22.5 83v1018q0 66 -23 86.5t-108 34.5l-125 22v37h696v-37l-125 -22q-85 -14 -108 -34.5t-23 -86.5v-1018q0 -62 22.5 -83t108.5 -38l125 -22v-37h-696z" />
<glyph unicode="J" horiz-adv-x="849" d="M-72 -158q0 57 34 88t81 31q52 0 81.5 -34.5t29.5 -80.5q0 -40 -27.5 -73t-67.5 -33q-12 0 -12 -4q0 -18 34 -34.5t77 -16.5q200 0 200 272v1241q0 66 -23 86.5t-108 34.5l-125 22v37h697v-37l-125 -22q-85 -14 -108 -34.5t-23 -86.5v-1270h-8q-5 0 -10.5 -1.5 t-10.5 -5.5t-9 -7t-9.5 -10.5t-9.5 -12.5t-10 -15t-9 -15.5t-10.5 -18t-10.5 -18.5q-20 -36 -42.5 -65t-57.5 -59.5t-86 -47.5t-113 -17q-90 0 -154.5 66t-64.5 141z" />
<glyph unicode="K" horiz-adv-x="1636" d="M82 0v37l125 22q86 17 108.5 38t22.5 83v1018q0 66 -23 86.5t-108 34.5l-125 22v37h696v-37l-125 -22q-85 -14 -108 -34.5t-23 -86.5v-561l639 567q56 48 56 73q1 3 -1 6q-8 25 -94 42l-84 16v37h535v-37l-94 -20q-74 -14 -128 -47t-155 -119l-379 -328l637 -714 q33 -36 64 -50t88 -26v-37h-160q-86 0 -143 23.5t-111 80.5l-533 578l-137 -125v-377q0 -62 22.5 -83t108.5 -38l125 -22v-37h-696z" />
<glyph unicode="L" horiz-adv-x="1441" d="M82 0v37l125 22q86 17 108.5 38t22.5 83v1018q0 66 -23 86.5t-108 34.5l-125 22v37h696v-37l-125 -22q-85 -14 -108 -34.5t-23 -86.5v-1014q0 -77 33 -105t129 -28h289q117 0 216 66t140 147l53 105h39q-49 -176 -53 -369h-1286z" />
<glyph unicode="M" horiz-adv-x="1968" d="M72 0v37l125 24q87 19 107.5 38t23.5 83l43 1004q1 9 1 17q0 53 -24 77q-26 28 -108 45l-86 16v37h393l457 -1067l446 1067h418v-37l-123 -20q-81 -13 -107 -41q-24 -26 -24 -86v-10l26 -1004q3 -66 24.5 -86t107.5 -35l124 -22v-37h-655v37l143 26q40 7 53 22t13 48 l-20 1016l-482 -1167h-14l-502 1206l-47 -1006v-5q0 -57 22 -77q23 -20 109 -39l127 -24v-37h-571z" />
<glyph unicode="N" horiz-adv-x="1753" d="M82 1343v35h350l957 -1065l-3 871q0 68 -24.5 95t-106.5 40l-125 22v37h572v-37l-125 -22q-83 -13 -107 -37.5t-24 -91.5v-1223h-21l-1026 1172v-944q0 -65 24.5 -92t106.5 -44l125 -22v-37h-571v37l125 22q84 17 107.5 41t23.5 88v996q0 27 -1 41.5t-6.5 30.5t-15 23.5 t-28.5 16.5t-44.5 15t-66.5 14z" />
<glyph unicode="O" horiz-adv-x="1646" d="M92 670q0 206 94 373t261 261.5t374 94.5q208 0 377 -95t262.5 -255.5t93.5 -352.5q0 -153 -55 -286.5t-151.5 -229t-233 -150.5t-293.5 -55q-154 0 -290.5 55.5t-232 149t-151 221.5t-55.5 269zM297 670q0 -173 67 -319t188 -233t269 -87q152 0 273.5 87t188.5 238 t67 338q0 177 -67 324t-189 234t-273 87q-149 0 -269 -86.5t-187.5 -239.5t-67.5 -343z" />
<glyph unicode="P" horiz-adv-x="1372" d="M82 1341v37h651q250 0 403.5 -105.5t153.5 -277.5q0 -64 -21 -119.5t-56.5 -96t-82.5 -72.5t-99.5 -50.5t-106.5 -28.5q-45 -8 -88 -7h-18q-52 2 -95 14l2 14q75 5 136 25t111.5 59t78.5 105.5t28 156.5q0 334 -379 334h-176v-1149q0 -62 22.5 -83t108.5 -38l125 -22v-37 h-696v37l125 22q86 17 108.5 38t22.5 83v991q0 34 -1 53t-9 36t-15.5 25t-30.5 16.5t-44.5 12.5t-65.5 11z" />
<glyph unicode="Q" horiz-adv-x="1646" d="M92 670q0 206 94 373t261 261.5t374 94.5q208 0 377 -95t262.5 -255.5t93.5 -352.5q0 -153 -55 -286.5t-151.5 -229t-233 -150.5t-293.5 -55q-154 0 -290.5 55.5t-232 149t-151 221.5t-55.5 269zM297 670q0 -173 67 -319t188 -233t269 -87q152 0 273.5 87t188.5 238 t67 338q0 177 -67 324t-189 234t-273 87q-149 0 -269 -86.5t-187.5 -239.5t-67.5 -343zM766 -14l272 32q28 -45 157.5 -107.5t304.5 -110.5t308 -48l13 -33q-133 -26 -289 -26q-198 0 -381 64.5t-385 228.5z" />
<glyph unicode="R" horiz-adv-x="1585" d="M82 0v37l125 22q86 17 108.5 38t22.5 83v1018q0 66 -23 86.5t-108 34.5l-125 22v37h573q273 0 424.5 -102.5t151.5 -278.5q0 -137 -107.5 -228.5t-265.5 -111.5v-6q31 0 58.5 -5t53.5 -18t46.5 -24.5t44 -35.5t38 -39t38.5 -48t34.5 -48t36 -54t35.5 -53q40 -58 64.5 -91 t62.5 -78.5t67.5 -69.5t66 -42t71.5 -18v-37q-56 -17 -105 -17q-34 0 -65.5 4.5t-61 17.5t-52 23.5t-50 34.5t-43 37.5t-43.5 46t-39.5 46.5t-41.5 52.5t-40 51.5l-44 60.5l-44 60.5t-43 54.5t-47.5 51t-50.5 41t-60 34t-68 19.5t-81 8h-74v-436q0 -62 22.5 -83t108.5 -38 l125 -22v-37h-696zM522 674h133q178 0 276.5 84.5t98.5 230.5q0 165 -106.5 253.5t-294.5 88.5h-107v-657z" />
<glyph unicode="S" horiz-adv-x="1161" d="M102 481h60q17 -130 69.5 -229t148 -159t222.5 -60q132 0 218.5 74t86.5 190q0 61 -15.5 103t-59.5 80t-113 69.5t-184 71.5q-97 33 -163.5 67t-117.5 80t-75.5 106t-24.5 138q0 79 28.5 149t82 124.5t138.5 86t191 31.5q88 0 192 -51q7 -3 23.5 -10.5t25 -11t21.5 -8.5 t24.5 -7t22.5 -2l51 10l9 -6q-1 -11 -4 -46t-3 -54q0 -107 35 -250h-45q-20 52 -36 89t-38 80t-43 72.5t-49 58.5t-59 46.5t-70 28t-84 10.5q-107 0 -183.5 -66.5t-76.5 -181.5q0 -41 5 -70.5t20.5 -57t39 -48t64.5 -43t92 -43t127 -47.5q227 -76 315.5 -166.5t88.5 -243.5 q0 -171 -131.5 -286t-337.5 -115q-242 0 -477 125q16 82 16 163q0 105 -27 209z" />
<glyph unicode="T" horiz-adv-x="1421" d="M31 1016q23 124 27 197q1 21 1 44q0 56 -8 121h1317q-7 -66 -7 -117q0 -26 2 -48q5 -66 28 -197h-43q-88 313 -351 313h-194v-1149q0 -62 22.5 -83t108.5 -38l125 -22v-37h-697v37l125 22q86 17 108.5 38t22.5 83v1149h-194q-74 0 -132.5 -23.5t-99.5 -68.5t-69 -98 t-49 -123h-43z" />
<glyph unicode="U" horiz-adv-x="1622" d="M51 1341v37h697v-37l-125 -22q-85 -14 -108 -34.5t-23 -86.5v-723q0 -189 102 -294t276 -105q185 0 285 107.5t100 299.5v701q0 68 -24.5 95t-106.5 40l-125 22v37h572v-37l-125 -22q-83 -13 -107 -37.5t-24 -91.5v-965q-13 0 -26.5 -4t-22.5 -8.5t-23.5 -17t-21 -18.5 t-24 -24t-23.5 -24q-30 -32 -58 -54.5t-71.5 -47.5t-102.5 -38.5t-131 -13.5q-219 0 -361.5 135t-142.5 363v725q0 66 -23 86.5t-108 34.5z" />
<glyph unicode="V" horiz-adv-x="1556" d="M10 1341v37h645v-37l-96 -16q-41 -6 -65 -11.5t-44 -19t-20 -32.5q0 -10 4 -25t12.5 -38t10.5 -30l411 -921h-24l373 930q24 57 24 77q0 29 -23 42.5t-90 25.5l-94 18v37h512v-37l-86 -20q-69 -15 -103.5 -41t-64.5 -100l-483 -1211h-16l-525 1213q-32 74 -64 102 t-108 41z" />
<glyph unicode="W" horiz-adv-x="2312" d="M10 1341v37h664v-37l-139 -24q-68 -13 -81 -37q-5 -9 -5 -21q0 -24 16 -63l326 -885l333 865q23 56 23 84q-1 10 -3 16q-10 24 -87 41l-125 24v37h571v-37l-137 -24q-77 -13 -86 -39q-2 -6 -2 -15q0 -28 22 -81l320 -871l342 885q16 41 16 64q0 13 -5 21q-13 22 -81 36 l-131 24v37h541v-37l-111 -16q-72 -10 -109.5 -43.5t-64.5 -105.5l-452 -1194h-15l-393 1114l-422 -1114h-14l-451 1194q-27 71 -64 103.5t-110 45.5z" />
<glyph unicode="X" horiz-adv-x="1607" d="M20 0v37l89 12q138 20 233 115l383 495l-373 529q-46 65 -93 96.5t-130 44.5l-61 10v39h692v-37l-111 -16q-61 -9 -88.5 -23.5t-27.5 -42t34 -71.5l285 -402l330 418q25 28 25 55q1 7 -1 14q-8 33 -61 40l-139 28v37h571v-37l-88 -12q-128 -19 -232 -123l-370 -469 l350 -477q76 -104 137 -149t152 -62l61 -10v-39h-692v37l111 18q57 11 81 25.5t20.5 42t-40.5 74.5l-307 413l-344 -444q-23 -30 -23 -52q0 -35 60 -48l139 -29v-37h-572z" />
<glyph unicode="Y" horiz-adv-x="1454" d="M10 1339v39h643v-35l-106 -16q-83 -12 -101 -43q-4 -8 -4 -19q0 -29 33 -77l344 -467h-37l310 481q25 36 25 61q0 5 -1 11q-7 27 -59 39l-129 28v37h516v-37l-78 -12q-63 -8 -109.5 -35.5t-85.5 -89.5l-356 -547l-141 -32l-455 612q-32 44 -63.5 64.5t-83.5 27.5zM393 0 v37l125 22q86 17 108.5 38t22.5 83v496l185 20v-516q0 -62 22.5 -83t108.5 -38l125 -22v-37h-697z" />
<glyph unicode="Z" horiz-adv-x="1370" d="M61 0v23l961 1306h-459q-154 0 -238.5 -76t-152.5 -252h-39q31 145 31 271q0 48 -10 106h1116v-22l-953 -1305h502q155 0 281.5 95.5t177.5 236.5h41q-51 -206 -51 -383h-1207z" />
<glyph unicode="[" horiz-adv-x="604" d="M154 -440v1964h389v-62h-267v-1841h267v-61h-389z" />
<glyph unicode="\" horiz-adv-x="917" d="M41 1454h78l758 -1468h-78z" />
<glyph unicode="]" horiz-adv-x="604" d="M61 -379h267v1841h-267v62h390v-1964h-390v61z" />
<glyph unicode="^" horiz-adv-x="1056" d="M82 666l397 667h99l397 -667h-119l-350 571h45l-350 -571h-119z" />
<glyph unicode="_" d="M0 -119h1085v-71h-1085v71z" />
<glyph unicode="`" d="M356 1421q0 29 20.5 49.5t49.5 20.5q32 0 53 -27l252 -319l-37 -33l-301 246q-2 2 -9 8t-10.5 10t-8.5 11t-7 15.5t-2 18.5z" />
<glyph unicode="a" horiz-adv-x="954" d="M123 254q0 57 29 70l391 141q49 19 67.5 41.5t18.5 64.5v37q0 100 -48 167t-137 67q-62 0 -101.5 -29t-39.5 -78q0 -16 21 -45q28 -40 28 -74q0 -38 -27 -62t-69 -24q-45 0 -70.5 28t-25.5 79q0 102 98 177t219 75q141 0 216 -80.5t75 -200.5v-430q0 -34 3 -53t16.5 -34 t39.5 -15q47 0 97 20v-30q-45 -29 -102 -54.5t-91 -25.5q-32 0 -53.5 13t-31 37.5t-12.5 48t-3 56.5v25l20 -29q-183 -151 -286 -151q-92 0 -167 84t-75 184zM270 248q0 -57 52 -110.5t100 -53.5q72 0 174 74q35 27 35 80v188q0 6 -5.5 10t-11.5 0l-321 -121q-23 -9 -23 -67 z" />
<glyph unicode="b" horiz-adv-x="1114" d="M51 1348v20q7 2 32 7.5t33.5 7.5t31 7.5t33.5 9t30.5 9t32.5 10.5t30 11.5t32 13t30 14.5l18 -12q-16 -41 -20 -85t-4 -128v-461l186 94q52 23 76 23q107 0 191 -35.5t135 -96.5t77.5 -138t26.5 -164q0 -88 -27 -170.5t-78.5 -150.5t-137 -109t-193.5 -41q-77 0 -153 31 t-124 79q-45 -38 -96 -119l-18 5v1261q0 41 -10.5 57.5t-39.5 24.5zM330 313q0 -114 78.5 -195t181.5 -81q73 0 129.5 29t90.5 79t51.5 112t17.5 132q0 106 -33.5 193t-109 144.5t-183.5 57.5q-102 0 -162.5 -52.5t-60.5 -129.5v-289z" />
<glyph unicode="c" horiz-adv-x="913" d="M92 416q0 103 37.5 193.5t98 150.5t137 94.5t155.5 34.5q149 0 233.5 -66t84.5 -164q0 -53 -30.5 -82.5t-70.5 -29.5t-71 25.5t-31 66.5q0 32 14 57q15 35 15 43q0 44 -44.5 70.5t-113.5 26.5q-51 0 -96.5 -19.5t-85 -60.5t-63 -115t-23.5 -172q0 -174 88 -270.5 t223 -96.5t268 109l25 -21q-71 -102 -165 -154t-181 -52q-177 0 -290.5 123.5t-113.5 308.5z" />
<glyph unicode="d" horiz-adv-x="1134" d="M92 418q0 89 27 171.5t79 150.5t137.5 108.5t192.5 40.5q76 0 144.5 -19t107.5 -49v420q0 42 -10 59t-39 23l-113 25v20q10 2 72.5 16t88 21t69.5 21.5t76 31.5l18 -12q-16 -41 -20 -85t-4 -128v-1083q0 -58 42 -82q35 -19 101 -20q14 0 29 1v-39q-40 -1 -80 -4.5 t-103.5 -11.5t-79.5 -10l-16 8l-14 110h-9l-192 -96q-40 -22 -76 -22q-105 0 -189 36t-135 97t-77.5 138t-26.5 163zM236 483q0 -118 33 -206.5t107 -142.5t183 -54q97 0 161 57t64 133v289q0 115 -78 196t-182 81q-72 0 -128.5 -29t-90.5 -79t-51.5 -112t-17.5 -133z" />
<glyph unicode="e" horiz-adv-x="919" d="M92 424q0 203 120 334t300 131q141 0 229 -99t88 -249q0 -33 -32 -33h-592v47l420 12q39 0 39 37q0 103 -44 167.5t-131 64.5q-112 0 -181.5 -101.5t-69.5 -265.5q0 -172 90 -269.5t225 -97.5q127 0 260 109l25 -21q-71 -103 -161.5 -154.5t-176.5 -51.5 q-176 0 -292 127.5t-116 312.5z" />
<glyph unicode="f" horiz-adv-x="655" d="M72 0v31l86 22q30 7 41.5 21.5t11.5 44.5v696h-137v57h137v148q0 124 41.5 221.5t127.5 156t204 58.5q97 0 161 -41t64 -102q0 -39 -24 -64.5t-64 -25.5q-43 0 -68.5 22t-25.5 55q0 3 6 27t6 27q0 23 -19 36t-49 13q-64 0 -109.5 -30.5t-69.5 -87.5t-34 -124t-10 -153 v-136h275l-21 -57h-254v-696q0 -30 11.5 -44.5t41.5 -21.5l109 -22v-31h-438z" />
<glyph unicode="g" horiz-adv-x="1005" d="M61 -287q0 42 24 86t71.5 86t130.5 72t188 37l14 -17q-139 -19 -213.5 -83.5t-74.5 -135.5q0 -90 85.5 -148.5t235.5 -58.5q167 0 266 64t99 156q0 100 -91 153t-249 53q-37 0 -109.5 -4t-109.5 -4q-95 0 -156 42t-61 110q0 9 12 16q16 12 50.5 37.5t50 37.5t37 34.5 t36.5 46.5v8q-76 39 -120 110t-44 160q0 140 92 229t240 89q39 0 156 -23q102 -20 139 -20q53 0 53 33q0 29 -25 61q-22 40 -22 59q0 36 21.5 55t54.5 19q40 0 63 -31t23 -77q0 -89 -40 -133t-104 -44q-46 0 -98 25v-10q107 -79 107 -246q0 -126 -85 -206.5t-231 -86.5 q-111 -4 -167 -38t-56 -79q0 -55 108 -55q36 0 106.5 3t106.5 3q185 0 292.5 -69t107.5 -199q0 -64 -34 -127.5t-94.5 -116t-154.5 -85.5t-203 -33q-216 0 -322 70t-106 175zM285 586q0 -118 50.5 -195.5t131.5 -77.5q84 0 131 68.5t47 185.5q0 120 -49 196.5t-135 76.5 q-78 0 -127 -69.5t-49 -184.5z" />
<glyph unicode="h" horiz-adv-x="1093" d="M72 0v31l86 22q30 7 41.5 21.5t11.5 44.5l4 1122q0 41 -10 58t-39 24l-94 25v20q6 1 36 8t38.5 9t34.5 9t38 10.5t34 10.5t37 12.5t33.5 13.5t34.5 17l19 -12q-16 -41 -20.5 -86.5t-4.5 -126.5l-4 -1114q0 -30 11.5 -44.5t41.5 -21.5l86 -22v-31h-415zM295 760h51 q43 18 240 119q23 10 32 10q147 0 226.5 -73t79.5 -212v-485q0 -30 11.5 -44.5t41.5 -21.5l86 -22v-31h-416v31l86 22q30 7 41.5 21.5t11.5 44.5v459q0 98 -54 150t-157 52q-98 0 -161.5 -65t-63.5 -158z" />
<glyph unicode="i" horiz-adv-x="534" d="M72 0v31l86 22q53 15 53 66v561q0 41 -10 58t-39 24l-88 24v21q72 17 101 24t83 25.5t96 40.5l19 -12q-16 -41 -20.5 -86.5t-4.5 -126.5v-553q0 -54 49 -66l86 -22v-31h-411zM162 1266q0 49 34.5 83.5t79.5 34.5q50 0 84.5 -34.5t34.5 -83.5q0 -45 -35 -80t-84 -35 q-44 0 -79 35.5t-35 79.5z" />
<glyph unicode="j" horiz-adv-x="528" d="M-82 -430q0 39 25 66.5t67 27.5q43 0 67.5 -21.5t24.5 -58.5q0 -6 -1 -13t-1 -9q0 -13 19 -13q35 0 60.5 47.5t25.5 122.5v961q0 41 -10 58t-39 24l-88 24v21q72 17 101 24t83 25.5t96 40.5l19 -12q-16 -41 -20.5 -86.5t-4.5 -126.5v-934q-24 0 -33 -23 q-96 -245 -270 -245q-58 0 -89.5 28.5t-31.5 71.5zM156 1266q0 49 34.5 83.5t79.5 34.5q50 0 84.5 -34.5t34.5 -83.5q0 -45 -35 -80t-84 -35q-44 0 -79 35.5t-35 79.5z" />
<glyph unicode="k" horiz-adv-x="1069" d="M72 1348v20q6 1 36 8t38.5 9t34.5 9t38 10.5t34 10.5t37 12.5t33.5 13.5t34.5 17l19 -12q-16 -41 -20.5 -86.5t-4.5 -126.5v-1114q0 -29 11.5 -44t42.5 -22l86 -22v-31h-416v31l86 22q30 7 41.5 21.5t11.5 44.5v1122q0 41 -10 58t-39 24zM279 315l428 461q11 10 7 25.5 t-22 19.5l-96 21v30h356v-30l-80 -19q-30 -7 -45 -15.5t-34 -27.5l-463 -495zM465 477l98 98l291 -448q41 -61 107 -78l67 -16v-33h-416v31l82 16q22 5 24.5 23.5t-7.5 31.5z" />
<glyph unicode="l" horiz-adv-x="555" d="M72 0v31l86 22q30 7 41.5 21.5t11.5 44.5l4 1122q0 41 -10 58t-39 24l-94 25v20q6 1 36 8t38.5 9t34.5 9t38 10.5t34 10.5t37 12.5t33.5 13.5t34.5 17l19 -12q-16 -41 -20.5 -86.5t-4.5 -126.5l-4 -1114q0 -30 11.5 -44.5t41.5 -21.5l86 -22v-31h-415z" />
<glyph unicode="m" horiz-adv-x="1615" d="M72 0v31l86 22q30 7 41.5 21.5t11.5 44.5v559q0 41 -10 58t-39 24l-88 24v21q170 36 268 90l18 -12q-24 -60 -24 -119v-21l12 -30v-594q0 -30 11.5 -44.5t41.5 -21.5l86 -22v-31h-415zM293 760h51q145 62 231 119q17 10 31 10q140 0 215.5 -73t75.5 -212v-485 q0 -30 11.5 -44.5t41.5 -21.5l86 -22v-31h-415v31l86 22q30 7 41.5 21.5t11.5 44.5v459q0 98 -51 150t-148 52q-92 0 -152.5 -65.5t-60.5 -157.5zM842 760h51q145 62 231 119q17 10 31 10q140 0 215.5 -73t75.5 -212v-485q0 -30 11.5 -44.5t41.5 -21.5l86 -22v-31h-416v31 l86 22q31 7 42.5 22t11.5 44v459q0 98 -51 150t-148 52q-92 0 -152.5 -65.5t-60.5 -157.5z" />
<glyph unicode="n" horiz-adv-x="1091" d="M72 0v31l86 22q30 7 41.5 21.5t11.5 44.5v559q0 41 -10 58t-39 24l-88 24v21q170 36 268 90l18 -12q-24 -60 -24 -119v-21l12 -30v-594q0 -30 11.5 -44.5t41.5 -21.5l86 -22v-31h-415zM293 760h51q43 18 240 119q23 10 32 10q147 0 226.5 -73t79.5 -212v-485 q0 -30 11.5 -44.5t41.5 -21.5l86 -22v-31h-416v31l86 22q30 7 41.5 21.5t11.5 44.5v459q0 98 -54 150t-157 52q-98 0 -161.5 -65t-63.5 -158z" />
<glyph unicode="o" horiz-adv-x="1040" d="M92 428q0 204 118.5 332.5t309.5 128.5t309.5 -126t118.5 -319q0 -203 -118 -331.5t-310 -128.5q-190 0 -309 126.5t-119 317.5zM248 451q0 -194 72.5 -306t201.5 -112q128 0 199.5 102t71.5 287q0 194 -73 306t-202 112q-128 0 -199 -100.5t-71 -288.5z" />
<glyph unicode="p" horiz-adv-x="1107" d="M51 -481l86 22q30 7 41.5 21.5t11.5 44.5v1073q0 41 -10 58t-39 24l-88 24v21q177 38 269 88l18 -12q-25 -59 -25 -113h4l193 96q41 23 76 23q106 0 189.5 -35.5t134.5 -96.5t77.5 -138t26.5 -164q0 -89 -27 -171.5t-79 -150.5t-137.5 -108.5t-192.5 -40.5 q-74 0 -142.5 19.5t-109.5 47.5v-444q0 -30 11.5 -44.5t41.5 -21.5l98 -22v-31h-428v31zM324 313q0 -114 78.5 -195t181.5 -81q96 0 163 51t96 128.5t29 172.5q0 78 -19.5 147.5t-57.5 125.5t-101.5 89t-144.5 33q-102 0 -163.5 -53t-61.5 -129v-289z" />
<glyph unicode="q" horiz-adv-x="1110" d="M92 418q0 89 27 171.5t79 150.5t137.5 108.5t192.5 40.5q76 0 152.5 -31.5t124.5 -79.5q55 46 96 121l19 -4v-1288q0 -30 11.5 -44.5t41.5 -21.5l86 -22v-31h-428v31l98 22q30 7 41.5 21.5t11.5 44.5v493l-184 -94q-50 -22 -76 -22q-106 0 -190 36t-135.5 97t-78 138 t-26.5 163zM236 483q0 -78 19.5 -147.5t58 -125.5t102.5 -89t145 -33q102 0 162.5 52.5t60.5 129.5v289q0 115 -78 196t-182 81q-72 0 -128.5 -29t-90.5 -79t-51.5 -112t-17.5 -133z" />
<glyph unicode="r" horiz-adv-x="714" d="M72 0v31l86 22q30 7 41.5 21.5t11.5 44.5v559q0 41 -10 58t-39 24l-88 24v21q170 36 268 90l18 -12q-24 -60 -24 -119v-21l12 -30v-594q0 -30 11.5 -44.5t41.5 -21.5l99 -22v-31h-428zM311 743l238 136q24 12 51 12q39 0 66.5 -25.5t27.5 -70.5q0 -39 -27.5 -67 t-72.5 -28q-41 0 -80 39q-29 33 -47 33q-13 0 -31 -10t-39 -30.5t-35 -61t-14 -92.5z" />
<glyph unicode="s" horiz-adv-x="743" d="M82 307h55q42 -276 264 -276q61 0 106.5 44t45.5 105q0 80 -42.5 122t-176.5 91q-118 46 -173 102t-55 150q0 98 81.5 171t207.5 73q38 0 70 -6.5t50.5 -13.5t53.5 -23h47v-46q0 -119 13 -196h-45q-20 113 -72 174.5t-129 61.5q-67 0 -110.5 -39t-43.5 -99q0 -75 37 -111 t166 -85q136 -51 188 -107.5t52 -152.5q0 -107 -78 -184.5t-221 -77.5q-79 0 -154.5 25t-128.5 57q4 48 4 92q0 80 -12 149z" />
<glyph unicode="t" horiz-adv-x="671" d="M51 815v41q121 29 172.5 92.5t59.5 188.5h45v-265h276l-20 -57h-256v-588q0 -145 98 -145q65 0 160 53l24 -33q-68 -56 -134 -87t-114 -31q-172 0 -172 225v606h-139z" />
<glyph unicode="u" horiz-adv-x="1077" d="M31 844v20q97 0 280 25l19 -12q-25 -63 -25 -119v-461q0 -98 54 -150.5t151 -52.5q89 0 148 64.5t59 156.5l55 -202h-51q-130 -56 -229 -117q-23 -10 -33 -10q-291 0 -291 284v457q0 39 -10.5 55t-38.5 27zM580 844v20q97 0 280 25l19 -12q-25 -63 -25 -119v-608 q0 -58 42 -82q35 -19 101 -20q14 0 29 1v-39q-40 -1 -80 -4.5t-102.5 -11.5t-79.5 -10l-16 8l-15 123l-16 47v565q0 39 -10.5 55t-38.5 27z" />
<glyph unicode="v" horiz-adv-x="964" d="M10 842v30h434v-30l-114 -27q-41 -10 -41 -33q0 -6 2 -12l252 -586h-23l248 598q5 12 -2 20t-35 15l-96 25v30h319v-30l-65 -17q-27 -6 -40.5 -16.5t-23.5 -34.5l-319 -799h-21l-348 801q-11 25 -22.5 35t-40.5 16z" />
<glyph unicode="w" horiz-adv-x="1458" d="M16 842v30h435v-30l-115 -27q-41 -10 -41 -33q0 -6 2 -12l221 -514l195 516q6 19 0 28.5t-31 16.5l-98 27v28h399v-28l-113 -29q-42 -10 -42 -33q0 -6 3 -14l224 -516l194 514q8 23 4 34t-24 15l-107 27v30h320v-30l-66 -17q-27 -6 -40 -16.5t-23 -34.5l-289 -794h-14 l-279 667l-246 -670h-14l-328 799q-11 25 -22.5 35t-40.5 16z" />
<glyph unicode="x" horiz-adv-x="1001" d="M20 0v31l97 22q38 8 65.5 27t59.5 61l219 287l-2 -55l-269 403q-23 38 -86 51l-63 15v30h436v-30l-82 -27q-43 -12 -43 -33q0 -6 4 -12l207 -305h-69l206 295q18 23 10.5 43t-28.5 22l-78 19v28h357v-28l-91 -23q-47 -11 -68.5 -24.5t-49.5 -53.5l-213 -303l14 54 l278 -398q24 -38 87 -51l63 -14v-31h-438v31l82 26q30 11 37.5 22t-3.5 30l-204 292l55 2l-221 -286q-13 -15 -17 -30.5t3 -26.5t24 -15l74 -14v-31h-353z" />
<glyph unicode="y" horiz-adv-x="946" d="M14 842v30h435v-30l-115 -27q-41 -10 -41 -33q0 -6 2 -12l262 -594h-47l240 606q5 12 -2 20t-35 15l-97 25v30h320v-30l-66 -17q-27 -6 -40 -16.5t-23 -34.5l-426 -1100q-17 -43 -32.5 -73t-41.5 -63t-63 -50.5t-84 -17.5q-45 0 -77 26.5t-32 69.5q0 49 30 78.5t75 29.5 q35 0 65 -26q30 -17 41 -17q36 0 51 45l150 379l-322 721q-11 25 -22.5 35t-40.5 16z" />
<glyph unicode="z" horiz-adv-x="829" d="M51 0v12l527 811h-179q-61 0 -111.5 -19t-80 -47t-49.5 -61t-28 -59.5t-7 -44.5h-45q28 88 28 186q0 58 -8 94h666v-6l-526 -815h217q109 0 182 63t102 171h39q-33 -120 -33 -273v-12h-694z" />
<glyph unicode="{" horiz-adv-x="731" d="M82 512v59q199 0 199 164q0 69 -38 237t-38 238q0 314 454 314v-51q-77 -2 -130 -12.5t-96 -37t-64 -75.5t-21 -123q0 -63 23 -252q16 -136 16 -189q0 -59 -14 -103.5t-39 -71t-48 -41t-53 -25.5v-2q63 -19 108.5 -75.5t45.5 -166.5q0 -49 -20 -209q-19 -181 -19 -231 q0 -73 21 -122t64.5 -75t95.5 -37t130 -14v-51q-47 0 -88 3t-88.5 11.5t-86 22.5t-75 38t-61.5 56t-40 78.5t-15 103.5q0 70 38 237.5t38 237.5q0 164 -199 164z" />
<glyph unicode="|" horiz-adv-x="534" d="M225 -512v1968h84v-1968h-84z" />
<glyph unicode="}" horiz-adv-x="731" d="M72 -389q79 3 131 14t95.5 37t64 74.5t20.5 122.5q0 60 -18 231q-21 168 -21 209q0 110 45.5 166.5t108.5 75.5v2q-30 11 -53 25.5t-48 41t-39 71t-14 103.5q0 53 16 189q23 189 23 252q0 74 -20.5 123t-63.5 75.5t-96 37t-131 12.5v51q454 0 454 -314q0 -70 -37.5 -238 t-37.5 -237q0 -164 198 -164v-59q-198 0 -198 -164q0 -70 37.5 -237.5t37.5 -237.5q0 -57 -15 -103.5t-40 -78.5t-61.5 -56t-75 -38t-86 -22.5t-88.5 -11.5t-88 -3v51z" />
<glyph unicode="~" d="M129 612q22 86 78 127t133 41q87 0 227 -51q141 -49 195 -49q47 0 76 20.5t45 73.5l69 -14q-19 -86 -76 -127t-135 -41q-87 0 -227 51q-133 49 -195 49q-47 0 -75 -20.5t-45 -73.5z" />
<glyph unicode="&#xa1;" horiz-adv-x="438" d="M102 897q0 47 35 81t80 34q49 0 84 -34t35 -81q0 -49 -35 -84t-84 -35q-45 0 -80 35t-35 84zM127 -348l63 940h56l65 -940h-184z" />
<glyph unicode="&#xa2;" horiz-adv-x="913" d="M92 416q0 103 37.5 193.5t98 150.5t137 94.5t155.5 34.5q149 0 233.5 -66t84.5 -164q0 -53 -30.5 -82.5t-70.5 -29.5t-71 25.5t-31 66.5q0 32 14 57q15 35 15 43q0 44 -44.5 70.5t-113.5 26.5q-51 0 -96.5 -19.5t-85 -60.5t-63 -115t-23.5 -172q0 -174 88 -270.5 t223 -96.5t268 109l25 -21q-71 -102 -165 -154t-181 -52q-177 0 -290.5 123.5t-113.5 308.5zM121 -143l561 1220l53 -22l-561 -1221z" />
<glyph unicode="&#xa3;" horiz-adv-x="1271" d="M41 -160q0 47 33 108t86.5 117.5t131.5 95t157 38.5q148 0 303 -187q63 -76 109 -105.5t93 -29.5q52 0 80.5 35.5t28.5 83.5q0 9 -1 17t-2 14t-4 13l-4.5 10.5t-5.5 10.5t-5.5 9t-6.5 9.5t-6 8.5q-2 2 -5.5 7.5t-5 8t-5 7t-5 8t-4 8t-3.5 9t-2.5 9.5t-2 10t-0.5 11 q0 37 20.5 61.5t57.5 24.5q43 0 65.5 -36.5t22.5 -100.5q0 -66 -27.5 -132.5t-87.5 -115.5t-139 -49q-101 0 -168.5 40t-144.5 134q-62 76 -110.5 115.5t-102.5 39.5q-46 0 -86.5 -25.5t-66 -62.5t-40.5 -66t-20 -48l-12 -2q44 94 75.5 183t45.5 142.5t32 137.5q3 18 16 88 t20 104.5t22 99t32 125.5q22 79 40.5 135t45.5 120t55.5 107.5t69 86t87.5 67.5t109 40.5t136 15.5q132 0 209.5 -59.5t77.5 -151.5q0 -47 -28 -73t-66 -26q-42 0 -70.5 26t-28.5 69q0 26 15 61q10 23 10 39q0 27 -37 43t-80 16q-121 0 -204.5 -115t-139.5 -352 q-66 -273 -154.5 -513.5t-189 -399t-180.5 -158.5q-35 0 -35 39zM74 573h766v-61h-764z" />
<glyph unicode="&#xa4;" horiz-adv-x="1136" d="M113 334l188 188l64 -51l-193 -192zM113 1130l55 60l190 -191l-55 -59zM193 735q0 155 103.5 260t272.5 105q170 0 272.5 -105t102.5 -260t-102.5 -259.5t-272.5 -104.5q-169 0 -272.5 104.5t-103.5 259.5zM315 735q0 -135 71 -216t183 -81q110 0 181 81t71 216 q0 137 -70.5 217t-181.5 80q-112 0 -183 -80t-71 -217zM776 999l189 191l59 -55l-184 -185zM778 467l58 59l188 -188l-55 -59z" />
<glyph unicode="&#xa5;" horiz-adv-x="1454" d="M10 1339v39h643v-35l-106 -16q-83 -12 -100.5 -42.5t28.5 -96.5l344 -467h-37l310 481q31 44 24 71.5t-59 39.5l-129 28v37h516v-37l-78 -12q-63 -8 -109.5 -35.5t-85.5 -89.5l-356 -547l-141 -32l-455 612q-32 44 -63.5 64.5t-83.5 27.5zM291 393v62h880v-62h-880z M291 666v61h880v-61h-880zM393 0v37l125 22q86 17 108.5 38t22.5 83v496l185 20v-516q0 -62 22.5 -83t108.5 -38l125 -22v-37h-697z" />
<glyph unicode="&#xa6;" horiz-adv-x="534" d="M225 -289v719h84v-719h-84zM225 696v719h84v-719h-84z" />
<glyph unicode="&#xa7;" horiz-adv-x="876" d="M92 559q0 113 83.5 195t213.5 82l-2 -52q-69 0 -117.5 -46t-48.5 -115q0 -46 14 -88.5t34.5 -75t55 -68t64.5 -61.5t74 -61q3 -2 5 -3.5t4.5 -3.5t4.5 -4q48 -37 77.5 -62t68 -64.5t60 -74t37 -81t15.5 -95.5q0 -56 -17.5 -106t-52.5 -92t-95.5 -66.5t-139.5 -24.5 q-159 0 -247.5 68t-88.5 162q0 49 25 77.5t67 28.5q47 0 74 -28t27 -66q0 -21 -13 -51q-12 -28 -12 -39q0 -41 54 -71.5t126 -30.5q82 0 129 51.5t47 128.5q0 43 -15.5 85t-36 73t-59 69t-66 60.5t-76.5 60.5q-9 8 -28 23q-117 94 -161 149q-84 100 -84 217zM152 1147 q0 116 80.5 196t209.5 80q138 0 212.5 -56t74.5 -134q0 -45 -27 -67.5t-63 -22.5q-42 0 -67 24t-25 58q0 23 12 51t12 39q0 26 -38 40.5t-101 14.5q-68 0 -113 -45t-45 -115q0 -35 8.5 -68t18.5 -58t34.5 -56t38.5 -47.5t50 -47.5t50 -42.5t56 -44.5q50 -40 76.5 -62.5 t66.5 -63.5t60 -74.5t35.5 -80t15.5 -96.5q0 -75 -30.5 -138.5t-99.5 -107t-165 -43.5l21 51q59 0 108.5 50t49.5 116q0 47 -15 91.5t-35 77t-58 71t-66 61.5t-76 60q-37 30 -49.5 40.5t-46 39t-47 44t-38.5 43.5t-36 49.5t-25 50.5t-19 59t-5 63z" />
<glyph unicode="&#xa8;" d="M233 1274q0 44 31.5 76t73.5 32q44 0 76 -32t32 -76q0 -42 -32 -73.5t-76 -31.5q-41 0 -73 32t-32 73zM641 1274q0 44 31 76t73 32q44 0 76.5 -32t32.5 -76q0 -42 -32.5 -73.5t-76.5 -31.5q-41 0 -72.5 32t-31.5 73z" />
<glyph unicode="&#xa9;" horiz-adv-x="1546" d="M72 680q0 136 50 264t138.5 228t222.5 160.5t291 60.5t289.5 -53.5t222 -144.5t139.5 -213t50 -259q0 -138 -49 -267t-136.5 -229t-222 -160.5t-293.5 -60.5q-165 0 -299.5 53.5t-221.5 146t-134 214t-47 260.5zM154 686q0 -186 82.5 -328.5t223.5 -217t318 -74.5 q128 0 242 49.5t196.5 135.5t130.5 206.5t48 257.5q0 173 -82 315.5t-224.5 223.5t-316.5 81q-171 0 -314.5 -92.5t-223.5 -241.5t-80 -315zM377 709q0 114 57 205.5t148 139.5t196 48q77 0 174 -33q56 -18 86 -18q6 0 13 1t15 2.5t13 2.5l2 -4q-13 -78 17 -195h-41 q-29 82 -99.5 138.5t-175.5 56.5q-117 0 -184.5 -92.5t-67.5 -247.5q0 -161 65 -252.5t187 -91.5q101 0 167.5 40t107.5 150h43q-2 -11 -10 -52t-11 -58t-6.5 -46t-3.5 -51h-10q-35 0 -123 -18q-117 -23 -154 -23q-179 0 -292 114.5t-113 283.5z" />
<glyph unicode="&#xaa;" horiz-adv-x="731" d="M72 981q0 27 4.5 39t17.5 16l287 107q41 17 55.5 34.5t14.5 49.5v28q0 70 -36.5 117t-105.5 47q-46 0 -76 -19.5t-30 -53.5q0 -4 2 -9t6 -12t6 -12q23 -32 23 -51q0 -27 -27 -51.5t-57 -24.5q-29 0 -52.5 22t-23.5 60q0 80 79.5 138t176.5 58q118 0 181 -66t63 -173v-295 q0 -35 8 -53.5t35 -18.5q31 0 67 12v-45q-29 -22 -73.5 -42.5t-71.5 -20.5q-88 0 -88 123v18l16 -22q-138 -119 -219 -119q-68 0 -125 68.5t-57 150.5zM203 965q0 -43 34 -79t70 -36q46 0 117 57q27 21 27 60v133q0 18 -13 8l-221 -90q-14 -8 -14 -53z" />
<glyph unicode="&#xab;" horiz-adv-x="747" d="M51 410v12l285 274l26 -18l-155 -260l153 -264l-26 -19zM365 410v12l284 274l27 -18l-156 -260l154 -264l-27 -19z" />
<glyph unicode="&#xac;" d="M86 801v78h852v-412h-78v334h-774z" />
<glyph unicode="&#xad;" horiz-adv-x="542" d="M41 522v123h461v-123h-461z" />
<glyph unicode="&#xae;" horiz-adv-x="1011" d="M41 920q0 91 33 176t92 151t147.5 106t192.5 40q208 0 336.5 -129t128.5 -316q0 -124 -54.5 -231t-162.5 -175.5t-248 -68.5q-108 0 -197.5 36t-147 97.5t-89 142t-31.5 171.5zM113 934q0 -78 26 -150t74 -130t125 -93t172 -35q168 0 281.5 119t113.5 299 q0 168 -115.5 282.5t-283.5 114.5q-93 0 -169 -35t-124 -92.5t-74 -130t-26 -149.5zM270 725v23l31 8q30 8 37.5 14.5t7.5 26.5v329q0 22 -7 27.5t-38 13.5l-31 9v22h197q102 0 156.5 -35t54.5 -96q0 -48 -39 -79.5t-102 -37.5v-2q43 0 77 -29.5t70 -82.5q23 -33 37 -51 t35.5 -35t40.5 -17v-10q-10 -6 -52 -6q-22 0 -41.5 7.5t-40.5 28t-30 31t-33 39.5q-3 3 -14 17.5t-14 18.5t-13 15.5t-15 15.5l-15 12t-17.5 11t-18.5 7.5t-22.5 6t-24.5 1.5h-14v-131q0 -20 8.5 -26.5t38.5 -14.5l31 -8v-23h-240zM432 963h35q49 0 81 29t32 73q0 50 -34 78 t-87 28h-27v-208z" />
<glyph unicode="&#xaf;" d="M236 1227v78h614v-78h-614z" />
<glyph unicode="&#xb0;" horiz-adv-x="706" d="M82 1124q0 110 80 190.5t190 80.5q112 0 192.5 -80t80.5 -191t-80.5 -191.5t-192.5 -80.5q-110 0 -190 81t-80 191zM160 1126q0 -78 56 -134t134 -56t134.5 56t56.5 134t-56.5 134.5t-134.5 56.5t-134 -56.5t-56 -134.5z" />
<glyph unicode="&#xb1;" d="M150 268v78h786v-78h-786zM150 748v77h354v281h78v-281h354v-77h-354v-283h-78v283h-354z" />
<glyph unicode="&#xb2;" horiz-adv-x="647" d="M72 715v12l168 154q149 137 149 336q0 73 -36.5 112t-88.5 39q-44 0 -71 -13t-27 -36q0 -10 12 -32t12 -40q0 -21 -16.5 -36t-44.5 -15q-21 0 -39 22t-18 50q0 64 65.5 100.5t161.5 36.5q103 0 175.5 -46.5t72.5 -135.5q0 -25 -6 -48.5t-13 -43t-24.5 -44t-29.5 -40 t-39.5 -43t-42.5 -42t-50 -47t-53 -49.5l-123 -116l24 90h248q35 0 48.5 10t27.5 45l12 35h29l-33 -215h-450z" />
<glyph unicode="&#xb3;" horiz-adv-x="661" d="M61 831q0 35 16.5 55.5t43.5 20.5q24 0 39.5 -15.5t15.5 -39.5q0 -20 -15.5 -39t-15.5 -25q0 -18 36 -31.5t81 -13.5q154 0 154 170q0 78 -30.5 118t-113.5 44q-5 -1 -73 -24l-17 28l49 21q66 29 101 72.5t35 93.5q0 54 -23.5 78t-77.5 24q-41 0 -68.5 -13.5t-27.5 -33.5 q0 -7 14.5 -24.5t14.5 -32.5q0 -23 -18 -39.5t-44 -16.5q-21 0 -37 21t-16 51q0 55 61 90t146 35q97 0 156 -33.5t59 -97.5q0 -50 -40.5 -90t-113.5 -60v-6q99 -6 158 -57.5t59 -120.5q0 -109 -92.5 -171t-224.5 -62q-80 0 -135.5 35t-55.5 89z" />
<glyph unicode="&#xb4;" d="M354 1145l252 319q21 27 53 27q29 0 49.5 -20.5t20.5 -49.5q0 -10 -2 -18.5t-7 -15.5t-8.5 -11t-10.5 -10t-9 -8l-301 -246z" />
<glyph unicode="&#xb5;" horiz-adv-x="1077" d="M31 844v20q97 0 280 25l19 -12q-25 -63 -25 -119v-461q0 -98 54 -150.5t151 -52.5q93 0 150 68.5t57 163.5l55 -213h-51q-130 -56 -229 -117q-23 -10 -33 -10q-105 0 -176 41l28 -523l-145 -36l2 1259q0 39 -10.5 55t-38.5 27zM580 844v20q97 0 280 25l19 -12 q-25 -63 -25 -119v-608q0 -59 42.5 -82.5t129.5 -18.5v-39q-40 -1 -80 -4.5t-102.5 -11.5t-79.5 -10l-16 8l-15 123l-16 47v565q0 39 -10.5 55t-38.5 27z" />
<glyph unicode="&#xb6;" horiz-adv-x="1312" d="M102 -53q0 130 77 215.5t200 85.5q67 0 106 -38t39 -87q0 -44 -26 -79.5t-76 -35.5q-42 0 -71 28.5t-29 82.5v4q0 18 -23 18q-36 0 -76.5 -52t-40.5 -142q0 -145 101.5 -246.5t246.5 -101.5q351 0 351 458v424h-232q-135 0 -250 60.5t-182 164t-67 224.5q0 202 139 325 t407 123h525v-30l-125 -23q-85 -14 -108 -34.5t-23 -86.5v-1149q0 -136 -33 -238.5t-93 -164t-137 -91.5t-170 -30q-177 0 -303.5 123t-126.5 293z" />
<glyph unicode="&#xb7;" horiz-adv-x="542" d="M139 731q0 55 38.5 94t90.5 39q56 0 94.5 -39t38.5 -94q0 -52 -39 -90.5t-94 -38.5q-51 0 -90 39t-39 90z" />
<glyph unicode="&#xb8;" d="M342 -453q268 15 268 136t-209 124l56 193h65l-22 -86q245 -28 245 -164q0 -65 -33 -114t-91 -78t-127 -44.5t-152 -19.5v53z" />
<glyph unicode="&#xb9;" horiz-adv-x="557" d="M72 715v30l49 9q74 12 85 21t11 56v494q0 25 -29 25l-100 -4v30l262 39v-584q0 -47 11.5 -56t84.5 -21l50 -9v-30h-424z" />
<glyph unicode="&#xba;" horiz-adv-x="768" d="M41 1106q0 159 94.5 258.5t247.5 99.5t248.5 -98t95.5 -248q0 -157 -95 -256.5t-249 -99.5q-152 0 -247 98t-95 246zM182 1124q0 -142 53.5 -224.5t149.5 -82.5q97 0 149 74t52 211q0 142 -53.5 223.5t-149.5 81.5q-95 0 -148 -74t-53 -209z" />
<glyph unicode="&#xbb;" horiz-adv-x="747" d="M72 154l155 260l-153 264l26 18l283 -274v-12l-285 -275zM383 678l27 18l284 -274v-12l-282 -275l-27 19l154 264z" />
<glyph unicode="&#xbc;" horiz-adv-x="1169" d="M72 715v30l49 9q74 12 85 21t11 56v494q0 25 -29 25l-100 -4v30l262 39v-584q0 -47 11.5 -56t84.5 -21l50 -9v-30h-424zM133 0l871 1399h94l-869 -1399h-96zM500 129v18l430 553h33v-700h-123v524l53 43l-262 -344l-23 15h377q22 0 28.5 5t14.5 25l14 37h25l-25 -176 h-542z" />
<glyph unicode="&#xbd;" horiz-adv-x="1273" d="M72 715v30l49 9q74 12 85 21t11 56v494q0 25 -29 25l-100 -4v30l262 39v-584q0 -47 11.5 -56t84.5 -21l50 -9v-30h-424zM133 0l871 1399h94l-869 -1399h-96zM698 0v12l168 154q150 138 150 336q0 73 -36.5 112t-88.5 39q-44 0 -71 -13t-27 -36q0 -10 12 -32t12 -40 q0 -21 -16.5 -36t-44.5 -15q-21 0 -39.5 22t-18.5 50q0 64 65.5 100.5t162.5 36.5q103 0 175.5 -46.5t72.5 -135.5q0 -28 -5.5 -53.5t-21 -52t-28 -45.5t-42 -49.5t-45.5 -46.5t-57.5 -54t-59.5 -55l-122 -117l24 90h248q35 0 48.5 10t27.5 45l12 35h29l-33 -215h-451z" />
<glyph unicode="&#xbe;" horiz-adv-x="1210" d="M61 831q0 35 16.5 55.5t43.5 20.5q24 0 39.5 -15.5t15.5 -39.5q0 -20 -15.5 -39t-15.5 -25q0 -18 36 -31.5t81 -13.5q154 0 154 170q0 78 -30.5 118t-113.5 44q-5 -1 -73 -24l-17 28l49 21q66 29 101 72.5t35 93.5q0 54 -23.5 78t-77.5 24q-41 0 -68.5 -13.5t-27.5 -33.5 q0 -7 14.5 -24.5t14.5 -32.5q0 -23 -18 -39.5t-44 -16.5q-21 0 -37 21t-16 51q0 55 61 90t146 35q97 0 156 -33.5t59 -97.5q0 -50 -40.5 -90t-113.5 -60v-6q99 -6 158 -57.5t59 -120.5q0 -109 -92.5 -171t-224.5 -62q-80 0 -135.5 35t-55.5 89zM154 0l870 1399h94 l-868 -1399h-96zM520 129v18l430 553h33v-700h-123v524l53 43l-262 -344l-22 15h377q22 0 28.5 5t14.5 25l14 37h24l-24 -176h-543z" />
<glyph unicode="&#xbf;" horiz-adv-x="745" d="M92 84q0 149 54 231t190 101q105 14 139.5 52t34.5 118h55q0 -96 -10 -154t-38.5 -97.5t-72.5 -58.5t-120 -32q-108 -18 -140 -50t-32 -108q0 -67 27.5 -99t92.5 -44l344 -66v-262h-36l-9 53q-6 40 -22.5 59t-48.5 25l-197 35q-112 20 -161.5 90t-49.5 207zM420 891 q0 47 35 81t84 34q47 0 80.5 -34t33.5 -81q0 -49 -33.5 -84t-80.5 -35q-49 0 -84 35t-35 84z" />
<glyph unicode="&#xc0;" horiz-adv-x="1562" d="M10 0v37l96 16q68 12 105.5 39.5t58.5 79.5l416 1016l-43 112q58 3 93.5 47t35.5 83h19l499 -1211q35 -86 74 -119.5t106 -46.5l82 -16v-37h-673v37l110 18q65 10 90 24.5t25 39.5q0 15 -27 90l-375 946h48l-408 -987q-14 -32 -14 -51q0 -44 75 -56l134 -24v-37h-527z M451 535h600v-66h-586zM545 1681q-8 27 4 54t37 34q33 9 59 -6l346 -215l-22 -43l-367 129q-34 11 -47 28q-6 8 -10 19z" />
<glyph unicode="&#xc1;" horiz-adv-x="1562" d="M10 0v37l96 16q68 12 105.5 39.5t58.5 79.5l416 1016l-43 112q58 3 93.5 47t35.5 83h19l499 -1211q35 -86 74 -119.5t106 -46.5l82 -16v-37h-673v37l110 18q65 10 90 24.5t25 39.5q0 15 -27 90l-375 946h48l-408 -987q-14 -32 -14 -51q0 -44 75 -56l134 -24v-37h-527z M451 535h600v-66h-586zM565 1548l346 215q27 15 60 6q28 -7 40 -34t1 -54q-2 -7 -5 -13t-8 -10.5t-8 -7.5t-10 -6t-9 -4t-10 -4l-8 -2l-366 -129z" />
<glyph unicode="&#xc2;" horiz-adv-x="1562" d="M10 0v37l96 16q68 12 105.5 39.5t58.5 79.5l416 1016l-43 112q58 3 93.5 47t35.5 83h19l499 -1211q35 -86 74 -119.5t106 -46.5l82 -16v-37h-673v37l110 18q65 10 90 24.5t25 39.5q0 15 -27 90l-375 946h48l-408 -987q-14 -32 -14 -51q0 -44 75 -56l134 -24v-37h-527z M451 535h600v-66h-586zM487 1511l269 250h20l268 -250l-18 -28l-262 123l-258 -123z" />
<glyph unicode="&#xc3;" horiz-adv-x="1562" d="M10 0v37l96 16q68 12 105.5 39.5t58.5 79.5l416 1016l-43 112q58 3 93.5 47t35.5 83h19l499 -1211q35 -86 74 -119.5t106 -46.5l82 -16v-37h-673v37l110 18q65 10 90 24.5t25 39.5q0 15 -27 90l-375 946h48l-408 -987q-14 -32 -14 -51q0 -44 75 -56l134 -24v-37h-527z M162 1470v29h20q68 0 104.5 9.5t50.5 23t36 47.5q65 107 156 166t239 59q144 0 237 -60t156 -163q18 -28 26 -38.5t29 -23.5t52 -16.5t84 -3.5h20v-29h-248q-3 104 -100.5 172t-255.5 68q-159 0 -257 -68t-101 -172h-248zM451 535h600v-66h-586z" />
<glyph unicode="&#xc4;" horiz-adv-x="1562" d="M10 0v37l96 16q68 12 105.5 39.5t58.5 79.5l416 1016l-43 112q58 3 93.5 47t35.5 83h19l499 -1211q35 -86 74 -119.5t106 -46.5l82 -16v-37h-673v37l110 18q65 10 90 24.5t25 39.5q0 15 -27 90l-375 946h48l-408 -987q-14 -32 -14 -51q0 -44 75 -56l134 -24v-37h-527z M451 535h600v-66h-586zM457 1634q0 44 31.5 76.5t72.5 32.5q44 0 76.5 -32.5t32.5 -76.5q0 -41 -32.5 -72.5t-76.5 -31.5q-41 0 -72.5 31.5t-31.5 72.5zM864 1634q0 44 31.5 76.5t73.5 32.5q44 0 76 -32.5t32 -76.5q0 -42 -32 -73t-76 -31q-41 0 -73 31.5t-32 72.5z" />
<glyph unicode="&#xc5;" horiz-adv-x="1562" d="M10 0v37l96 16q68 12 105.5 39.5t58.5 79.5l416 1016l-43 112q58 3 93.5 47t35.5 83h19l499 -1211q35 -86 74 -119.5t106 -46.5l82 -16v-37h-673v37l110 18q65 10 90 24.5t25 39.5q0 15 -27 90l-375 946h48l-408 -987q-14 -32 -14 -51q0 -44 75 -56l134 -24v-37h-527z M451 535h600v-66h-586zM580 1589q0 77 55 132t131 55q78 0 132 -54.5t54 -132.5q0 -76 -54.5 -131t-131.5 -55q-75 0 -130.5 55.5t-55.5 130.5zM655 1589q0 -44 34 -77t79 -33q46 0 77.5 32.5t31.5 77.5q0 47 -31 79t-78 32q-45 0 -79 -32.5t-34 -78.5z" />
<glyph unicode="&#xc6;" horiz-adv-x="2086" d="M10 0v37l72 12q127 22 199 127l772 1084l10 -93l-709 -999q-65 -81 54 -107l129 -24v-37h-527zM553 469v63h520v-63h-520zM766 0v37l125 22q86 17 108.5 38t22.5 83v1018q0 66 -23 86.5t-108 34.5l-125 22v37h1165q-12 -59 -12 -114q0 -45 6 -91.5t15.5 -94t11.5 -62.5 h-41q-20 60 -39 102.5t-48 85t-63.5 68t-84 41.5t-111.5 16h-357v-573h326q101 0 139 34t56 125l18 97h37v-570h-37l-18 97q-18 91 -56 125t-139 34h-326v-514q0 -77 31.5 -105t128.5 -28h188q117 0 216.5 66t140.5 147l53 105h39q-49 -176 -53 -369h-1186z" />
<glyph unicode="&#xc7;" horiz-adv-x="1505" d="M92 690q0 154 59.5 287.5t158.5 224t229.5 142t271.5 51.5q155 0 315 -54q7 -2 32 -10t33.5 -10.5t27 -7.5t32.5 -6.5t29 -1.5q17 0 41 4.5t35 5.5l4 -4q-23 -149 26 -353h-40q-26 67 -73 132.5t-113 123.5t-155 93.5t-186 35.5q-105 0 -201.5 -48.5t-168 -132.5 t-114 -206.5t-42.5 -261.5q0 -188 68.5 -341t189.5 -240.5t270 -87.5q34 0 71 5t89 18.5t102 42.5t100 70t94.5 108t74.5 151h41q-54 -262 -54 -369h-20q-48 0 -223 -35q-210 -41 -277 -41q-210 0 -377.5 95.5t-258.5 258.5t-91 361zM621 -446q268 15 268 135 q0 122 -209 125l55 192h66l-23 -86q246 -28 246 -164q0 -65 -33 -114t-91 -78t-127 -44.5t-152 -19.5v54z" />
<glyph unicode="&#xc8;" horiz-adv-x="1402" d="M82 0v37l125 22q86 17 108.5 38t22.5 83v1018q0 66 -23 86.5t-108 34.5l-125 22v37h1165q-12 -59 -12 -114q0 -45 6 -91.5t15.5 -94t11.5 -62.5h-41q-20 60 -39 102.5t-48 85t-63.5 68t-84 41.5t-111.5 16h-357v-573h326q101 0 138.5 34t55.5 125l19 97h37v-570h-37 l-19 97q-18 91 -55.5 125t-138.5 34h-326v-514q0 -77 31.5 -105t128.5 -28h188q117 0 216.5 66t140.5 147l53 105h39q-49 -176 -53 -369h-1186zM532 1681q-8 27 4 54t37 34q33 9 60 -6l346 -215l-23 -43l-366 129q-1 0 -5.5 1.5l-6 2t-6 2.5t-6.5 3t-6.5 3.5t-6.5 4.5 l-5.5 5.5t-6 7t-5 8t-4.5 9.5z" />
<glyph unicode="&#xc9;" horiz-adv-x="1402" d="M82 0v37l125 22q86 17 108.5 38t22.5 83v1018q0 66 -23 86.5t-108 34.5l-125 22v37h1165q-12 -59 -12 -114q0 -45 6 -91.5t15.5 -94t11.5 -62.5h-41q-20 60 -39 102.5t-48 85t-63.5 68t-84 41.5t-111.5 16h-357v-573h326q101 0 138.5 34t55.5 125l19 97h37v-570h-37 l-19 97q-18 91 -55.5 125t-138.5 34h-326v-514q0 -77 31.5 -105t128.5 -28h188q117 0 216.5 66t140.5 147l53 105h39q-49 -176 -53 -369h-1186zM553 1548l346 215q26 15 59 6q28 -7 40 -34t1 -54q-2 -6 -5 -11.5t-5.5 -9.5t-7.5 -7.5t-7.5 -5.5t-8.5 -4.5t-8 -3.5t-8 -3 t-7 -2l-367 -129z" />
<glyph unicode="&#xca;" horiz-adv-x="1402" d="M82 0v37l125 22q86 17 108.5 38t22.5 83v1018q0 66 -23 86.5t-108 34.5l-125 22v37h1165q-12 -59 -12 -114q0 -45 6 -91.5t15.5 -94t11.5 -62.5h-41q-20 60 -39 102.5t-48 85t-63.5 68t-84 41.5t-111.5 16h-357v-573h326q101 0 138.5 34t55.5 125l19 97h37v-570h-37 l-19 97q-18 91 -55.5 125t-138.5 34h-326v-514q0 -77 31.5 -105t128.5 -28h188q117 0 216.5 66t140.5 147l53 105h39q-49 -176 -53 -369h-1186zM475 1511l268 250h21l268 -250l-18 -28l-262 123l-258 -123z" />
<glyph unicode="&#xcb;" horiz-adv-x="1402" d="M82 0v37l125 22q86 17 108.5 38t22.5 83v1018q0 66 -23 86.5t-108 34.5l-125 22v37h1165q-12 -59 -12 -114q0 -45 6 -91.5t15.5 -94t11.5 -62.5h-41q-20 60 -39 102.5t-48 85t-63.5 68t-84 41.5t-111.5 16h-357v-573h326q101 0 138.5 34t55.5 125l19 97h37v-570h-37 l-19 97q-18 91 -55.5 125t-138.5 34h-326v-514q0 -77 31.5 -105t128.5 -28h188q117 0 216.5 66t140.5 147l53 105h39q-49 -176 -53 -369h-1186zM444 1634q0 44 31.5 76.5t73.5 32.5q44 0 76 -32.5t32 -76.5q0 -42 -32 -73t-76 -31q-41 0 -73 31.5t-32 72.5zM852 1634 q0 44 31.5 76.5t72.5 32.5q44 0 76.5 -32.5t32.5 -76.5q0 -41 -32.5 -72.5t-76.5 -31.5q-41 0 -72.5 31.5t-31.5 72.5z" />
<glyph unicode="&#xcc;" horiz-adv-x="860" d="M82 0v37l125 22q86 17 108.5 38t22.5 83v1018q0 66 -23 86.5t-108 34.5l-125 22v37h696v-37l-125 -22q-85 -14 -108 -34.5t-23 -86.5v-1018q0 -62 22.5 -83t108.5 -38l125 -22v-37h-696zM209 1681q-8 27 4 54t37 34q33 9 59 -6l346 -215l-22 -43l-367 129q-34 11 -47 28 q-6 8 -10 19z" />
<glyph unicode="&#xcd;" horiz-adv-x="860" d="M82 0v37l125 22q86 17 108.5 38t22.5 83v1018q0 66 -23 86.5t-108 34.5l-125 22v37h696v-37l-125 -22q-85 -14 -108 -34.5t-23 -86.5v-1018q0 -62 22.5 -83t108.5 -38l125 -22v-37h-696zM229 1548l346 215q27 15 60 6q28 -7 40 -34t1 -54q-2 -7 -5 -13t-8 -10.5t-8 -7.5 t-10 -6t-9 -4t-10 -4l-8 -2l-366 -129z" />
<glyph unicode="&#xce;" horiz-adv-x="860" d="M82 0v37l125 22q86 17 108.5 38t22.5 83v1018q0 66 -23 86.5t-108 34.5l-125 22v37h696v-37l-125 -22q-85 -14 -108 -34.5t-23 -86.5v-1018q0 -62 22.5 -83t108.5 -38l125 -22v-37h-696zM152 1511l268 250h20l269 -250l-19 -28l-262 123l-258 -123z" />
<glyph unicode="&#xcf;" horiz-adv-x="860" d="M82 0v37l125 22q86 17 108.5 38t22.5 83v1018q0 66 -23 86.5t-108 34.5l-125 22v37h696v-37l-125 -22q-85 -14 -108 -34.5t-23 -86.5v-1018q0 -62 22.5 -83t108.5 -38l125 -22v-37h-696zM121 1634q0 44 31.5 76.5t72.5 32.5q44 0 76.5 -32.5t32.5 -76.5 q0 -41 -32.5 -72.5t-76.5 -31.5q-41 0 -72.5 31.5t-31.5 72.5zM528 1634q0 44 31.5 76.5t73.5 32.5q44 0 76 -32.5t32 -76.5q0 -42 -32 -73t-76 -31q-41 0 -73 31.5t-32 72.5z" />
<glyph unicode="&#xd0;" horiz-adv-x="1648" d="M82 0v37l125 22q86 17 108.5 38t22.5 83v1018q0 66 -23 86.5t-108 34.5l-125 22v37h657q150 0 281.5 -37t228.5 -102.5t167 -152.5t105 -189t35 -211q0 -212 -108.5 -369t-294.5 -237t-424 -80h-647zM82 657v72h702v-72h-702zM522 160q0 -58 43.5 -84t163.5 -27 q131 0 244 42t198 120.5t134 201t49 273.5q0 312 -174 477.5t-490 165.5h-168v-1169z" />
<glyph unicode="&#xd1;" horiz-adv-x="1753" d="M82 1343v35h350l957 -1065l-3 871q0 68 -24.5 95t-106.5 40l-125 22v37h572v-37l-125 -22q-83 -13 -107 -37.5t-24 -91.5v-1223h-21l-1026 1172v-944q0 -65 24.5 -92t106.5 -44l125 -22v-37h-571v37l125 22q84 17 107.5 41t23.5 88v996q0 27 -1 41.5t-6.5 30.5t-15 23.5 t-28.5 16.5t-44.5 15t-66.5 14zM303 1470v29h21q68 0 104 9.5t50 23t36 47.5q65 107 156 166t239 59q258 0 394 -223q18 -29 26 -39t28.5 -23t51.5 -16.5t84 -3.5h20v-29h-247q-3 104 -101 172t-256 68q-159 0 -257 -68t-101 -172h-248z" />
<glyph unicode="&#xd2;" horiz-adv-x="1646" d="M92 670q0 206 94 373t261 261.5t374 94.5q208 0 377 -95t262.5 -255.5t93.5 -352.5q0 -153 -55 -286.5t-151.5 -229t-233 -150.5t-293.5 -55q-154 0 -290.5 55.5t-232 149t-151 221.5t-55.5 269zM297 670q0 -173 67 -319t188 -233t269 -87q152 0 273.5 87t188.5 238 t67 338q0 177 -67 324t-189 234t-273 87q-149 0 -269 -86.5t-187.5 -239.5t-67.5 -343zM600 1681q-8 27 4 54t37 34q33 9 59 -6l347 -215l-23 -43l-367 129q-34 11 -47 28q-6 8 -10 19z" />
<glyph unicode="&#xd3;" horiz-adv-x="1646" d="M92 670q0 206 94 373t261 261.5t374 94.5q208 0 377 -95t262.5 -255.5t93.5 -352.5q0 -153 -55 -286.5t-151.5 -229t-233 -150.5t-293.5 -55q-154 0 -290.5 55.5t-232 149t-151 221.5t-55.5 269zM297 670q0 -173 67 -319t188 -233t269 -87q152 0 273.5 87t188.5 238 t67 338q0 177 -67 324t-189 234t-273 87q-149 0 -269 -86.5t-187.5 -239.5t-67.5 -343zM621 1548l346 215q26 15 59 6q28 -7 40 -34t1 -54q-2 -6 -5 -11.5t-5.5 -9.5t-7.5 -7.5t-7.5 -5.5t-8.5 -4.5t-8 -3.5t-8 -3t-7 -2l-367 -129z" />
<glyph unicode="&#xd4;" horiz-adv-x="1646" d="M92 670q0 206 94 373t261 261.5t374 94.5q208 0 377 -95t262.5 -255.5t93.5 -352.5q0 -153 -55 -286.5t-151.5 -229t-233 -150.5t-293.5 -55q-154 0 -290.5 55.5t-232 149t-151 221.5t-55.5 269zM297 670q0 -173 67 -319t188 -233t269 -87q152 0 273.5 87t188.5 238 t67 338q0 177 -67 324t-189 234t-273 87q-149 0 -269 -86.5t-187.5 -239.5t-67.5 -343zM543 1511l268 250h20l269 -250l-19 -28l-262 123l-258 -123z" />
<glyph unicode="&#xd5;" horiz-adv-x="1646" d="M92 670q0 206 94 373t261 261.5t374 94.5q208 0 377 -95t262.5 -255.5t93.5 -352.5q0 -153 -55 -286.5t-151.5 -229t-233 -150.5t-293.5 -55q-154 0 -290.5 55.5t-232 149t-151 221.5t-55.5 269zM217 1470v29h21q68 0 104 9.5t50 23t36 47.5q65 107 156 166t239 59 q258 0 394 -223q18 -29 26 -39t28.5 -23t51.5 -16.5t84 -3.5h20v-29h-247q-3 104 -101 172t-256 68q-159 0 -257 -68t-101 -172h-248zM297 670q0 -173 67 -319t188 -233t269 -87q152 0 273.5 87t188.5 238t67 338q0 177 -67 324t-189 234t-273 87q-149 0 -269 -86.5 t-187.5 -239.5t-67.5 -343z" />
<glyph unicode="&#xd6;" horiz-adv-x="1646" d="M92 670q0 206 94 373t261 261.5t374 94.5q208 0 377 -95t262.5 -255.5t93.5 -352.5q0 -153 -55 -286.5t-151.5 -229t-233 -150.5t-293.5 -55q-154 0 -290.5 55.5t-232 149t-151 221.5t-55.5 269zM297 670q0 -173 67 -319t188 -233t269 -87q152 0 273.5 87t188.5 238 t67 338q0 177 -67 324t-189 234t-273 87q-149 0 -269 -86.5t-187.5 -239.5t-67.5 -343zM512 1634q0 44 31.5 76.5t72.5 32.5q44 0 76.5 -32.5t32.5 -76.5q0 -41 -32.5 -72.5t-76.5 -31.5q-41 0 -72.5 31.5t-31.5 72.5zM920 1634q0 44 31.5 76.5t72.5 32.5q44 0 76.5 -32.5 t32.5 -76.5q0 -41 -32.5 -72.5t-76.5 -31.5q-41 0 -72.5 31.5t-31.5 72.5z" />
<glyph unicode="&#xd7;" d="M221 418l266 268l-266 264l55 56l267 -265l266 265l55 -56l-266 -264l264 -268l-55 -56l-264 269l-267 -269z" />
<glyph unicode="&#xd8;" horiz-adv-x="1646" d="M90 23l1407 1372l55 -56l-1407 -1372zM92 670q0 206 94 373t261 261.5t374 94.5q208 0 377 -95t262.5 -255.5t93.5 -352.5q0 -153 -55 -286.5t-151.5 -229t-233 -150.5t-293.5 -55q-154 0 -290.5 55.5t-232 149t-151 221.5t-55.5 269zM297 670q0 -173 67 -319t188 -233 t269 -87q152 0 273.5 87t188.5 238t67 338q0 177 -67 324t-189 234t-273 87q-149 0 -269 -86.5t-187.5 -239.5t-67.5 -343z" />
<glyph unicode="&#xd9;" horiz-adv-x="1622" d="M51 1341v37h697v-37l-125 -22q-85 -14 -108 -34.5t-23 -86.5v-723q0 -189 102 -294t276 -105q185 0 285 107.5t100 299.5v701q0 68 -24.5 95t-106.5 40l-125 22v37h572v-37l-125 -22q-83 -13 -107 -37.5t-24 -91.5v-965q-13 0 -26.5 -4t-22.5 -8.5t-23.5 -17t-21 -18.5 t-24 -24t-23.5 -24q-30 -32 -58 -54.5t-71.5 -47.5t-102.5 -38.5t-131 -13.5q-219 0 -361.5 135t-142.5 363v725q0 66 -23 86.5t-108 34.5zM649 1681q-8 27 4 54t37 34q33 9 60 -6l346 -215l-23 -43l-366 129q-1 0 -5.5 1.5l-6 2t-6 2.5t-6.5 3t-6.5 3.5t-6.5 4.5l-5.5 5.5 t-6 7t-5 8t-4.5 9.5z" />
<glyph unicode="&#xda;" horiz-adv-x="1622" d="M51 1341v37h697v-37l-125 -22q-85 -14 -108 -34.5t-23 -86.5v-723q0 -189 102 -294t276 -105q185 0 285 107.5t100 299.5v701q0 68 -24.5 95t-106.5 40l-125 22v37h572v-37l-125 -22q-83 -13 -107 -37.5t-24 -91.5v-965q-13 0 -26.5 -4t-22.5 -8.5t-23.5 -17t-21 -18.5 t-24 -24t-23.5 -24q-30 -32 -58 -54.5t-71.5 -47.5t-102.5 -38.5t-131 -13.5q-219 0 -361.5 135t-142.5 363v725q0 66 -23 86.5t-108 34.5zM670 1548l346 215q26 15 59 6q28 -7 40 -34t1 -54q-2 -6 -5 -11.5t-5.5 -9.5t-7.5 -7.5t-7.5 -5.5t-8.5 -4.5t-8 -3.5t-8 -3t-7 -2 l-367 -129z" />
<glyph unicode="&#xdb;" horiz-adv-x="1622" d="M51 1341v37h697v-37l-125 -22q-85 -14 -108 -34.5t-23 -86.5v-723q0 -189 102 -294t276 -105q185 0 285 107.5t100 299.5v701q0 68 -24.5 95t-106.5 40l-125 22v37h572v-37l-125 -22q-83 -13 -107 -37.5t-24 -91.5v-965q-13 0 -26.5 -4t-22.5 -8.5t-23.5 -17t-21 -18.5 t-24 -24t-23.5 -24q-30 -32 -58 -54.5t-71.5 -47.5t-102.5 -38.5t-131 -13.5q-219 0 -361.5 135t-142.5 363v725q0 66 -23 86.5t-108 34.5zM592 1511l268 250h21l268 -250l-19 -28l-262 123l-258 -123z" />
<glyph unicode="&#xdc;" horiz-adv-x="1622" d="M51 1341v37h697v-37l-125 -22q-85 -14 -108 -34.5t-23 -86.5v-723q0 -189 102 -294t276 -105q185 0 285 107.5t100 299.5v701q0 68 -24.5 95t-106.5 40l-125 22v37h572v-37l-125 -22q-83 -13 -107 -37.5t-24 -91.5v-965q-13 0 -26.5 -4t-22.5 -8.5t-23.5 -17t-21 -18.5 t-24 -24t-23.5 -24q-30 -32 -58 -54.5t-71.5 -47.5t-102.5 -38.5t-131 -13.5q-219 0 -361.5 135t-142.5 363v725q0 66 -23 86.5t-108 34.5zM561 1634q0 44 31.5 76.5t73.5 32.5q44 0 76 -32.5t32 -76.5q0 -42 -32 -73t-76 -31q-41 0 -73 31.5t-32 72.5zM969 1634 q0 44 31.5 76.5t72.5 32.5q44 0 76.5 -32.5t32.5 -76.5q0 -41 -32.5 -72.5t-76.5 -31.5q-41 0 -72.5 31.5t-31.5 72.5z" />
<glyph unicode="&#xdd;" horiz-adv-x="1454" d="M10 1339v39h643v-35l-106 -16q-83 -12 -100.5 -42.5t28.5 -96.5l344 -467h-37l310 481q31 44 24 71.5t-59 39.5l-129 28v37h516v-37l-78 -12q-63 -8 -109.5 -35.5t-85.5 -89.5l-356 -547l-141 -32l-455 612q-32 44 -63.5 64.5t-83.5 27.5zM393 0v37l125 22 q86 17 108.5 38t22.5 83v496l185 20v-516q0 -62 22.5 -83t108.5 -38l125 -22v-37h-697zM575 1548l347 215q26 15 59 6q28 -7 40 -34t1 -54q-2 -6 -5 -11.5t-5.5 -9.5t-7.5 -7.5t-7.5 -5.5t-8.5 -4.5t-8 -3.5t-8 -3t-7 -2l-367 -129z" />
<glyph unicode="&#xde;" horiz-adv-x="1349" d="M82 0v37l125 22q86 17 108.5 38t22.5 83v1018q0 66 -23 86.5t-108 34.5l-125 22v37h696v-37l-125 -22q-85 -14 -108 -34.5t-23 -86.5v-86h209q250 0 403.5 -105.5t153.5 -277.5q0 -64 -21 -119.5t-56.5 -96t-82.5 -72.5t-99.5 -50.5t-107 -28t-106 -7.5t-94.5 14l2 14 q75 5 136 25t111.5 59t78.5 105.5t28 156.5q0 334 -379 334h-176v-883q0 -62 22.5 -83t108.5 -38l125 -22v-37h-696z" />
<glyph unicode="&#xdf;" horiz-adv-x="1167" d="M72 0v31l86 22q30 7 41.5 21.5t11.5 44.5v696h-137v57h137v148q0 187 111.5 311.5t291.5 124.5q91 0 162.5 -23t113 -61.5t62.5 -83.5t21 -94q0 -39 -12.5 -73t-38.5 -64t-47 -49t-58 -47q-44 -37 -67 -59.5t-44.5 -62t-21.5 -81.5q0 -41 14 -73t49 -60.5t56.5 -41.5 t74.5 -40l3 -1.5t2.5 -1.5t3 -1.5t2.5 -1.5q43 -21 70 -36.5t62 -42.5t55.5 -54.5t35 -68.5t14.5 -89q0 -107 -78 -184.5t-221 -77.5q-145 0 -282 82q10 133 -8 241h55q42 -276 264 -276q61 0 106.5 44t45.5 105q0 43 -16.5 79t-51 65.5t-64.5 48.5t-81 45q-45 24 -70 38.5 t-61 42t-55 53t-33.5 64.5t-14.5 84q0 46 22 88.5t45.5 67t67.5 62.5q45 39 71 68t48.5 78.5t22.5 106.5q0 116 -56 174t-180 58q-254 0 -254 -395v-1008h-276z" />
<glyph unicode="&#xe0;" horiz-adv-x="954" d="M123 254q0 57 29 70l391 141q49 19 67.5 41.5t18.5 64.5v37q0 100 -48 167t-137 67q-62 0 -101.5 -29t-39.5 -78q0 -16 21 -45q28 -40 28 -74q0 -38 -27 -62t-69 -24q-45 0 -70.5 28t-25.5 79q0 102 98 177t219 75q141 0 216 -80.5t75 -200.5v-430q0 -34 3 -53t16.5 -34 t39.5 -15q47 0 97 20v-30q-45 -29 -102 -54.5t-91 -25.5q-32 0 -53.5 13t-31 37.5t-12.5 48t-3 56.5v25l20 -29q-183 -151 -286 -151q-92 0 -167 84t-75 184zM258 1421q0 29 20.5 49.5t49.5 20.5q32 0 53 -27l252 -319l-37 -33l-301 246q-2 2 -9 8t-10.5 10t-8.5 11t-7 15.5 t-2 18.5zM270 248q0 -57 52 -110.5t100 -53.5q72 0 174 74q35 27 35 80v188q0 6 -5.5 10t-11.5 0l-321 -121q-23 -9 -23 -67z" />
<glyph unicode="&#xe1;" horiz-adv-x="954" d="M123 254q0 57 29 70l391 141q49 19 67.5 41.5t18.5 64.5v37q0 100 -48 167t-137 67q-62 0 -101.5 -29t-39.5 -78q0 -16 21 -45q28 -40 28 -74q0 -38 -27 -62t-69 -24q-45 0 -70.5 28t-25.5 79q0 102 98 177t219 75q141 0 216 -80.5t75 -200.5v-430q0 -34 3 -53t16.5 -34 t39.5 -15q47 0 97 20v-30q-45 -29 -102 -54.5t-91 -25.5q-32 0 -53.5 13t-31 37.5t-12.5 48t-3 56.5v25l20 -29q-183 -151 -286 -151q-92 0 -167 84t-75 184zM270 248q0 -57 52 -110.5t100 -53.5q72 0 174 74q35 27 35 80v188q0 6 -5.5 10t-11.5 0l-321 -121q-23 -9 -23 -67 zM317 1145l252 319q21 27 54 27q29 0 49 -20.5t20 -49.5q0 -10 -2 -18.5t-7 -15.5t-8.5 -11t-10.5 -10t-9 -8l-301 -246z" />
<glyph unicode="&#xe2;" horiz-adv-x="954" d="M123 254q0 57 29 70l391 141q49 19 67.5 41.5t18.5 64.5v37q0 100 -48 167t-137 67q-62 0 -101.5 -29t-39.5 -78q0 -16 21 -45q28 -40 28 -74q0 -38 -27 -62t-69 -24q-45 0 -70.5 28t-25.5 79q0 102 98 177t219 75q141 0 216 -80.5t75 -200.5v-430q0 -34 3 -53t16.5 -34 t39.5 -15q47 0 97 20v-30q-45 -29 -102 -54.5t-91 -25.5q-32 0 -53.5 13t-31 37.5t-12.5 48t-3 56.5v25l20 -29q-183 -151 -286 -151q-92 0 -167 84t-75 184zM199 1163l270 285h20l271 -287l-27 -26l-252 157l-256 -155zM270 248q0 -57 52 -110.5t100 -53.5q72 0 174 74 q35 27 35 80v188q0 6 -5.5 10t-11.5 0l-321 -121q-23 -9 -23 -67z" />
<glyph unicode="&#xe3;" horiz-adv-x="954" d="M123 254q0 57 29 70l391 141q49 19 67.5 41.5t18.5 64.5v37q0 100 -48 167t-137 67q-62 0 -101.5 -29t-39.5 -78q0 -16 21 -45q28 -40 28 -74q0 -38 -27 -62t-69 -24q-45 0 -70.5 28t-25.5 79q0 102 98 177t219 75q141 0 216 -80.5t75 -200.5v-430q0 -34 3 -53t16.5 -34 t39.5 -15q47 0 97 20v-30q-45 -29 -102 -54.5t-91 -25.5q-32 0 -53.5 13t-31 37.5t-12.5 48t-3 56.5v25l20 -29q-183 -151 -286 -151q-92 0 -167 84t-75 184zM184 1077l131 195l365 26q21 2 45 19l76 69l24 -16l-125 -190l-360 -29q-29 -2 -55 -23l-78 -69zM270 248 q0 -57 52 -110.5t100 -53.5q72 0 174 74q35 27 35 80v188q0 6 -5.5 10t-11.5 0l-321 -121q-23 -9 -23 -67z" />
<glyph unicode="&#xe4;" horiz-adv-x="954" d="M123 254q0 57 29 70l391 141q49 19 67.5 41.5t18.5 64.5v37q0 100 -48 167t-137 67q-62 0 -101.5 -29t-39.5 -78q0 -16 21 -45q28 -40 28 -74q0 -38 -27 -62t-69 -24q-45 0 -70.5 28t-25.5 79q0 102 98 177t219 75q141 0 216 -80.5t75 -200.5v-430q0 -34 3 -53t16.5 -34 t39.5 -15q47 0 97 20v-30q-45 -29 -102 -54.5t-91 -25.5q-32 0 -53.5 13t-31 37.5t-12.5 48t-3 56.5v25l20 -29q-183 -151 -286 -151q-92 0 -167 84t-75 184zM170 1274q0 44 31 76t73 32q44 0 76.5 -32t32.5 -76q0 -42 -32.5 -73.5t-76.5 -31.5q-41 0 -72.5 32t-31.5 73z M270 248q0 -57 52 -110.5t100 -53.5q72 0 174 74q35 27 35 80v188q0 6 -5.5 10t-11.5 0l-321 -121q-23 -9 -23 -67zM578 1274q0 44 31 76t73 32q44 0 76.5 -32t32.5 -76q0 -42 -32.5 -73.5t-76.5 -31.5q-41 0 -72.5 32t-31.5 73z" />
<glyph unicode="&#xe5;" horiz-adv-x="954" d="M123 254q0 57 29 70l391 141q49 19 67.5 41.5t18.5 64.5v37q0 100 -48 167t-137 67q-62 0 -101.5 -29t-39.5 -78q0 -16 21 -45q28 -40 28 -74q0 -38 -27 -62t-69 -24q-45 0 -70.5 28t-25.5 79q0 102 98 177t219 75q141 0 216 -80.5t75 -200.5v-430q0 -34 3 -53t16.5 -34 t39.5 -15q47 0 97 20v-30q-45 -29 -102 -54.5t-91 -25.5q-32 0 -53.5 13t-31 37.5t-12.5 48t-3 56.5v25l20 -29q-183 -151 -286 -151q-92 0 -167 84t-75 184zM252 1262q0 93 67 160t160 67q94 0 161 -66.5t67 -160.5q0 -93 -67.5 -160.5t-160.5 -67.5q-92 0 -159.5 68 t-67.5 160zM270 248q0 -57 52 -110.5t100 -53.5q72 0 174 74q35 27 35 80v188q0 6 -5.5 10t-11.5 0l-321 -121q-23 -9 -23 -67zM334 1262q0 -60 43.5 -103t103.5 -43t102 43t42 103t-42 102.5t-102 42.5t-103.5 -42.5t-43.5 -102.5z" />
<glyph unicode="&#xe6;" horiz-adv-x="1458" d="M123 254q0 57 29 70l391 141q49 19 67.5 41.5t18.5 64.5v37q0 100 -48 167t-137 67q-62 0 -101.5 -29t-39.5 -78q0 -16 21 -45q28 -40 28 -74q0 -38 -27 -62t-69 -24q-45 0 -70.5 28t-25.5 79q0 102 98 177t219 75q141 0 216 -80.5t75 -200.5v-393l-51 -47 q-10 -7 -31 -21q-78 -53 -120.5 -80t-102 -54t-98.5 -27q-92 0 -167 84t-75 184zM270 248q0 -57 52 -110.5t100 -53.5q72 0 174 74q35 27 35 80v188q0 6 -5.5 10t-11.5 0l-321 -121q-23 -9 -23 -67zM631 424q0 203 120 334t300 131q141 0 229 -99t88 -249q0 -33 -33 -33 h-592v47l420 12q39 0 39 37q0 103 -43.5 167.5t-130.5 64.5q-113 0 -182.5 -101.5t-69.5 -265.5q0 -172 90.5 -269.5t225.5 -97.5q127 0 260 109l24 -21q-71 -103 -161.5 -154.5t-176.5 -51.5q-176 0 -291.5 127.5t-115.5 312.5z" />
<glyph unicode="&#xe7;" horiz-adv-x="913" d="M92 416q0 103 37.5 193.5t98 150.5t137 94.5t155.5 34.5q149 0 233.5 -66t84.5 -164q0 -53 -30.5 -82.5t-70.5 -29.5t-71 25.5t-31 66.5q0 32 14 57q15 35 15 43q0 44 -44.5 70.5t-113.5 26.5q-51 0 -96.5 -19.5t-85 -60.5t-63 -115t-23.5 -172q0 -174 88 -270.5 t223 -96.5t268 109l25 -21q-71 -102 -165 -154t-181 -52q-177 0 -290.5 123.5t-113.5 308.5zM276 -446q269 15 269 135q0 122 -209 125l55 192h66l-23 -86q246 -28 246 -164q0 -65 -33 -114t-91.5 -78t-127.5 -44.5t-152 -19.5v54z" />
<glyph unicode="&#xe8;" horiz-adv-x="919" d="M92 424q0 203 120 334t300 131q141 0 229 -99t88 -249q0 -33 -32 -33h-592v47l420 12q39 0 39 37q0 103 -44 167.5t-131 64.5q-112 0 -181.5 -101.5t-69.5 -265.5q0 -172 90 -269.5t225 -97.5q127 0 260 109l25 -21q-71 -103 -161.5 -154.5t-176.5 -51.5 q-176 0 -292 127.5t-116 312.5zM293 1421q0 29 20 49.5t49 20.5q33 0 54 -27l252 -319l-37 -33l-301 246q-2 2 -9 8t-10.5 10t-8.5 11t-7 15.5t-2 18.5z" />
<glyph unicode="&#xe9;" horiz-adv-x="919" d="M92 424q0 203 120 334t300 131q141 0 229 -99t88 -249q0 -33 -32 -33h-592v47l420 12q39 0 39 37q0 103 -44 167.5t-131 64.5q-112 0 -181.5 -101.5t-69.5 -265.5q0 -172 90 -269.5t225 -97.5q127 0 260 109l25 -21q-71 -103 -161.5 -154.5t-176.5 -51.5 q-176 0 -292 127.5t-116 312.5zM352 1145l252 319q21 27 53 27q29 0 49.5 -20.5t20.5 -49.5q0 -10 -2 -18.5t-7 -15.5t-8.5 -11t-10.5 -10t-9 -8l-301 -246z" />
<glyph unicode="&#xea;" horiz-adv-x="919" d="M92 424q0 203 120 334t300 131q141 0 229 -99t88 -249q0 -33 -32 -33h-592v47l420 12q39 0 39 37q0 103 -44 167.5t-131 64.5q-112 0 -181.5 -101.5t-69.5 -265.5q0 -172 90 -269.5t225 -97.5q127 0 260 109l25 -21q-71 -103 -161.5 -154.5t-176.5 -51.5 q-176 0 -292 127.5t-116 312.5zM233 1163l271 285h20l271 -287l-27 -26l-252 157l-256 -155z" />
<glyph unicode="&#xeb;" horiz-adv-x="919" d="M92 424q0 203 120 334t300 131q141 0 229 -99t88 -249q0 -33 -32 -33h-592v47l420 12q39 0 39 37q0 103 -44 167.5t-131 64.5q-112 0 -181.5 -101.5t-69.5 -265.5q0 -172 90 -269.5t225 -97.5q127 0 260 109l25 -21q-71 -103 -161.5 -154.5t-176.5 -51.5 q-176 0 -292 127.5t-116 312.5zM205 1274q0 44 31 76t73 32q44 0 76.5 -32t32.5 -76q0 -42 -32.5 -73.5t-76.5 -31.5q-41 0 -72.5 32t-31.5 73zM612 1274q0 44 31.5 76t73.5 32q44 0 76 -32t32 -76q0 -42 -32 -73.5t-76 -31.5q-41 0 -73 32t-32 73z" />
<glyph unicode="&#xec;" horiz-adv-x="534" d="M55 1421q0 29 20.5 49.5t49.5 20.5q32 0 53 -27l252 -319l-37 -33l-301 246q-2 2 -9 8t-10.5 10t-8.5 11t-7 15.5t-2 18.5zM72 0v31l86 22q53 15 53 66v561q0 41 -10 58t-39 24l-88 24v21q72 17 101 24t83 25.5t96 40.5l19 -12q-16 -41 -20.5 -86.5t-4.5 -126.5v-553 q0 -54 49 -66l86 -22v-31h-411z" />
<glyph unicode="&#xed;" horiz-adv-x="534" d="M72 0v31l86 22q53 15 53 66v561q0 41 -10 58t-39 24l-88 24v21q72 17 101 24t83 25.5t96 40.5l19 -12q-16 -41 -20.5 -86.5t-4.5 -126.5v-553q0 -54 49 -66l86 -22v-31h-411zM115 1145l252 319q21 27 53 27q29 0 49 -20.5t20 -49.5q0 -10 -2 -18.5t-7 -15.5t-8 -10.5 t-10 -10t-9 -8.5l-301 -246z" />
<glyph unicode="&#xee;" horiz-adv-x="534" d="M-4 1163l270 285h21l270 -287l-27 -26l-251 157l-256 -155zM72 0v31l86 22q53 15 53 66v561q0 41 -10 58t-39 24l-88 24v21q72 17 101 24t83 25.5t96 40.5l19 -12q-16 -41 -20.5 -86.5t-4.5 -126.5v-553q0 -54 49 -66l86 -22v-31h-411z" />
<glyph unicode="&#xef;" horiz-adv-x="534" d="M-33 1274q0 44 31.5 76t73.5 32q44 0 76 -32t32 -76q0 -42 -32 -73.5t-76 -31.5q-41 0 -73 32t-32 73zM72 0v31l86 22q53 15 53 66v561q0 41 -10 58t-39 24l-88 24v21q72 17 101 24t83 25.5t96 40.5l19 -12q-16 -41 -20.5 -86.5t-4.5 -126.5v-553q0 -54 49 -66l86 -22 v-31h-411zM375 1274q0 44 31 76t73 32q44 0 76.5 -32t32.5 -76q0 -42 -32.5 -73.5t-76.5 -31.5q-41 0 -72.5 32t-31.5 73z" />
<glyph unicode="&#xf0;" horiz-adv-x="1060" d="M72 326q0 130 34 230t90.5 158.5t124 87.5t140.5 29q134 0 212.5 -77t78.5 -201h4q22 126 22 274q0 252 -46 382t-146 130q-49 0 -84 -92q-33 -88 -84 -88q-38 0 -62 20.5t-24 57.5q0 67 66.5 113.5t170.5 46.5q351 0 351 -555q0 -253 -59.5 -447t-179 -306t-284.5 -112 q-138 0 -231.5 90.5t-93.5 258.5zM244 332q0 -158 51 -233.5t141 -75.5q70 0 125.5 47t86.5 119t47 147t16 141q0 54 -11 103.5t-34.5 95t-67 73t-102.5 27.5q-123 0 -187.5 -106t-64.5 -338zM473 1022l553 244l25 -54l-553 -245z" />
<glyph unicode="&#xf1;" horiz-adv-x="1091" d="M72 0v31l86 22q30 7 41.5 21.5t11.5 44.5v559q0 41 -10 58t-39 24l-88 24v21q170 36 268 90l18 -12q-24 -60 -24 -119v-21l12 -30v-594q0 -30 11.5 -44.5t41.5 -21.5l86 -22v-31h-415zM256 1077l131 195l365 26q21 2 45 19l75 69l25 -16l-125 -190l-360 -29 q-30 -2 -56 -23l-77 -69zM293 760h51q43 18 240 119q23 10 32 10q147 0 226.5 -73t79.5 -212v-485q0 -30 11.5 -44.5t41.5 -21.5l86 -22v-31h-416v31l86 22q30 7 41.5 21.5t11.5 44.5v459q0 98 -54 150t-157 52q-98 0 -161.5 -65t-63.5 -158z" />
<glyph unicode="&#xf2;" horiz-adv-x="1040" d="M92 428q0 204 118.5 332.5t309.5 128.5t309.5 -126t118.5 -319q0 -203 -118 -331.5t-310 -128.5q-190 0 -309 126.5t-119 317.5zM248 451q0 -194 72.5 -306t201.5 -112q128 0 199.5 102t71.5 287q0 194 -73 306t-202 112q-128 0 -199 -100.5t-71 -288.5zM299 1421 q0 29 20.5 49.5t49.5 20.5q32 0 53 -27l252 -319l-37 -33l-301 246q-2 2 -9 8t-10.5 10t-8.5 11t-7 15.5t-2 18.5z" />
<glyph unicode="&#xf3;" horiz-adv-x="1040" d="M92 428q0 204 118.5 332.5t309.5 128.5t309.5 -126t118.5 -319q0 -203 -118 -331.5t-310 -128.5q-190 0 -309 126.5t-119 317.5zM248 451q0 -194 72.5 -306t201.5 -112q128 0 199.5 102t71.5 287q0 194 -73 306t-202 112q-128 0 -199 -100.5t-71 -288.5zM358 1145 l252 319q21 27 54 27q29 0 49 -20.5t20 -49.5q0 -10 -2 -18.5t-7 -15.5t-8.5 -11t-10.5 -10t-9 -8l-301 -246z" />
<glyph unicode="&#xf4;" horiz-adv-x="1040" d="M92 428q0 204 118.5 332.5t309.5 128.5t309.5 -126t118.5 -319q0 -203 -118 -331.5t-310 -128.5q-190 0 -309 126.5t-119 317.5zM240 1163l270 285h20l271 -287l-27 -26l-252 157l-256 -155zM248 451q0 -194 72.5 -306t201.5 -112q128 0 199.5 102t71.5 287 q0 194 -73 306t-202 112q-128 0 -199 -100.5t-71 -288.5z" />
<glyph unicode="&#xf5;" horiz-adv-x="1040" d="M92 428q0 204 118.5 332.5t309.5 128.5t309.5 -126t118.5 -319q0 -203 -118 -331.5t-310 -128.5q-190 0 -309 126.5t-119 317.5zM225 1077l131 195l365 26q21 2 45 19l76 69l24 -16l-125 -190l-360 -29q-29 -2 -55 -23l-78 -69zM248 451q0 -194 72.5 -306t201.5 -112 q128 0 199.5 102t71.5 287q0 194 -73 306t-202 112q-128 0 -199 -100.5t-71 -288.5z" />
<glyph unicode="&#xf6;" horiz-adv-x="1040" d="M92 428q0 204 118.5 332.5t309.5 128.5t309.5 -126t118.5 -319q0 -203 -118 -331.5t-310 -128.5q-190 0 -309 126.5t-119 317.5zM211 1274q0 44 31 76t73 32q44 0 76.5 -32t32.5 -76q0 -42 -32.5 -73.5t-76.5 -31.5q-41 0 -72.5 32t-31.5 73zM248 451q0 -194 72.5 -306 t201.5 -112q128 0 199.5 102t71.5 287q0 194 -73 306t-202 112q-128 0 -199 -100.5t-71 -288.5zM618 1274q0 44 31.5 76t73.5 32q44 0 76 -32t32 -76q0 -42 -32 -73.5t-76 -31.5q-41 0 -73 32t-32 73z" />
<glyph unicode="&#xf7;" d="M150 647v78h786v-78h-786zM422 373q0 41 29.5 70.5t70.5 29.5t71 -29.5t30 -70.5t-30 -71t-71 -30t-70.5 30t-29.5 71zM422 999q0 41 29.5 71t70.5 30t71 -30t30 -71t-30 -70.5t-71 -29.5t-70.5 29.5t-29.5 70.5z" />
<glyph unicode="&#xf8;" horiz-adv-x="1048" d="M92 31l807 866l47 -41l-811 -866zM100 428q0 204 118.5 332.5t309.5 128.5t309.5 -126t118.5 -319q0 -203 -118 -331.5t-310 -128.5q-190 0 -309 126.5t-119 317.5zM256 451q0 -194 72.5 -306t201.5 -112q128 0 199.5 102t71.5 287q0 194 -73 306t-202 112 q-128 0 -199 -100.5t-71 -288.5z" />
<glyph unicode="&#xf9;" horiz-adv-x="1077" d="M31 844v20q97 0 280 25l19 -12q-25 -63 -25 -119v-461q0 -98 54 -150.5t151 -52.5q89 0 148 64.5t59 156.5l55 -202h-51q-130 -56 -229 -117q-23 -10 -33 -10q-291 0 -291 284v457q0 39 -10.5 55t-38.5 27zM274 1421q0 29 20.5 49.5t49.5 20.5q32 0 53 -27l252 -319 l-37 -33l-301 246q-2 2 -9 8t-10.5 10t-8.5 11t-7 15.5t-2 18.5zM580 844v20q97 0 280 25l19 -12q-25 -63 -25 -119v-608q0 -59 42.5 -82.5t129.5 -18.5v-39q-40 -1 -80 -4.5t-102.5 -11.5t-79.5 -10l-16 8l-15 123l-16 47v565q0 39 -10.5 55t-38.5 27z" />
<glyph unicode="&#xfa;" horiz-adv-x="1077" d="M31 844v20q97 0 280 25l19 -12q-25 -63 -25 -119v-461q0 -98 54 -150.5t151 -52.5q89 0 148 64.5t59 156.5l55 -202h-51q-130 -56 -229 -117q-23 -10 -33 -10q-291 0 -291 284v457q0 39 -10.5 55t-38.5 27zM334 1145l252 319q21 27 53 27q29 0 49.5 -20.5t20.5 -49.5 q0 -10 -2 -18.5t-7 -15.5t-8.5 -11t-10.5 -10t-9 -8l-301 -246zM580 844v20q97 0 280 25l19 -12q-25 -63 -25 -119v-608q0 -59 42.5 -82.5t129.5 -18.5v-39q-40 -1 -80 -4.5t-102.5 -11.5t-79.5 -10l-16 8l-15 123l-16 47v565q0 39 -10.5 55t-38.5 27z" />
<glyph unicode="&#xfb;" horiz-adv-x="1077" d="M31 844v20q97 0 280 25l19 -12q-25 -63 -25 -119v-461q0 -98 54 -150.5t151 -52.5q89 0 148 64.5t59 156.5l55 -202h-51q-130 -56 -229 -117q-23 -10 -33 -10q-291 0 -291 284v457q0 39 -10.5 55t-38.5 27zM215 1163l270 285h21l270 -287l-26 -26l-252 157l-256 -155z M580 844v20q97 0 280 25l19 -12q-25 -63 -25 -119v-608q0 -59 42.5 -82.5t129.5 -18.5v-39q-40 -1 -80 -4.5t-102.5 -11.5t-79.5 -10l-16 8l-15 123l-16 47v565q0 39 -10.5 55t-38.5 27z" />
<glyph unicode="&#xfc;" horiz-adv-x="1077" d="M31 844v20q97 0 280 25l19 -12q-25 -63 -25 -119v-461q0 -98 54 -150.5t151 -52.5q89 0 148 64.5t59 156.5l55 -202h-51q-130 -56 -229 -117q-23 -10 -33 -10q-291 0 -291 284v457q0 39 -10.5 55t-38.5 27zM186 1274q0 44 31.5 76t73.5 32q44 0 76 -32t32 -76 q0 -42 -32 -73.5t-76 -31.5q-41 0 -73 32t-32 73zM580 844v20q97 0 280 25l19 -12q-25 -63 -25 -119v-608q0 -59 42.5 -82.5t129.5 -18.5v-39q-40 -1 -80 -4.5t-102.5 -11.5t-79.5 -10l-16 8l-15 123l-16 47v565q0 39 -10.5 55t-38.5 27zM594 1274q0 44 31 76t73 32 q44 0 76.5 -32t32.5 -76q0 -42 -32.5 -73.5t-76.5 -31.5q-41 0 -72.5 32t-31.5 73z" />
<glyph unicode="&#xfd;" horiz-adv-x="946" d="M14 842v30h435v-30l-115 -27q-51 -12 -39 -45l262 -594h-47l240 606q5 12 -2 20t-35 15l-97 25v30h320v-30l-66 -17q-27 -6 -40 -16.5t-23 -34.5l-426 -1100q-17 -43 -32.5 -73t-41.5 -63t-63 -50.5t-84 -17.5q-45 0 -77 26.5t-32 69.5q0 49 30 78.5t75 29.5q35 0 65 -26 q30 -17 41 -17q36 0 51 45l150 379l-322 721q-11 25 -22.5 35t-40.5 16zM373 1145l252 319q21 27 53 27q29 0 49.5 -20.5t20.5 -49.5q0 -10 -2 -18.5t-7 -15.5t-8.5 -11t-10.5 -10t-9 -8l-301 -246z" />
<glyph unicode="&#xfe;" horiz-adv-x="1132" d="M72 1348v20q7 2 36 8.5t38 9t35 8.5t38 10t34.5 11t37.5 12.5t33.5 13.5t35.5 17l19 -12q-16 -41 -20.5 -86.5t-4.5 -126.5l-4 -459h4l183 92q41 23 75 23q106 0 189.5 -35.5t134.5 -96.5t77.5 -138t26.5 -164q0 -89 -27 -171.5t-79 -150.5t-137.5 -108.5t-192.5 -40.5 q-74 0 -142.5 19.5t-109.5 47.5v-444q0 -29 11.5 -44t42.5 -22l98 -22v-31h-428v31l86 22q30 7 41.5 21.5t11.5 44.5v1634q0 41 -10 58t-39 24zM348 313q0 -114 78.5 -195t181.5 -81q73 0 129.5 29t90.5 79t51.5 112t17.5 132q0 106 -33 193t-108 144.5t-183 57.5 q-102 0 -163.5 -53t-61.5 -129v-289z" />
<glyph unicode="&#xff;" horiz-adv-x="946" d="M14 842v30h435v-30l-115 -27q-51 -12 -39 -45l262 -594h-47l240 606q5 12 -2 20t-35 15l-97 25v30h320v-30l-66 -17q-27 -6 -40 -16.5t-23 -34.5l-426 -1100q-17 -43 -32.5 -73t-41.5 -63t-63 -50.5t-84 -17.5q-45 0 -77 26.5t-32 69.5q0 49 30 78.5t75 29.5q35 0 65 -26 q30 -17 41 -17q36 0 51 45l150 379l-322 721q-11 25 -22.5 35t-40.5 16zM225 1274q0 44 31.5 76t73.5 32q44 0 76 -32t32 -76q0 -42 -32 -73.5t-76 -31.5q-41 0 -73 32t-32 73zM633 1274q0 44 31 76t73 32q44 0 76.5 -32t32.5 -76q0 -42 -32.5 -73.5t-76.5 -31.5 q-41 0 -72.5 32t-31.5 73z" />
<glyph unicode="&#x152;" horiz-adv-x="2185" d="M92 670q0 204 94 370t261 260.5t374 94.5q220 0 404 -109l-23 -137q-70 92 -167.5 141t-213.5 49q-149 0 -269 -86.5t-187.5 -239.5t-67.5 -343q0 -175 67 -321.5t188 -233t269 -86.5q208 0 359 164l26 -121q-171 -99 -385 -99q-154 0 -290.5 55t-232 149t-151 222 t-55.5 271zM948 1380l1082 -2q-13 -63 -13 -114q0 -45 6 -91.5t15.5 -94t11.5 -62.5h-41q-20 60 -39 102.5t-48 85t-63.5 68t-84 41.5t-111.5 16h-356v-573h325q101 0 139 34t56 125l18 97h37v-570h-37l-18 97q-18 91 -56 125t-139 34h-325v-514q0 -77 31 -105t128 -28h189 q117 0 216 66t140 147l53 105h39q-49 -176 -53 -369h-1065l133 61l2 1242z" />
<glyph unicode="&#x153;" horiz-adv-x="1619" d="M92 428q0 204 118.5 332.5t309.5 128.5q190 0 305 -125.5t115 -319.5q0 -204 -114.5 -332t-305.5 -128q-190 0 -309 126.5t-119 317.5zM248 451q0 -194 72.5 -306t201.5 -112q128 0 199.5 102t71.5 287q0 194 -73 306t-202 112q-128 0 -199 -100.5t-71 -288.5zM793 424 q0 203 119.5 334t299.5 131q141 0 229.5 -99t88.5 -249q0 -33 -33 -33h-592v47l420 12q39 0 39 37q0 103 -43.5 167.5t-130.5 64.5q-113 0 -182.5 -101.5t-69.5 -265.5q0 -172 90 -269.5t225 -97.5q127 0 260 109l25 -21q-71 -103 -161.5 -154.5t-176.5 -51.5 q-176 0 -291.5 127.5t-115.5 312.5z" />
<glyph unicode="&#x178;" horiz-adv-x="1454" d="M10 1339v39h643v-35l-106 -16q-83 -12 -100.5 -42.5t28.5 -96.5l344 -467h-37l310 481q31 44 24 71.5t-59 39.5l-129 28v37h516v-37l-78 -12q-63 -8 -109.5 -35.5t-85.5 -89.5l-356 -547l-141 -32l-455 612q-32 44 -63.5 64.5t-83.5 27.5zM393 0v37l125 22 q86 17 108.5 38t22.5 83v496l185 20v-516q0 -62 22.5 -83t108.5 -38l125 -22v-37h-697zM467 1634q0 44 31.5 76.5t72.5 32.5q44 0 76.5 -32.5t32.5 -76.5q0 -41 -32.5 -72.5t-76.5 -31.5q-41 0 -72.5 31.5t-31.5 72.5zM874 1634q0 44 31.5 76.5t73.5 32.5q44 0 76 -32.5 t32 -76.5q0 -42 -32 -73t-76 -31q-41 0 -73 31.5t-32 72.5z" />
<glyph unicode="&#x2c6;" d="M262 1163l270 285h21l270 -287l-26 -26l-252 157l-256 -155z" />
<glyph unicode="&#x2dc;" d="M223 1077l131 195l365 26q21 2 45 19l76 69l24 -16l-125 -190l-360 -29q-29 -2 -55 -23l-78 -69z" />
<glyph unicode="&#x2000;" horiz-adv-x="902" />
<glyph unicode="&#x2001;" horiz-adv-x="1804" />
<glyph unicode="&#x2002;" horiz-adv-x="902" />
<glyph unicode="&#x2003;" horiz-adv-x="1804" />
<glyph unicode="&#x2004;" horiz-adv-x="601" />
<glyph unicode="&#x2005;" horiz-adv-x="451" />
<glyph unicode="&#x2006;" horiz-adv-x="300" />
<glyph unicode="&#x2007;" horiz-adv-x="300" />
<glyph unicode="&#x2008;" horiz-adv-x="225" />
<glyph unicode="&#x2009;" horiz-adv-x="360" />
<glyph unicode="&#x200a;" horiz-adv-x="100" />
<glyph unicode="&#x2010;" horiz-adv-x="542" d="M41 522v123h461v-123h-461z" />
<glyph unicode="&#x2011;" horiz-adv-x="542" d="M41 522v123h461v-123h-461z" />
<glyph unicode="&#x2012;" horiz-adv-x="542" d="M41 522v123h461v-123h-461z" />
<glyph unicode="&#x2013;" d="M0 471v72h1085v-72h-1085z" />
<glyph unicode="&#x2014;" horiz-adv-x="2170" d="M0 471v72h2171v-72h-2171z" />
<glyph unicode="&#x2018;" horiz-adv-x="542" d="M106 1036q0 137 92.5 242.5t235.5 114.5v-35q-93 -14 -149 -76t-56 -152q0 -63 52 -108t137 -57v-47q-40 -28 -66.5 -58.5t-48.5 -79.5q-197 70 -197 256z" />
<glyph unicode="&#x2019;" horiz-adv-x="542" d="M109 780v35q92 13 148 76t56 151q0 63 -51.5 108.5t-136.5 57.5v47q41 26 66.5 56.5t48.5 81.5q196 -70 196 -256q0 -137 -91 -241t-236 -116z" />
<glyph unicode="&#x201a;" horiz-adv-x="542" d="M109 -272q92 13 148 76t56 151q0 63 -51.5 108.5t-136.5 57.5v47q41 26 66.5 56t48.5 81q196 -70 196 -256q0 -136 -91 -240t-236 -116v35z" />
<glyph unicode="&#x201c;" horiz-adv-x="927" d="M106 1036q0 137 92.5 242.5t235.5 114.5v-35q-93 -14 -149 -76t-56 -152q0 -63 52 -108t137 -57v-47q-40 -28 -66.5 -58.5t-48.5 -79.5q-197 70 -197 256zM492 1036q0 137 92 242.5t235 114.5v-35q-93 -14 -149 -76t-56 -152q0 -63 52 -108t137 -57v-47 q-40 -28 -66.5 -58.5t-48.5 -79.5q-196 70 -196 256z" />
<glyph unicode="&#x201d;" horiz-adv-x="927" d="M109 780v35q92 13 148 76t56 151q0 63 -51.5 108.5t-136.5 57.5v47q41 26 66.5 56.5t48.5 81.5q196 -70 196 -256q0 -137 -91 -241t-236 -116zM494 780v35q92 13 148 76t56 151q0 63 -51.5 108.5t-136.5 57.5v47q41 26 66.5 56.5t48.5 81.5q196 -70 196 -256 q0 -137 -91 -241t-236 -116z" />
<glyph unicode="&#x201e;" horiz-adv-x="927" d="M109 -272q92 13 148 76t56 151q0 63 -51.5 108.5t-136.5 57.5v47q41 26 66.5 56t48.5 81q196 -70 196 -256q0 -136 -91 -240t-236 -116v35zM494 -272q92 13 148 76t56 151q0 63 -51.5 108.5t-136.5 57.5v47q41 26 66.5 56t48.5 81q196 -70 196 -256q0 -136 -91 -240 t-236 -116v35z" />
<glyph unicode="&#x2022;" horiz-adv-x="739" d="M127 735q0 101 71 172.5t171 71.5q101 0 172 -71.5t71 -172.5q0 -100 -71 -170.5t-172 -70.5q-100 0 -171 70.5t-71 170.5z" />
<glyph unicode="&#x2026;" horiz-adv-x="1456" d="M139 117q0 55 38.5 94t90.5 39q56 0 94.5 -39t38.5 -94q0 -52 -39 -90.5t-94 -38.5q-51 0 -90 39t-39 90zM596 117q0 55 38.5 94t90.5 39q55 0 94 -39t39 -94q0 -52 -39 -90.5t-94 -38.5q-51 0 -90 39t-39 90zM1053 117q0 55 38.5 94t90.5 39q56 0 94.5 -39t38.5 -94 q0 -52 -39 -90.5t-94 -38.5q-51 0 -90 39t-39 90z" />
<glyph unicode="&#x202f;" horiz-adv-x="360" />
<glyph unicode="&#x2039;" horiz-adv-x="434" d="M51 410v12l285 274l26 -18l-155 -260l153 -264l-26 -19z" />
<glyph unicode="&#x203a;" horiz-adv-x="434" d="M72 678l26 18l285 -274v-12l-283 -275l-26 19l153 264z" />
<glyph unicode="&#x205f;" horiz-adv-x="451" />
<glyph unicode="&#x20ac;" horiz-adv-x="1296" d="M20 514v61h881v-61h-881zM20 786v62h881v-62h-881zM174 690q0 154 46 287.5t123 224t177.5 142t208.5 51.5q70 0 130.5 -14t94.5 -31t71.5 -31t66.5 -14q13 0 33 4.5t26 5.5l2 -4q-6 -81 -6 -94q-1 -35 2 -75t7.5 -71.5t9.5 -58.5t7.5 -41t2.5 -13h-37q-28 91 -59 156 t-75.5 119.5t-106 82t-140.5 27.5q-162 0 -273.5 -179.5t-111.5 -467.5q0 -301 106 -484t281 -183q74 0 150.5 44.5t143 137.5t93.5 215h37q-4 -29 -18 -120.5t-20.5 -148.5t-6.5 -106h-27q-14 0 -36 -4.5t-61.5 -15t-60.5 -15.5q-12 -3 -54.5 -13.5t-62 -15t-50 -9.5 t-52.5 -5q-163 0 -291.5 95t-199 258.5t-70.5 363.5z" />
<glyph unicode="&#x2122;" horiz-adv-x="1515" d="M31 1286q18 93 8 168h561q-6 -55 10 -168h-26q-14 61 -52 99t-96 38h-59v-485q0 -31 7 -39t42 -14l51 -11v-26h-313v26l51 11q36 6 42.5 13.5t6.5 39.5v485h-59q-58 0 -94.5 -38t-51.5 -99h-28zM653 848v26l56 13q35 6 44 15t11 36l18 422q1 31 -9.5 42t-47.5 19l-35 9 v24h182l195 -461l-33 -39l201 500h199v-24l-56 -13q-32 -4 -41.5 -15t-7.5 -42l12 -422q2 -31 9 -38.5t43 -14.5l51 -11v-26h-291v26l61 13q17 5 22 10t5 18l-10 492l24 -4l-225 -561h-6l-240 581l35 7l-24 -492q-1 -26 8.5 -34.5t46.5 -16.5l51 -13v-26h-248z" />
<glyph unicode="&#x25fc;" horiz-adv-x="870" d="M0 0v870h870v-870h-870z" />
</font>
</defs>
</svg>
